<svg width="648" height="163" viewBox="0 0 648 163" fill="none" xmlns="http://www.w3.org/2000/svg">
<g clip-path="url(#clip0_2396_73387)">
<path d="M90.7989 0.259296C86.437 -0.430605 81.9701 0.293894 78.0442 2.32804C76.6772 3.04954 75.3903 3.91524 74.2051 4.91056C72.0545 4.65449 69.879 4.65595 67.7284 4.65595C49.7647 4.65595 32.5367 11.8396 19.8344 24.6267C7.13215 37.4138 -0.00390625 54.7568 -0.00390625 72.8404C-0.00390625 90.9241 7.13215 108.267 19.8344 121.054C32.5367 133.841 49.7647 141.025 67.7284 141.025H214.457C216.844 143.499 219.8 145.341 223.063 146.389C226.326 147.437 229.796 147.658 233.164 147.032C236.533 146.406 239.696 144.953 242.372 142.802C245.049 140.651 247.157 137.867 248.51 134.699C249.862 131.531 250.416 128.076 250.124 124.64C249.831 121.205 248.701 117.895 246.834 115.005C244.966 112.114 242.418 109.732 239.417 108.071C236.416 106.409 233.053 105.519 229.628 105.479C226.368 105.492 223.156 106.276 220.252 107.768C217.347 109.26 214.832 111.418 212.908 114.068H175.1C169.517 114.09 163.988 112.961 158.854 110.75C153.721 108.539 149.091 105.293 145.252 101.212C141.412 97.1306 138.444 92.301 136.53 87.0208C134.615 81.7406 133.796 76.1216 134.122 70.5102C134.626 61.0309 138.369 52.0182 144.716 44.9975C151.063 37.9767 159.625 33.3791 168.953 31.9826C178.28 30.5861 187.8 32.4766 195.902 37.3341C204.004 42.1915 210.191 49.7177 213.414 58.6388C213.459 58.6992 213.483 58.7726 213.483 58.848C213.483 58.9234 213.459 58.9967 213.414 59.0571C213.372 59.1284 213.31 59.1863 213.237 59.2241C213.163 59.2619 213.081 59.2781 212.998 59.2708H190.502C187.755 55.9795 184.069 53.6184 179.944 52.5076C175.819 51.3969 171.454 51.5903 167.442 53.0616C163.43 54.533 159.965 57.2111 157.516 60.7326C155.067 64.2541 153.754 68.4487 153.754 72.7472C153.754 77.0458 155.067 81.2403 157.516 84.7618C159.965 88.2834 163.43 90.9614 167.442 92.4328C171.454 93.9042 175.819 94.0976 179.944 92.9868C184.069 91.8761 187.755 89.5149 190.502 86.2236H213.048C217.445 86.2274 221.777 85.1607 225.676 83.1145C229.575 81.0683 232.924 78.1032 235.438 74.4722C237.952 70.8412 239.557 66.6519 240.115 62.2617C240.673 57.8714 240.168 53.4104 238.643 49.259C233.273 34.5188 223.013 22.0967 209.597 14.0918C196.18 6.08682 180.43 2.98984 165.007 5.32417C149.584 7.65849 135.435 15.281 124.95 26.9036C114.465 38.5262 108.287 53.4363 107.46 69.1144C106.519 85.2632 111.369 101.216 121.127 114.068H67.7284C56.8728 114.068 46.4618 109.726 38.7857 101.999C31.1096 94.2717 26.7972 83.7912 26.7972 72.8632C26.7972 61.9351 31.1096 51.4546 38.7857 43.7272C46.4618 35.9999 56.8728 31.6588 67.7284 31.6588H69.535C71.3777 34.8481 74.02 37.4943 77.1976 39.3327C80.3753 41.1711 83.9768 42.1372 87.6418 42.1343C91.2229 42.142 94.7454 41.2194 97.8686 39.4557C100.992 37.6919 103.61 35.1467 105.47 32.0663C107.331 28.9858 108.37 25.4742 108.487 21.8712C108.605 18.2681 107.797 14.6955 106.142 11.4987C104.652 8.5352 102.484 5.97059 99.8167 4.0164C97.149 2.0622 94.0581 0.774434 90.7989 0.259296ZM401.198 0.495724C400.997 0.496318 400.793 0.508803 400.588 0.532098H400.584C397.751 0.844496 395.606 3.29166 395.652 6.1609V64.3449V64.3495C395.668 66.737 397.607 68.6931 399.979 68.7098H399.983C401.445 68.7132 402.816 67.971 403.619 66.741V66.7365L403.926 66.2591C405.587 67.3278 407.316 68.2998 409.201 68.8916C411.06 69.5237 413 69.8793 414.96 69.9419H414.969H414.974C419.32 70.0252 423.61 68.9494 427.412 66.8274H427.421L427.426 66.8229C431.001 64.7686 433.909 61.7131 435.795 58.0296V58.025C437.819 54.0232 438.823 49.5793 438.726 45.0897C438.829 40.4792 437.868 35.9069 435.903 31.7406L435.899 31.736C434.101 27.9828 431.238 24.85 427.67 22.7381L427.661 22.7336L427.652 22.7291C423.814 20.5566 419.466 19.4618 415.064 19.5646H415.059C413.478 19.6072 411.91 19.8858 410.407 20.383H410.403C409.142 20.7748 407.949 21.3442 406.749 21.8925V6.07906V6.07452C406.75 2.97039 404.209 0.486826 401.198 0.495724ZM87.5696 10.8031C88.6299 10.8047 89.6837 10.9688 90.695 11.2896C92.934 12.0196 94.8524 13.5085 96.1233 15.5025C97.3943 17.4966 97.9393 19.8725 97.6655 22.2257C97.3916 24.5788 96.3159 26.7636 94.6216 28.408C92.9272 30.0524 90.719 31.0546 88.373 31.244C86.027 31.4333 83.6883 30.7982 81.7553 29.4466C79.8223 28.095 78.4145 26.1107 77.7717 23.8315C77.1289 21.5524 77.2908 19.1194 78.2299 16.9469C79.169 14.7745 80.8272 12.9969 82.922 11.917H82.9446C84.3784 11.1865 85.9626 10.8049 87.5696 10.8031ZM521.099 19.2599C520.817 19.2634 520.533 19.2759 520.25 19.2963C516.988 19.3564 513.779 20.1153 510.837 21.5333C508.979 22.3832 507.199 23.3987 505.526 24.575C504.561 25.254 503.295 24.7794 503.01 23.6293L503.005 23.6157L503.001 23.5975C502.545 21.9542 501.051 20.8101 499.356 20.8013H497.875C495.8 20.8012 494.099 22.527 494.117 24.6159V64.8951C494.098 66.984 495.8 68.7098 497.875 68.7098H501.416H501.42C503.484 68.6921 505.169 66.9815 505.169 64.9042V36.6328V36.6237C505.16 36.1275 505.373 35.6557 505.747 35.3325V35.3279C507.693 33.7061 509.784 32.2739 511.998 31.0495L512.011 31.045L512.025 31.0359C513.986 29.8833 516.2 29.2407 518.47 29.1581L518.506 29.1535L518.542 29.149C520.418 28.9445 522.246 29.7567 523.393 31.2586C524.507 33.4049 525.042 35.8104 524.897 38.2287L524.893 38.2606V64.9178C524.874 67.0068 526.575 68.7326 528.65 68.7325H532.237C534.312 68.7326 536.012 67.0068 535.994 64.9178V37.5104C536.242 32.8277 534.9 28.199 532.191 24.384L532.164 24.3522L532.137 24.3158C529.381 21.0473 525.328 19.2083 521.099 19.2599ZM464.493 19.4964C461.672 19.5845 458.871 19.9957 456.142 20.7194C454.786 21.0356 453.453 21.4322 452.145 21.9106H452.14L452.136 21.9152C449.6 22.864 448.289 25.7145 449.2 28.276C450.066 30.9299 452.945 32.3773 455.573 31.4723H455.577H455.582C458.548 30.4117 461.67 29.8478 464.818 29.8083H464.863L464.913 29.8037C467.23 29.5661 469.495 30.5316 470.961 32.3499C472.155 34.4426 472.687 36.8124 472.709 39.2154H463.129C458.525 38.9634 453.979 40.3587 450.297 43.1528L450.279 43.1664L450.266 43.1755C446.928 45.92 445.079 50.0918 445.262 54.424C445.042 58.566 446.54 62.6191 449.412 65.5953L449.448 65.6316L449.484 65.6635C452.963 68.6462 457.465 70.1324 462.022 69.8191C464.619 69.7775 467.179 69.2122 469.551 68.1505H469.556C471.41 67.3578 473.052 66.1714 474.651 64.9451L474.727 65.2406C475.248 67.2737 477.076 68.7069 479.163 68.7098H479.167C481.69 68.7098 483.756 66.6253 483.756 64.0858V36.5419V36.5237C483.796 33.4702 482.931 30.474 481.272 27.9168V27.9123L481.267 27.9077C479.521 25.2478 477.088 23.1181 474.231 21.7424C471.212 20.2439 467.886 19.4739 464.52 19.4964H464.506H464.493ZM319.002 19.5646C314.567 19.4709 310.186 20.5621 306.306 22.7245L306.301 22.7291L306.292 22.7336C302.68 24.8217 299.756 27.93 297.878 31.6724H297.873V31.6769C295.87 35.7153 294.87 40.1812 294.947 44.6941C294.826 49.2293 295.777 53.7307 297.729 57.8204V57.825L297.733 57.8295C299.564 61.56 302.441 64.6704 306.008 66.7729H306.017L306.021 66.7774C309.829 68.939 314.148 70.0331 318.518 69.9419H318.523H318.527C321.296 69.852 324.045 69.4244 326.711 68.6688C328.21 68.2892 329.678 67.8027 331.106 67.2093C333.498 66.2183 334.642 63.4222 333.64 61.0213L333.631 61.0031L333.622 60.9804C332.587 58.7871 330.037 57.7372 327.773 58.5752L327.764 58.5797L327.755 58.5843C326.855 58.9393 325.936 59.2432 325.004 59.4982L324.995 59.5027C322.909 60.006 320.772 60.2444 318.627 60.212H318.595H318.568C315.078 60.3589 311.739 58.7785 309.625 55.979L309.621 55.9745C307.256 52.7191 306.065 48.7505 306.247 44.7214L306.251 44.685V44.6487C306.16 40.6859 307.426 36.8116 309.842 33.682H309.847C311.998 30.8924 315.346 29.3136 318.853 29.4354H318.875H318.902C320.913 29.4065 322.921 29.6485 324.869 30.1493C325.999 30.4808 327.085 30.8732 328.008 31.1859V31.1904C330.364 32.0539 333.005 30.8814 333.965 28.5488C334.947 26.1559 333.807 23.3837 331.431 22.3926C330.005 21.7934 328.542 21.2962 327.05 20.8922C324.439 20.1151 321.741 19.6706 319.02 19.5691L319.011 19.5646H319.002ZM378.593 20.8013C375.578 20.8762 373.13 23.336 373.056 26.371V26.3846V53.6102C370.965 55.4487 368.715 57.1003 366.29 58.4615L366.281 58.4661L366.272 58.4706C364.307 59.6191 362.092 60.265 359.822 60.3529H359.786L359.75 60.3575C357.88 60.5628 356.063 59.7508 354.926 58.2478C353.812 56.1016 353.277 53.6961 353.422 51.2777L353.427 51.2459V26.4301L353.422 26.4164C353.345 23.3292 350.817 20.8482 347.749 20.8467H347.745C344.69 20.8492 342.192 23.3767 342.208 26.4528V52.0507L342.212 51.9961C341.965 56.6788 343.302 61.3075 346.011 65.1224L346.038 65.1588L346.065 65.1906C348.994 68.67 353.398 70.5319 357.916 70.2147C361.214 70.17 364.462 69.4108 367.437 67.9777H367.442C370.049 66.7866 372.373 65.0915 374.591 63.2765L375.106 65.2679V65.2725C375.647 67.2988 377.484 68.7136 379.568 68.7098H379.573C382.097 68.6932 384.157 66.6039 384.157 64.063V26.4028V26.3982C384.171 23.3226 381.676 20.8012 378.62 20.8013H378.606H378.593ZM414.937 29.4127H414.978H415.019C418.528 29.2447 421.889 30.8277 424.016 33.6411C426.354 36.9975 427.523 41.0396 427.331 45.1352V45.1806V45.2261C427.484 49.099 426.304 52.9081 423.984 56.0017L423.84 56.1927C421.645 58.7827 418.418 60.2644 415.028 60.0756L414.987 60.071H414.946C411.952 60.1367 409.058 59.1523 406.636 57.393V32.2544C409.001 30.3725 411.915 29.321 414.937 29.4127ZM462.009 47.2403C462.256 47.229 462.504 47.2297 462.754 47.2448H462.786H472.817V55.0015C471.379 56.5726 469.724 57.9349 467.849 58.9389L467.84 58.9435L467.835 58.948C466.035 59.9452 464.014 60.4656 461.959 60.4666H461.928L461.891 60.4711C460.108 60.5875 458.366 59.9249 457.095 58.6616C456.003 57.5084 455.402 55.972 455.428 54.3786V54.374C455.346 52.4728 456.047 50.6269 457.366 49.2636C458.621 48.0339 460.276 47.3191 462.009 47.2403ZM178.393 63.2856C180.251 64.0612 181.839 65.374 182.957 67.0581C184.074 68.7422 184.671 70.722 184.671 72.7472C184.671 75.4633 183.6 78.0683 181.692 79.9893C179.785 81.9102 177.197 82.9899 174.499 82.9909C172.995 82.9912 171.509 82.6555 170.149 82.0081C168.788 81.3607 167.588 80.4176 166.633 79.2468C165.678 78.0761 164.994 76.7067 164.628 75.2375C164.262 73.7682 164.225 72.2356 164.518 70.7501C164.812 69.2645 165.429 67.8629 166.325 66.6463C167.222 65.4298 168.375 64.4285 169.702 63.7145C171.029 63.0006 172.497 62.5918 173.999 62.5176C175.502 62.4435 177.003 62.7057 178.393 63.2856ZM455.979 73.7657C454.2 73.7328 452.485 74.4441 451.255 75.7389L451.25 75.7435L451.246 75.748C448.782 78.4095 448.782 82.5619 451.246 85.2233L451.255 85.2324L451.259 85.237C452.491 86.5228 454.202 87.2235 455.975 87.183C457.752 87.2069 459.468 86.5201 460.731 85.2597C463.396 82.6592 463.394 78.3226 460.731 75.7208C459.471 74.4543 457.76 73.7505 455.979 73.7657ZM373.29 91.8433C373.009 91.8469 372.724 91.8592 372.441 91.8797C369.157 91.9239 365.922 92.681 362.961 94.1121C360.341 95.296 358.013 96.9957 355.793 98.8225L355.26 96.822C354.722 94.8063 352.903 93.3943 350.83 93.3847H350.825C348.29 93.3847 346.209 95.4745 346.209 98.0268V135.692C346.208 138.781 348.678 141.33 351.747 141.407H351.76H351.769C354.892 141.407 357.446 138.835 357.446 135.692V108.48C359.493 106.644 361.702 104.993 364.086 103.628L364.09 103.624H364.095C366.056 102.471 368.27 101.824 370.54 101.741L370.581 101.737H370.617C372.487 101.528 374.312 102.335 375.445 103.842C376.567 105.985 377.097 108.394 376.944 110.812V110.844V135.646C376.943 138.736 379.409 141.284 382.477 141.361H382.491H382.504C385.627 141.361 388.181 138.79 388.181 135.646V110.098C388.43 105.411 387.077 100.777 384.351 96.9674L384.329 96.9356L384.302 96.9038C381.558 93.6325 377.513 91.79 373.29 91.8433ZM499.343 91.8433C499.061 91.8465 498.776 91.8597 498.493 91.8797C495.203 91.9258 491.96 92.6832 488.991 94.1121C486.381 95.3003 484.059 97.0003 481.845 98.8225L481.313 96.822C480.771 94.7956 478.935 93.3808 476.85 93.3847H476.846C474.322 93.4012 472.261 95.4859 472.261 98.0268V135.692C472.26 138.781 474.73 141.33 477.799 141.407H477.812H477.821C480.934 141.408 483.459 138.792 483.363 135.66V108.489C485.485 106.641 487.772 104.988 490.237 103.637L490.251 103.628L490.264 103.624C492.226 102.471 494.44 101.824 496.709 101.741H496.746L496.786 101.737C498.656 101.532 500.473 102.343 501.61 103.847C502.721 105.993 503.257 108.399 503.114 110.817L503.109 110.848V135.646C503.108 138.736 505.578 141.284 508.647 141.361H508.66H508.674C511.787 141.363 514.307 138.747 514.211 135.614V110.094C514.455 105.412 513.113 100.788 510.408 96.972L510.381 96.9356L510.354 96.8992C507.606 93.6352 503.563 91.7963 499.343 91.8433ZM545.456 92.1434C545.08 92.1443 544.702 92.1556 544.323 92.1798C540.091 92.0905 535.915 93.1733 532.259 95.3215L532.25 95.3261L532.241 95.3306C528.774 97.4654 526.007 100.58 524.278 104.283L524.274 104.288V104.292C522.414 108.363 521.493 112.802 521.568 117.282C521.27 124.056 523.717 130.662 528.352 135.583L528.357 135.592L528.366 135.601C532.828 140.166 539.261 142.434 547.385 142.434H547.39H547.394C552.235 142.381 556.999 141.203 561.314 138.993L561.319 138.988C563.548 137.853 564.527 135.143 563.541 132.832C562.5 130.395 559.652 129.272 557.245 130.349C555.536 131.038 554.33 131.561 553.32 131.909C551.402 132.498 549.403 132.783 547.399 132.75H547.353H547.304C543.566 133.034 539.887 131.742 537.128 129.19C534.951 126.754 533.741 123.671 533.384 120.433H561.955H561.978C563.832 120.344 565.3 118.776 565.289 116.909C565.536 110.602 563.697 104.388 560.054 99.2499L560.04 99.2317L560.022 99.209C556.486 94.7145 551.109 92.1302 545.456 92.1434ZM594.249 92.1434C593.871 92.1443 593.494 92.1556 593.115 92.1798C588.883 92.0905 584.712 93.1733 581.056 95.3215L581.047 95.3261L581.038 95.3306C577.569 97.4601 574.805 100.578 573.093 104.288C571.219 108.345 570.287 112.776 570.361 117.25V117.259C570.025 124.022 572.427 130.633 577.023 135.578L577.032 135.592L577.045 135.601C581.528 140.162 587.936 142.434 596.082 142.434H596.091H596.096C600.939 142.381 605.704 141.2 610.02 138.988H610.025V138.983C612.233 137.831 613.194 135.14 612.22 132.836C611.19 130.4 608.349 129.272 605.946 130.349C604.365 131.031 603.037 131.55 601.994 131.909C600.085 132.496 598.097 132.782 596.1 132.75H596.051H596.006C592.26 133.035 588.57 131.744 585.803 129.19C583.595 126.767 582.357 123.679 581.977 120.433H610.49C612.405 120.433 613.974 118.853 613.986 116.927C614.261 110.632 612.47 104.42 608.878 99.259L608.86 99.2317L608.842 99.209C605.296 94.7147 599.908 92.1305 594.249 92.1434ZM419.454 92.1525C415.11 92.0618 410.82 93.1262 407.015 95.2397L407.011 95.2442H407.002C403.427 97.2985 400.519 100.354 398.633 104.038V104.042V104.047C396.62 108.051 395.612 112.491 395.697 116.977C395.593 121.59 396.564 126.159 398.529 130.327V130.331V130.336C400.327 134.089 403.19 137.217 406.758 139.329L406.767 139.338L406.776 139.343C410.615 141.513 414.962 142.603 419.364 142.503H419.373H419.382C421.052 142.436 422.707 142.122 424.291 141.584C424.296 141.583 424.3 141.585 424.305 141.584C425.653 141.165 426.902 140.505 428.162 139.87V144.312L428.166 144.339C428.306 146.985 427.13 149.525 425.036 151.128C422.483 152.886 419.432 153.761 416.342 153.61L416.301 153.606H416.261C414.328 153.661 412.398 153.409 410.543 152.86H410.529C409.604 152.548 408.389 152.07 406.884 151.45H406.88C404.501 150.48 401.758 151.619 400.751 153.997C399.732 156.419 400.891 159.244 403.312 160.235C404.852 160.866 406.436 161.383 408.05 161.785H408.059C410.828 162.561 413.682 163.005 416.554 163.104H416.559H416.568C420.75 163.197 424.902 162.375 428.735 160.689C431.944 159.279 434.685 156.974 436.635 154.047L436.639 154.038L436.648 154.024C438.479 151.13 439.43 147.76 439.381 144.33V97.8495C439.397 95.4654 437.459 93.4983 435.09 93.4983H435.086C433.532 93.5044 432.094 94.3515 431.328 95.7126V95.7171L430.976 96.3445C429.301 95.1437 427.558 94.0312 425.619 93.3301H425.615C423.639 92.6163 421.566 92.22 419.468 92.1525H419.463H419.454ZM318.74 92.1661C318.362 92.167 317.985 92.1783 317.606 92.2025C313.376 92.1141 309.202 93.1968 305.547 95.3443L305.538 95.3488L305.529 95.3534C302.06 97.4829 299.296 100.601 297.584 104.31V104.315H297.58C295.739 108.379 294.843 112.813 294.947 117.278C294.579 124.012 296.926 130.611 301.464 135.573L301.477 135.587L301.491 135.601C305.974 140.162 312.382 142.434 320.528 142.434H320.537H320.542C325.385 142.381 330.15 141.2 334.466 138.988H334.471V138.983C336.679 137.831 337.64 135.14 336.666 132.836V132.832C335.625 130.395 332.777 129.272 330.37 130.349C328.812 131.031 327.489 131.55 326.445 131.909C324.535 132.496 322.543 132.782 320.546 132.75H320.497H320.451C316.708 133.035 313.02 131.742 310.253 129.19C308.083 126.753 306.877 123.668 306.527 120.433H335.189C337.106 120.433 338.677 118.837 338.667 116.909C338.878 110.603 337.018 104.4 333.364 99.2726L333.346 99.2544L333.333 99.2317C329.787 94.7374 324.399 92.1532 318.74 92.1661ZM455.966 93.321C452.846 93.3245 450.293 95.8855 450.293 99.0271V135.646C450.293 138.79 452.847 141.361 455.97 141.361C459.093 141.361 461.648 138.79 461.648 135.646V102.114L461.715 102.205V99.0316C461.715 98.7903 461.487 98.647 461.458 98.4133L461.507 98.3951L461.377 98.2223C460.928 95.4893 458.802 93.2836 455.966 93.321ZM625.797 93.3847C623.567 93.3846 621.735 95.2183 621.718 97.463V97.4676V135.692C621.717 138.781 624.183 141.33 627.251 141.407L627.278 141.411L627.305 141.407C630.373 141.33 632.839 138.781 632.838 135.692V110.462C635.082 108.398 637.547 106.586 640.236 105.156H640.241L640.245 105.151C641.595 104.413 643.018 103.819 644.491 103.378C647.031 102.661 648.498 99.952 647.734 97.413C647.038 94.8343 644.335 93.3226 641.794 94.103L641.785 94.1076L641.772 94.1121C640.379 94.5747 639.031 95.1667 637.747 95.8808L637.743 95.8853C637.738 95.8876 637.734 95.8875 637.729 95.8899C635.415 97.1187 633.297 98.6703 631.248 100.305L629.577 95.9899V95.9854C628.967 94.427 627.469 93.396 625.806 93.3847H625.801H625.797ZM317.335 102.019H317.358H317.38C320.382 102.026 322.602 102.937 324.304 104.765C325.804 106.376 326.828 108.923 327.457 112.172H306.789C307.184 109.516 308.191 106.986 309.95 104.947C311.887 102.957 314.571 101.887 317.335 102.019ZM419.151 102.019H419.188H419.219C420.934 101.989 422.642 102.264 424.264 102.824C425.705 103.332 427.008 104.153 428.184 105.129V129.203C427.039 130.23 425.767 131.117 424.35 131.713H424.345C422.712 132.366 420.967 132.692 419.21 132.677H419.178L419.147 132.682C415.643 132.869 412.284 131.281 410.182 128.453C407.82 125.106 406.639 121.06 406.839 116.959L406.844 116.914V116.864C406.686 112.991 407.875 109.185 410.209 106.102L410.213 106.097C412.372 103.372 415.692 101.855 419.151 102.019ZM543.912 102.019H543.934H543.957C547 102.026 549.257 102.941 550.98 104.77C552.499 106.381 553.533 108.925 554.169 112.172H533.488C533.855 109.524 534.83 106.995 536.554 104.942C538.481 102.958 541.157 101.888 543.912 102.019ZM592.609 102.019H592.636H592.659C595.693 102.026 597.944 102.94 599.668 104.77C601.187 106.381 602.224 108.926 602.866 112.172H582.167C582.533 109.525 583.506 106.998 585.229 104.947C587.165 102.957 589.845 101.887 592.609 102.019ZM233.522 117.059C235.38 117.835 236.968 119.148 238.086 120.832C239.203 122.516 239.8 124.496 239.8 126.521C239.794 129.235 238.72 131.837 236.814 133.756C234.908 135.676 232.325 136.758 229.628 136.765C228.124 136.765 226.638 136.429 225.277 135.782C223.917 135.134 222.717 134.191 221.762 133.021C220.807 131.85 220.122 130.48 219.757 129.011C219.391 127.542 219.354 126.009 219.647 124.524C219.941 123.038 220.558 121.637 221.454 120.42C222.35 119.203 223.504 118.202 224.831 117.488C226.158 116.774 227.625 116.366 229.128 116.291C230.631 116.217 232.132 116.479 233.522 117.059Z" fill="#0091FF"/>
</g>
<defs>
<clipPath id="clip0_2396_73387">
<rect width="648" height="163" fill="white"/>
</clipPath>
</defs>
</svg>
