<svg width="893" height="1200" viewBox="0 0 893 1200" fill="none" xmlns="http://www.w3.org/2000/svg">
<path d="M0 1105L0 0H893V727L181.65 1191.82C164.317 1201.83 142.958 1201.83 125.625 1191.82L0 1105Z" fill="#E7F0FC"/>
<circle opacity="0.16" cx="771" cy="488" r="11" fill="#06EEC1"/>
<circle opacity="0.16" cx="129.5" cy="360.5" r="17.5" fill="#06EEC1"/>
<circle opacity="0.08" cx="189.5" cy="990.5" r="40.5" fill="#1DE686"/>
<rect opacity="0.16" x="131.578" y="106" width="83.1654" height="83.1654" rx="12" transform="rotate(30 131.578 106)" fill="#FFB59E"/>
<rect opacity="0.16" x="696.754" y="199" width="41.5106" height="41.5106" rx="12" transform="rotate(30 696.754 199)" fill="#FFB59E"/>
<rect opacity="0.16" x="506.98" y="723" width="65.4651" height="65.4651" rx="12" transform="rotate(66.3814 506.98 723)" fill="#FFB59E"/>
<rect opacity="0.16" x="120.98" y="790" width="29.01" height="29.01" rx="12" transform="rotate(66.3814 120.98 790)" fill="#FFB59E"/>
<circle opacity="0.16" cx="590.5" cy="106.5" r="24.5" fill="#1DE686"/>
<path opacity="0.16" d="M743.021 635.445C755.062 633.019 765.214 644.536 761.295 656.177L748.07 695.464C744.151 707.105 729.1 710.138 720.979 700.924L693.568 669.827C685.446 660.613 690.344 646.062 702.385 643.635L743.021 635.445Z" fill="#ADF0D9"/>
</svg>
