<svg width="1440" height="737" viewBox="0 0 1440 737" fill="none" xmlns="http://www.w3.org/2000/svg">
<path d="M-540 253V0L1440 0L341.65 725.817C324.317 735.83 302.958 735.83 285.625 725.817L-540 253Z" fill="#E7F0FC"/>
<path opacity="0.16" d="M745.121 80.8744C754.173 79.0501 761.806 87.7089 758.86 96.4604L748.917 125.997C745.971 134.748 734.656 137.029 728.55 130.101L707.942 106.722C701.836 99.7953 705.519 88.856 714.571 87.0316L745.121 80.8744Z" fill="#ADF0D9"/>
<circle opacity="0.16" cx="751" cy="116" r="11" fill="#06EEC1"/>
<circle opacity="0.08" cx="181.5" cy="524.5" r="40.5" fill="#1DE686"/>
<rect opacity="0.16" x="51.582" y="16" width="83.1654" height="83.1654" rx="12" transform="rotate(30 51.582 16)" fill="#FFB59E"/>
<rect opacity="0.16" x="605.754" y="49" width="41.5106" height="41.5106" rx="12" transform="rotate(30 605.754 49)" fill="#FFB59E"/>
<circle opacity="0.16" cx="246.5" cy="82.5" r="24.5" fill="#1DE686"/>
<path opacity="0.16" d="M1184.02 36.4453C1196.06 34.0186 1206.21 45.5361 1202.3 57.1767L1189.07 96.4639C1185.15 108.105 1170.1 111.138 1161.98 101.924L1134.57 70.8267C1126.45 61.6127 1131.34 47.0619 1143.38 44.6352L1184.02 36.4453Z" fill="#ADF0D9"/>
<circle opacity="0.16" cx="1100.5" cy="29.5" r="17.5" fill="#06EEC1"/>
<circle opacity="0.16" cx="1253.5" cy="57.5" r="10.5" fill="#06EEC1"/>
</svg>
