<svg width="648" height="173" viewBox="0 0 648 173" fill="none" xmlns="http://www.w3.org/2000/svg">
<path fill-rule="evenodd" clip-rule="evenodd" d="M97.8532 4.29869L143.53 49.5191L89.2616 103.254L65.8838 80.1087L50.2986 95.5386L89.2616 134.113L159.118 64.9516L170.4 76.122C176.189 81.8536 176.189 91.1464 170.4 96.878L97.8532 168.701C92.0639 174.433 82.6776 174.433 76.8884 168.701L4.34197 96.878C-1.44732 91.1464 -1.44732 81.8536 4.34197 76.122L76.8884 4.29869C82.6776 -1.4329 92.0639 -1.4329 97.8532 4.29869Z" fill="#007FFF"/>
<path d="M274.057 54.5694L251.532 122.542H233.387L264.16 40.547H275.707L274.057 54.5694ZM292.772 122.542L270.189 54.5694L268.369 40.547H280.03L310.974 122.542H292.772ZM291.748 92.019V105.253H248.005V92.019H291.748Z" fill="#007FFF"/>
<path d="M337.251 36.0417V122.542H320.812V36.0417H337.251Z" fill="#007FFF"/>
<path d="M370.411 36.0417V122.542H353.972V36.0417H370.411Z" fill="#007FFF"/>
<path d="M422.626 109.251V36.0417H439.122V122.542H424.276L422.626 109.251ZM383.719 92.8074V91.6248C383.719 86.9694 384.25 82.7457 385.312 78.9539C386.374 75.1244 387.928 71.8394 389.976 69.0987C392.024 66.358 394.546 64.2368 397.541 62.7351C400.537 61.2334 403.95 60.4825 407.78 60.4825C411.383 60.4825 414.53 61.2334 417.223 62.7351C419.953 64.2368 422.266 66.3768 424.162 69.155C426.096 71.8957 427.651 75.1432 428.826 78.8975C430.002 82.6143 430.855 86.6878 431.386 91.1179V93.7084C430.855 97.9508 430.002 101.893 428.826 105.535C427.651 109.176 426.096 112.367 424.162 115.108C422.266 117.811 419.953 119.914 417.223 121.415C414.492 122.917 411.307 123.668 407.666 123.668C403.836 123.668 400.423 122.898 397.428 121.359C394.47 119.82 391.967 117.661 389.919 114.883C387.909 112.105 386.374 108.838 385.312 105.084C384.25 101.33 383.719 97.2375 383.719 92.8074ZM400.101 91.6248V92.8074C400.101 95.3228 400.291 97.6693 400.67 99.8468C401.087 102.024 401.751 103.958 402.661 105.647C403.609 107.299 404.822 108.594 406.301 109.533C407.818 110.434 409.657 110.885 411.819 110.885C414.625 110.885 416.938 110.265 418.758 109.026C420.579 107.75 421.963 106.004 422.911 103.789C423.897 101.574 424.465 99.0208 424.617 96.13V88.7527C424.503 86.3875 424.162 84.2663 423.593 82.3891C423.062 80.4744 422.266 78.8412 421.204 77.4897C420.18 76.1381 418.891 75.0869 417.336 74.336C415.819 73.5852 414.018 73.2097 411.932 73.2097C409.809 73.2097 407.989 73.6978 406.472 74.6739C404.955 75.6125 403.723 76.9077 402.774 78.5597C401.864 80.2116 401.182 82.1638 400.727 84.4164C400.31 86.6315 400.101 89.0343 400.101 91.6248Z" fill="#007FFF"/>
<path d="M451.634 92.6947V91.5121C451.634 87.0445 452.279 82.9335 453.568 79.1791C454.857 75.3872 456.734 72.1022 459.199 69.324C461.664 66.5458 464.698 64.387 468.3 62.8477C471.903 61.2709 476.036 60.4825 480.701 60.4825C485.365 60.4825 489.517 61.2709 493.158 62.8477C496.798 64.387 499.851 66.5458 502.316 69.324C504.819 72.1022 506.715 75.3872 508.004 79.1791C509.293 82.9335 509.938 87.0445 509.938 91.5121V92.6947C509.938 97.1249 509.293 101.236 508.004 105.028C506.715 108.782 504.819 112.067 502.316 114.883C499.851 117.661 496.817 119.82 493.215 121.359C489.612 122.898 485.479 123.668 480.814 123.668C476.15 123.668 471.998 122.898 468.357 121.359C464.755 119.82 461.702 117.661 459.199 114.883C456.734 112.067 454.857 108.782 453.568 105.028C452.279 101.236 451.634 97.1249 451.634 92.6947ZM468.016 91.5121V92.6947C468.016 95.2477 468.243 97.6317 468.698 99.8468C469.154 102.062 469.874 104.014 470.86 105.704C471.884 107.355 473.211 108.651 474.842 109.589C476.472 110.528 478.463 110.997 480.814 110.997C483.09 110.997 485.043 110.528 486.673 109.589C488.304 108.651 489.612 107.355 490.598 105.704C491.584 104.014 492.305 102.062 492.76 99.8468C493.253 97.6317 493.499 95.2477 493.499 92.6947V91.5121C493.499 89.0343 493.253 86.7066 492.76 84.5291C492.305 82.314 491.565 80.3617 490.541 78.6723C489.555 76.9453 488.247 75.5937 486.616 74.6176C484.986 73.6415 483.014 73.1534 480.701 73.1534C478.387 73.1534 476.415 73.6415 474.785 74.6176C473.192 75.5937 471.884 76.9453 470.86 78.6723C469.874 80.3617 469.154 82.314 468.698 84.5291C468.243 86.7066 468.016 89.0343 468.016 91.5121Z" fill="#007FFF"/>
<path d="M538.377 74.6176V122.542H521.995V61.6088H537.353L538.377 74.6176ZM535.988 89.9353H531.551C531.551 85.4301 532.139 81.3754 533.314 77.7712C534.49 74.1295 536.139 71.0322 538.263 68.4793C540.386 65.8888 542.908 63.9177 545.828 62.5662C548.786 61.1771 552.085 60.4825 555.726 60.4825C558.608 60.4825 561.243 60.8955 563.632 61.7214C566.021 62.5474 568.069 63.8614 569.776 65.6635C571.52 67.4656 572.847 69.8496 573.757 72.8155C574.705 75.7814 575.179 79.4044 575.179 83.6843V122.542H558.684V83.628C558.684 80.9249 558.304 78.8225 557.546 77.3207C556.787 75.819 555.669 74.7678 554.19 74.1671C552.749 73.5288 550.967 73.2097 548.843 73.2097C546.643 73.2097 544.728 73.6415 543.098 74.505C541.505 75.3685 540.178 76.5699 539.116 78.1091C538.092 79.6109 537.315 81.3754 536.784 83.4028C536.253 85.4301 535.988 87.6076 535.988 89.9353Z" fill="#007FFF"/>
<path d="M618.294 123.668C613.516 123.668 609.23 122.917 605.438 121.415C601.646 119.876 598.423 117.755 595.768 115.052C593.152 112.349 591.142 109.214 589.739 105.647C588.336 102.043 587.634 98.2136 587.634 94.1589V91.9063C587.634 87.2885 588.298 83.0649 589.625 79.2354C590.952 75.406 592.848 72.0834 595.313 69.2677C597.816 66.4519 600.85 64.2932 604.414 62.7914C607.979 61.2521 611.999 60.4825 616.473 60.4825C620.834 60.4825 624.702 61.1958 628.077 62.6225C631.452 64.0491 634.277 66.0765 636.553 68.7045C638.866 71.3326 640.61 74.4862 641.786 78.1655C642.961 81.8072 643.549 85.8618 643.549 90.3295V97.0873H594.631V86.2748H627.452V85.0359C627.452 82.7833 627.034 80.7747 626.2 79.0102C625.404 77.2081 624.19 75.7814 622.56 74.7302C620.929 73.679 618.843 73.1534 616.303 73.1534C614.141 73.1534 612.283 73.6227 610.728 74.5613C609.173 75.4999 607.903 76.8139 606.917 78.5033C605.969 80.1928 605.249 82.1826 604.756 84.4727C604.301 86.7253 604.073 89.2032 604.073 91.9063V94.1589C604.073 96.5993 604.414 98.8519 605.097 100.917C605.817 102.982 606.822 104.765 608.112 106.267C609.439 107.768 611.032 108.932 612.89 109.758C614.786 110.584 616.928 110.997 619.317 110.997C622.275 110.997 625.025 110.434 627.565 109.308C630.144 108.144 632.362 106.398 634.221 104.07L642.184 112.63C640.895 114.47 639.131 116.234 636.894 117.924C634.695 119.613 632.04 121.002 628.931 122.091C625.821 123.142 622.275 123.668 618.294 123.668Z" fill="#007FFF"/>
</svg>
