<svg width="756" height="784" viewBox="0 0 756 784" fill="none" xmlns="http://www.w3.org/2000/svg">
<rect x="286" width="157" height="153" rx="76.5" fill="#EBECFF"/>
<ellipse cx="364.5" cy="76.5" rx="70.5" ry="68.5" fill="#FFD6DE"/>
<path d="M339.116 70.9091H342.018L345.905 80.3949H346.058L349.945 70.9091H352.847V84H350.571V75.0064H350.449L346.832 83.9616H345.131L341.513 74.9872H341.392V84H339.116V70.9091ZM359.673 84.1918C358.689 84.1918 357.839 83.9872 357.123 83.5781C356.411 83.1648 355.864 82.581 355.48 81.8267C355.097 81.0682 354.905 80.1754 354.905 79.1484C354.905 78.1385 355.097 77.2521 355.48 76.4893C355.868 75.7223 356.409 75.1257 357.104 74.6996C357.798 74.2692 358.614 74.054 359.552 74.054C360.157 74.054 360.728 74.152 361.265 74.348C361.806 74.5398 362.283 74.8381 362.697 75.2429C363.114 75.6477 363.442 76.1634 363.681 76.7898C363.92 77.4119 364.039 78.1534 364.039 79.0142V79.7237H355.991V78.1641H361.821C361.817 77.7209 361.721 77.3267 361.533 76.9815C361.346 76.6321 361.084 76.3572 360.747 76.157C360.415 75.9567 360.027 75.8565 359.584 75.8565C359.111 75.8565 358.695 75.9716 358.337 76.2017C357.979 76.4276 357.7 76.7259 357.5 77.0966C357.304 77.4631 357.204 77.8658 357.199 78.3047V79.6662C357.199 80.2372 357.304 80.7273 357.513 81.1364C357.722 81.5412 358.013 81.8523 358.388 82.0696C358.763 82.2827 359.202 82.3892 359.705 82.3892C360.042 82.3892 360.347 82.3423 360.619 82.2486C360.892 82.1506 361.128 82.0078 361.329 81.8203C361.529 81.6328 361.68 81.4006 361.783 81.1236L363.943 81.3665C363.807 81.9375 363.547 82.4361 363.163 82.8622C362.784 83.2841 362.298 83.6122 361.706 83.8466C361.114 84.0767 360.436 84.1918 359.673 84.1918ZM369.64 84.1726C368.869 84.1726 368.178 83.9744 367.569 83.5781C366.96 83.1818 366.478 82.6065 366.124 81.8523C365.771 81.098 365.594 80.1818 365.594 79.1037C365.594 78.0128 365.773 77.0923 366.131 76.3423C366.493 75.5881 366.981 75.0192 367.595 74.6357C368.208 74.2479 368.892 74.054 369.646 74.054C370.222 74.054 370.695 74.152 371.065 74.348C371.436 74.5398 371.73 74.772 371.948 75.0447C372.165 75.3132 372.333 75.5668 372.453 75.8054H372.548V70.9091H374.869V84H372.593V82.4531H372.453C372.333 82.6918 372.161 82.9453 371.935 83.2138C371.709 83.478 371.411 83.7038 371.04 83.8913C370.669 84.0788 370.203 84.1726 369.64 84.1726ZM370.286 82.2741C370.776 82.2741 371.193 82.142 371.538 81.8778C371.884 81.6094 372.146 81.2365 372.325 80.7592C372.504 80.282 372.593 79.7259 372.593 79.0909C372.593 78.456 372.504 77.9041 372.325 77.4354C372.15 76.9666 371.89 76.6023 371.545 76.3423C371.204 76.0824 370.784 75.9524 370.286 75.9524C369.77 75.9524 369.34 76.0866 368.994 76.3551C368.649 76.6236 368.389 76.9943 368.215 77.4673C368.04 77.9403 367.953 78.4815 367.953 79.0909C367.953 79.7045 368.04 80.2521 368.215 80.7337C368.394 81.2109 368.656 81.5881 369.001 81.8651C369.35 82.1378 369.778 82.2741 370.286 82.2741ZM377.334 84V74.1818H379.648V84H377.334ZM378.498 72.7884C378.131 72.7884 377.816 72.6669 377.552 72.424C377.288 72.1768 377.155 71.8807 377.155 71.5355C377.155 71.1861 377.288 70.8899 377.552 70.647C377.816 70.3999 378.131 70.2763 378.498 70.2763C378.869 70.2763 379.184 70.3999 379.444 70.647C379.708 70.8899 379.84 71.1861 379.84 71.5355C379.84 71.8807 379.708 72.1768 379.444 72.424C379.184 72.6669 378.869 72.7884 378.498 72.7884ZM384.853 84.1982C384.231 84.1982 383.671 84.0874 383.172 83.8658C382.678 83.6399 382.286 83.3075 381.996 82.8686C381.71 82.4297 381.568 81.8885 381.568 81.245C381.568 80.6911 381.67 80.233 381.874 79.8707C382.079 79.5085 382.358 79.2188 382.712 79.0014C383.065 78.7841 383.464 78.62 383.907 78.5092C384.354 78.3942 384.817 78.3111 385.294 78.2599C385.869 78.2003 386.336 78.147 386.694 78.1001C387.052 78.049 387.312 77.9723 387.474 77.87C387.64 77.7635 387.723 77.5994 387.723 77.3778V77.3395C387.723 76.858 387.58 76.4851 387.295 76.2209C387.009 75.9567 386.598 75.8246 386.061 75.8246C385.494 75.8246 385.045 75.9482 384.712 76.1953C384.384 76.4425 384.163 76.7344 384.048 77.071L381.887 76.7642C382.058 76.1676 382.339 75.669 382.731 75.2685C383.123 74.8636 383.602 74.5611 384.169 74.3608C384.736 74.1562 385.362 74.054 386.048 74.054C386.521 74.054 386.992 74.1094 387.461 74.2202C387.93 74.331 388.358 74.5142 388.746 74.7699C389.134 75.0213 389.445 75.3643 389.679 75.799C389.918 76.2337 390.037 76.777 390.037 77.429V84H387.813V82.6513H387.736C387.595 82.924 387.397 83.1797 387.141 83.4183C386.89 83.6527 386.573 83.8423 386.189 83.9872C385.81 84.1278 385.364 84.1982 384.853 84.1982ZM385.454 82.4979C385.918 82.4979 386.321 82.4062 386.662 82.223C387.003 82.0355 387.265 81.7884 387.448 81.4815C387.636 81.1747 387.729 80.8402 387.729 80.478V79.321C387.657 79.3807 387.533 79.4361 387.359 79.4872C387.188 79.5384 386.997 79.5831 386.783 79.6214C386.57 79.6598 386.359 79.6939 386.151 79.7237C385.942 79.7536 385.761 79.7791 385.607 79.8004C385.262 79.8473 384.953 79.924 384.68 80.0305C384.408 80.1371 384.193 80.2862 384.035 80.478C383.877 80.6655 383.798 80.9084 383.798 81.2067C383.798 81.6328 383.954 81.9545 384.265 82.1719C384.576 82.3892 384.972 82.4979 385.454 82.4979Z" fill="#4F3588"/>
<rect x="544" y="442" width="212" height="110" rx="12" fill="#EBECFF"/>
<rect x="552" y="450" width="196" height="94" rx="6" fill="#D6D8FF"/>
<path d="M620.362 504V490.909H625.272C626.277 490.909 627.121 491.097 627.803 491.472C628.489 491.847 629.007 492.362 629.356 493.018C629.71 493.67 629.887 494.412 629.887 495.243C629.887 496.082 629.71 496.828 629.356 497.48C629.002 498.132 628.48 498.646 627.79 499.021C627.1 499.391 626.25 499.577 625.24 499.577H621.986V497.627H624.92C625.508 497.627 625.99 497.525 626.365 497.32C626.74 497.116 627.017 496.835 627.196 496.477C627.379 496.119 627.47 495.707 627.47 495.243C627.47 494.778 627.379 494.369 627.196 494.016C627.017 493.662 626.737 493.387 626.358 493.191C625.983 492.991 625.5 492.891 624.907 492.891H622.734V504H620.362ZM631.844 504V494.182H634.158V504H631.844ZM633.008 492.788C632.641 492.788 632.326 492.667 632.062 492.424C631.797 492.177 631.665 491.881 631.665 491.536C631.665 491.186 631.797 490.89 632.062 490.647C632.326 490.4 632.641 490.276 633.008 490.276C633.378 490.276 633.694 490.4 633.954 490.647C634.218 490.89 634.35 491.186 634.35 491.536C634.35 491.881 634.218 492.177 633.954 492.424C633.694 492.667 633.378 492.788 633.008 492.788ZM640.82 504.192C639.84 504.192 638.998 503.977 638.295 503.546C637.597 503.116 637.057 502.521 636.678 501.763C636.303 501 636.116 500.122 636.116 499.129C636.116 498.132 636.307 497.252 636.691 496.489C637.074 495.722 637.616 495.126 638.315 494.7C639.018 494.269 639.849 494.054 640.807 494.054C641.604 494.054 642.31 494.201 642.923 494.495C643.541 494.785 644.033 495.196 644.4 495.729C644.766 496.257 644.975 496.875 645.026 497.582H642.815C642.725 497.109 642.512 496.715 642.175 496.4C641.843 496.08 641.398 495.92 640.839 495.92C640.366 495.92 639.951 496.048 639.593 496.304C639.235 496.555 638.956 496.918 638.756 497.391C638.56 497.864 638.462 498.43 638.462 499.091C638.462 499.76 638.56 500.335 638.756 500.817C638.952 501.294 639.226 501.663 639.58 501.923C639.938 502.178 640.358 502.306 640.839 502.306C641.18 502.306 641.485 502.242 641.753 502.114C642.026 501.982 642.254 501.793 642.437 501.545C642.621 501.298 642.746 500.998 642.815 500.644H645.026C644.971 501.339 644.766 501.955 644.413 502.491C644.059 503.024 643.577 503.442 642.968 503.744C642.359 504.043 641.643 504.192 640.82 504.192ZM651.829 494.182V495.972H646.185V494.182H651.829ZM647.578 491.83H649.892V501.047C649.892 501.358 649.939 501.597 650.033 501.763C650.131 501.925 650.259 502.036 650.416 502.095C650.574 502.155 650.749 502.185 650.94 502.185C651.085 502.185 651.217 502.174 651.337 502.153C651.46 502.131 651.554 502.112 651.618 502.095L652.008 503.904C651.884 503.947 651.707 503.994 651.477 504.045C651.252 504.096 650.975 504.126 650.646 504.134C650.067 504.151 649.545 504.064 649.08 503.872C648.616 503.676 648.247 503.374 647.975 502.964C647.706 502.555 647.574 502.044 647.578 501.43V491.83ZM660.022 499.871V494.182H662.336V504H660.092V502.255H659.99C659.768 502.805 659.404 503.254 658.897 503.604C658.394 503.953 657.774 504.128 657.037 504.128C656.393 504.128 655.824 503.985 655.33 503.7C654.84 503.41 654.457 502.99 654.18 502.44C653.903 501.886 653.764 501.217 653.764 500.433V494.182H656.078V500.075C656.078 500.697 656.248 501.192 656.589 501.558C656.93 501.925 657.378 502.108 657.932 502.108C658.273 502.108 658.603 502.025 658.922 501.859C659.242 501.692 659.504 501.445 659.709 501.117C659.918 500.785 660.022 500.369 660.022 499.871ZM664.715 504V494.182H666.959V495.818H667.061C667.24 495.251 667.547 494.815 667.982 494.508C668.421 494.197 668.921 494.041 669.484 494.041C669.612 494.041 669.754 494.048 669.912 494.06C670.074 494.069 670.208 494.084 670.315 494.105V496.234C670.217 496.2 670.061 496.17 669.848 496.144C669.639 496.114 669.437 496.099 669.241 496.099C668.819 496.099 668.44 496.191 668.103 496.374C667.771 496.553 667.509 496.803 667.317 497.122C667.125 497.442 667.029 497.81 667.029 498.228V504H664.715ZM675.794 504.192C674.81 504.192 673.96 503.987 673.244 503.578C672.532 503.165 671.985 502.581 671.601 501.827C671.218 501.068 671.026 500.175 671.026 499.148C671.026 498.138 671.218 497.252 671.601 496.489C671.989 495.722 672.53 495.126 673.225 494.7C673.919 494.269 674.735 494.054 675.673 494.054C676.278 494.054 676.849 494.152 677.386 494.348C677.927 494.54 678.404 494.838 678.818 495.243C679.235 495.648 679.563 496.163 679.802 496.79C680.041 497.412 680.16 498.153 680.16 499.014V499.724H672.112V498.164H677.942C677.938 497.721 677.842 497.327 677.654 496.982C677.467 496.632 677.205 496.357 676.868 496.157C676.536 495.957 676.148 495.857 675.705 495.857C675.232 495.857 674.816 495.972 674.458 496.202C674.1 496.428 673.821 496.726 673.621 497.097C673.425 497.463 673.325 497.866 673.321 498.305V499.666C673.321 500.237 673.425 500.727 673.634 501.136C673.843 501.541 674.134 501.852 674.509 502.07C674.884 502.283 675.323 502.389 675.826 502.389C676.163 502.389 676.468 502.342 676.74 502.249C677.013 502.151 677.25 502.008 677.45 501.82C677.65 501.633 677.801 501.401 677.904 501.124L680.064 501.366C679.928 501.937 679.668 502.436 679.284 502.862C678.905 503.284 678.419 503.612 677.827 503.847C677.235 504.077 676.557 504.192 675.794 504.192Z" fill="#4F3588"/>
<rect x="257" y="442" width="216" height="110" rx="12" fill="#EBECFF"/>
<rect x="265" y="450" width="200" height="94" rx="6" fill="#D6D8FF"/>
<path d="M342.704 490.909L346.111 501.213H346.245L349.646 490.909H352.253L347.638 504H344.711L340.102 490.909H342.704ZM353.875 504V494.182H356.189V504H353.875ZM355.039 492.788C354.672 492.788 354.357 492.667 354.093 492.424C353.829 492.177 353.696 491.881 353.696 491.536C353.696 491.186 353.829 490.89 354.093 490.647C354.357 490.4 354.672 490.276 355.039 490.276C355.41 490.276 355.725 490.4 355.985 490.647C356.249 490.89 356.381 491.186 356.381 491.536C356.381 491.881 356.249 492.177 355.985 492.424C355.725 492.667 355.41 492.788 355.039 492.788ZM362.212 504.173C361.441 504.173 360.751 503.974 360.141 503.578C359.532 503.182 359.05 502.607 358.697 501.852C358.343 501.098 358.166 500.182 358.166 499.104C358.166 498.013 358.345 497.092 358.703 496.342C359.065 495.588 359.553 495.019 360.167 494.636C360.78 494.248 361.464 494.054 362.219 494.054C362.794 494.054 363.267 494.152 363.638 494.348C364.008 494.54 364.302 494.772 364.52 495.045C364.737 495.313 364.905 495.567 365.025 495.805H365.121V490.909H367.441V504H365.165V502.453H365.025C364.905 502.692 364.733 502.945 364.507 503.214C364.281 503.478 363.983 503.704 363.612 503.891C363.241 504.079 362.775 504.173 362.212 504.173ZM362.858 502.274C363.348 502.274 363.766 502.142 364.111 501.878C364.456 501.609 364.718 501.237 364.897 500.759C365.076 500.282 365.165 499.726 365.165 499.091C365.165 498.456 365.076 497.904 364.897 497.435C364.722 496.967 364.462 496.602 364.117 496.342C363.776 496.082 363.356 495.952 362.858 495.952C362.342 495.952 361.912 496.087 361.567 496.355C361.222 496.624 360.962 496.994 360.787 497.467C360.612 497.94 360.525 498.482 360.525 499.091C360.525 499.705 360.612 500.252 360.787 500.734C360.966 501.211 361.228 501.588 361.573 501.865C361.922 502.138 362.351 502.274 362.858 502.274ZM374.253 504.192C373.269 504.192 372.419 503.987 371.703 503.578C370.991 503.165 370.444 502.581 370.06 501.827C369.677 501.068 369.485 500.175 369.485 499.148C369.485 498.138 369.677 497.252 370.06 496.489C370.448 495.722 370.989 495.126 371.684 494.7C372.378 494.269 373.194 494.054 374.132 494.054C374.737 494.054 375.308 494.152 375.845 494.348C376.386 494.54 376.863 494.838 377.277 495.243C377.694 495.648 378.022 496.163 378.261 496.79C378.5 497.412 378.619 498.153 378.619 499.014V499.724H370.571V498.164H376.401C376.397 497.721 376.301 497.327 376.113 496.982C375.926 496.632 375.664 496.357 375.327 496.157C374.995 495.957 374.607 495.857 374.164 495.857C373.691 495.857 373.275 495.972 372.917 496.202C372.559 496.428 372.28 496.726 372.08 497.097C371.884 497.463 371.784 497.866 371.78 498.305V499.666C371.78 500.237 371.884 500.727 372.093 501.136C372.302 501.541 372.593 501.852 372.968 502.07C373.343 502.283 373.782 502.389 374.285 502.389C374.622 502.389 374.927 502.342 375.199 502.249C375.472 502.151 375.709 502.008 375.909 501.82C376.109 501.633 376.26 501.401 376.363 501.124L378.523 501.366C378.387 501.937 378.127 502.436 377.743 502.862C377.364 503.284 376.878 503.612 376.286 503.847C375.694 504.077 375.016 504.192 374.253 504.192ZM384.859 504.192C383.9 504.192 383.07 503.981 382.366 503.559C381.663 503.137 381.118 502.547 380.73 501.788C380.347 501.03 380.155 500.143 380.155 499.129C380.155 498.115 380.347 497.227 380.73 496.464C381.118 495.701 381.663 495.109 382.366 494.687C383.07 494.265 383.9 494.054 384.859 494.054C385.818 494.054 386.649 494.265 387.352 494.687C388.055 495.109 388.599 495.701 388.982 496.464C389.37 497.227 389.564 498.115 389.564 499.129C389.564 500.143 389.37 501.03 388.982 501.788C388.599 502.547 388.055 503.137 387.352 503.559C386.649 503.981 385.818 504.192 384.859 504.192ZM384.872 502.338C385.392 502.338 385.827 502.195 386.176 501.91C386.525 501.62 386.785 501.232 386.956 500.746C387.131 500.261 387.218 499.719 387.218 499.123C387.218 498.522 387.131 497.979 386.956 497.493C386.785 497.003 386.525 496.613 386.176 496.323C385.827 496.033 385.392 495.888 384.872 495.888C384.339 495.888 383.896 496.033 383.543 496.323C383.193 496.613 382.931 497.003 382.756 497.493C382.586 497.979 382.501 498.522 382.501 499.123C382.501 499.719 382.586 500.261 382.756 500.746C382.931 501.232 383.193 501.62 383.543 501.91C383.896 502.195 384.339 502.338 384.872 502.338Z" fill="#4F3588"/>
<rect y="442" width="208" height="110" rx="12" fill="#EBECFF"/>
<rect x="8" y="450" width="192" height="94" rx="6" fill="#D6D8FF"/>
<path d="M84.4563 494.508C84.3967 493.95 84.1452 493.515 83.7021 493.204C83.2631 492.893 82.6921 492.737 81.989 492.737C81.4947 492.737 81.0707 492.812 80.717 492.961C80.3633 493.11 80.0927 493.312 79.9052 493.568C79.7177 493.824 79.6218 494.116 79.6175 494.444C79.6175 494.717 79.6793 494.953 79.8029 495.153C79.9308 495.354 80.1033 495.524 80.3207 495.665C80.538 495.801 80.7788 495.916 81.043 496.01C81.3072 496.104 81.5735 496.183 81.842 496.246L83.0692 496.553C83.5636 496.668 84.0387 496.824 84.4947 497.02C84.9549 497.216 85.3661 497.463 85.7283 497.761C86.0948 498.06 86.3846 498.42 86.5977 498.842C86.8107 499.263 86.9173 499.758 86.9173 500.325C86.9173 501.092 86.7212 501.767 86.3292 502.351C85.9371 502.93 85.3704 503.384 84.6289 503.712C83.8917 504.036 82.9989 504.198 81.9506 504.198C80.9322 504.198 80.0479 504.04 79.2979 503.725C78.5522 503.41 77.9684 502.95 77.5465 502.344C77.1289 501.739 76.9031 501.002 76.869 500.133H79.2021C79.2362 500.589 79.3768 500.968 79.6239 501.271C79.8711 501.573 80.1928 501.799 80.5891 501.948C80.9897 502.097 81.4371 502.172 81.9315 502.172C82.4471 502.172 82.8988 502.095 83.2866 501.942C83.6786 501.784 83.9854 501.567 84.207 501.29C84.4286 501.009 84.5415 500.68 84.5458 500.305C84.5415 499.964 84.4414 499.683 84.2454 499.462C84.0494 499.236 83.7745 499.048 83.4208 498.899C83.0714 498.746 82.6623 498.609 82.1935 498.49L80.7042 498.107C79.6261 497.83 78.7738 497.41 78.1474 496.847C77.5252 496.281 77.2141 495.528 77.2141 494.591C77.2141 493.82 77.4229 493.144 77.8406 492.565C78.2624 491.985 78.8356 491.536 79.56 491.216C80.2844 490.892 81.1048 490.73 82.021 490.73C82.9499 490.73 83.7638 490.892 84.4627 491.216C85.1658 491.536 85.7177 491.981 86.1183 492.552C86.5188 493.119 86.7255 493.771 86.7383 494.508H84.4563ZM93.2118 504.192C92.253 504.192 91.4221 503.981 90.7189 503.559C90.0158 503.137 89.4703 502.547 89.0826 501.788C88.699 501.03 88.5073 500.143 88.5073 499.129C88.5073 498.115 88.699 497.227 89.0826 496.464C89.4703 495.701 90.0158 495.109 90.7189 494.687C91.4221 494.265 92.253 494.054 93.2118 494.054C94.1706 494.054 95.0016 494.265 95.7047 494.687C96.4078 495.109 96.9512 495.701 97.3347 496.464C97.7225 497.227 97.9164 498.115 97.9164 499.129C97.9164 500.143 97.7225 501.03 97.3347 501.788C96.9512 502.547 96.4078 503.137 95.7047 503.559C95.0016 503.981 94.1706 504.192 93.2118 504.192ZM93.2246 502.338C93.7445 502.338 94.1792 502.195 94.5286 501.91C94.878 501.62 95.138 501.232 95.3084 500.746C95.4831 500.261 95.5705 499.719 95.5705 499.123C95.5705 498.522 95.4831 497.979 95.3084 497.493C95.138 497.003 94.878 496.613 94.5286 496.323C94.1792 496.033 93.7445 495.888 93.2246 495.888C92.6919 495.888 92.2488 496.033 91.8951 496.323C91.5456 496.613 91.2836 497.003 91.1088 497.493C90.9384 497.979 90.8532 498.522 90.8532 499.123C90.8532 499.719 90.9384 500.261 91.1088 500.746C91.2836 501.232 91.5456 501.62 91.8951 501.91C92.2488 502.195 92.6919 502.338 93.2246 502.338ZM106.138 499.871V494.182H108.452V504H106.208V502.255H106.106C105.885 502.805 105.52 503.254 105.013 503.604C104.51 503.953 103.89 504.128 103.153 504.128C102.51 504.128 101.941 503.985 101.446 503.7C100.956 503.41 100.573 502.99 100.296 502.44C100.019 501.886 99.8803 501.217 99.8803 500.433V494.182H102.194V500.075C102.194 500.697 102.365 501.192 102.706 501.558C103.047 501.925 103.494 502.108 104.048 502.108C104.389 502.108 104.719 502.025 105.039 501.859C105.358 501.692 105.62 501.445 105.825 501.117C106.034 500.785 106.138 500.369 106.138 499.871ZM113.145 498.247V504H110.831V494.182H113.043V495.85H113.158C113.384 495.3 113.744 494.864 114.238 494.54C114.737 494.216 115.353 494.054 116.086 494.054C116.763 494.054 117.354 494.199 117.856 494.489C118.363 494.778 118.756 495.198 119.032 495.748C119.314 496.298 119.452 496.964 119.448 497.749V504H117.134V498.107C117.134 497.45 116.964 496.937 116.623 496.566C116.286 496.195 115.819 496.01 115.223 496.01C114.818 496.01 114.458 496.099 114.143 496.278C113.831 496.453 113.586 496.707 113.407 497.039C113.233 497.371 113.145 497.774 113.145 498.247ZM125.444 504.173C124.672 504.173 123.982 503.974 123.373 503.578C122.763 503.182 122.282 502.607 121.928 501.852C121.574 501.098 121.398 500.182 121.398 499.104C121.398 498.013 121.577 497.092 121.934 496.342C122.297 495.588 122.785 495.019 123.398 494.636C124.012 494.248 124.696 494.054 125.45 494.054C126.025 494.054 126.498 494.152 126.869 494.348C127.24 494.54 127.534 494.772 127.751 495.045C127.969 495.313 128.137 495.567 128.256 495.805H128.352V490.909H130.672V504H128.397V502.453H128.256C128.137 502.692 127.964 502.945 127.738 503.214C127.513 503.478 127.214 503.704 126.844 503.891C126.473 504.079 126.006 504.173 125.444 504.173ZM126.089 502.274C126.579 502.274 126.997 502.142 127.342 501.878C127.687 501.609 127.949 501.237 128.128 500.759C128.307 500.282 128.397 499.726 128.397 499.091C128.397 498.456 128.307 497.904 128.128 497.435C127.954 496.967 127.694 496.602 127.349 496.342C127.008 496.082 126.588 495.952 126.089 495.952C125.574 495.952 125.143 496.087 124.798 496.355C124.453 496.624 124.193 496.994 124.018 497.467C123.844 497.94 123.756 498.482 123.756 499.091C123.756 499.705 123.844 500.252 124.018 500.734C124.197 501.211 124.459 501.588 124.805 501.865C125.154 502.138 125.582 502.274 126.089 502.274Z" fill="#4F3588"/>
<rect x="213" y="674" width="304" height="110" rx="44" fill="#EBECFF"/>
<rect x="221" y="682" width="288" height="94" rx="37.6" fill="#B6F7D3"/>
<path d="M274.278 722.909H277.18L281.067 732.395H281.22L285.107 722.909H288.009V736H285.733V727.006H285.612L281.994 735.962H280.293L276.676 726.987H276.554V736H274.278V722.909ZM294.835 736.192C293.851 736.192 293.001 735.987 292.285 735.578C291.573 735.165 291.026 734.581 290.642 733.827C290.259 733.068 290.067 732.175 290.067 731.148C290.067 730.138 290.259 729.252 290.642 728.489C291.03 727.722 291.571 727.126 292.266 726.7C292.96 726.269 293.776 726.054 294.714 726.054C295.319 726.054 295.89 726.152 296.427 726.348C296.968 726.54 297.445 726.838 297.859 727.243C298.276 727.648 298.604 728.163 298.843 728.79C299.082 729.412 299.201 730.153 299.201 731.014V731.724H291.153V730.164H296.983C296.979 729.721 296.883 729.327 296.695 728.982C296.508 728.632 296.246 728.357 295.909 728.157C295.577 727.957 295.189 727.857 294.746 727.857C294.273 727.857 293.857 727.972 293.499 728.202C293.141 728.428 292.862 728.726 292.662 729.097C292.466 729.463 292.366 729.866 292.362 730.305V731.666C292.362 732.237 292.466 732.727 292.675 733.136C292.884 733.541 293.176 733.852 293.551 734.07C293.926 734.283 294.364 734.389 294.867 734.389C295.204 734.389 295.509 734.342 295.781 734.249C296.054 734.151 296.291 734.008 296.491 733.82C296.691 733.633 296.842 733.401 296.945 733.124L299.105 733.366C298.969 733.937 298.709 734.436 298.325 734.862C297.946 735.284 297.46 735.612 296.868 735.847C296.276 736.077 295.598 736.192 294.835 736.192ZM304.802 736.173C304.031 736.173 303.34 735.974 302.731 735.578C302.122 735.182 301.64 734.607 301.286 733.852C300.933 733.098 300.756 732.182 300.756 731.104C300.756 730.013 300.935 729.092 301.293 728.342C301.655 727.588 302.143 727.019 302.757 726.636C303.37 726.248 304.054 726.054 304.809 726.054C305.384 726.054 305.857 726.152 306.228 726.348C306.598 726.54 306.892 726.772 307.11 727.045C307.327 727.313 307.495 727.567 307.615 727.805H307.71V722.909H310.031V736H307.755V734.453H307.615C307.495 734.692 307.323 734.945 307.097 735.214C306.871 735.478 306.573 735.704 306.202 735.891C305.831 736.079 305.365 736.173 304.802 736.173ZM305.448 734.274C305.938 734.274 306.355 734.142 306.701 733.878C307.046 733.609 307.308 733.237 307.487 732.759C307.666 732.282 307.755 731.726 307.755 731.091C307.755 730.456 307.666 729.904 307.487 729.435C307.312 728.967 307.052 728.602 306.707 728.342C306.366 728.082 305.946 727.952 305.448 727.952C304.932 727.952 304.502 728.087 304.157 728.355C303.811 728.624 303.551 728.994 303.377 729.467C303.202 729.94 303.115 730.482 303.115 731.091C303.115 731.705 303.202 732.252 303.377 732.734C303.556 733.211 303.818 733.588 304.163 733.865C304.512 734.138 304.941 734.274 305.448 734.274ZM312.497 736V726.182H314.81V736H312.497ZM313.66 724.788C313.293 724.788 312.978 724.667 312.714 724.424C312.45 724.177 312.318 723.881 312.318 723.536C312.318 723.186 312.45 722.89 312.714 722.647C312.978 722.4 313.293 722.276 313.66 722.276C314.031 722.276 314.346 722.4 314.606 722.647C314.87 722.89 315.002 723.186 315.002 723.536C315.002 723.881 314.87 724.177 314.606 724.424C314.346 724.667 314.031 724.788 313.66 724.788ZM320.015 736.198C319.393 736.198 318.833 736.087 318.334 735.866C317.84 735.64 317.448 735.308 317.158 734.869C316.872 734.43 316.73 733.888 316.73 733.245C316.73 732.691 316.832 732.233 317.036 731.871C317.241 731.509 317.52 731.219 317.874 731.001C318.228 730.784 318.626 730.62 319.069 730.509C319.517 730.394 319.979 730.311 320.456 730.26C321.032 730.2 321.498 730.147 321.856 730.1C322.214 730.049 322.474 729.972 322.636 729.87C322.802 729.763 322.885 729.599 322.885 729.378V729.339C322.885 728.858 322.742 728.485 322.457 728.221C322.171 727.957 321.76 727.825 321.223 727.825C320.657 727.825 320.207 727.948 319.875 728.195C319.546 728.442 319.325 728.734 319.21 729.071L317.049 728.764C317.22 728.168 317.501 727.669 317.893 727.268C318.285 726.864 318.764 726.561 319.331 726.361C319.898 726.156 320.524 726.054 321.21 726.054C321.684 726.054 322.154 726.109 322.623 726.22C323.092 726.331 323.52 726.514 323.908 726.77C324.296 727.021 324.607 727.364 324.841 727.799C325.08 728.234 325.199 728.777 325.199 729.429V736H322.975V734.651H322.898C322.757 734.924 322.559 735.18 322.304 735.418C322.052 735.653 321.735 735.842 321.351 735.987C320.972 736.128 320.527 736.198 320.015 736.198ZM320.616 734.498C321.081 734.498 321.483 734.406 321.824 734.223C322.165 734.036 322.427 733.788 322.61 733.482C322.798 733.175 322.892 732.84 322.892 732.478V731.321C322.819 731.381 322.696 731.436 322.521 731.487C322.35 731.538 322.159 731.583 321.946 731.621C321.733 731.66 321.522 731.694 321.313 731.724C321.104 731.754 320.923 731.779 320.769 731.8C320.424 731.847 320.115 731.924 319.843 732.031C319.57 732.137 319.355 732.286 319.197 732.478C319.039 732.665 318.96 732.908 318.96 733.207C318.96 733.633 319.116 733.955 319.427 734.172C319.738 734.389 320.134 734.498 320.616 734.498ZM336.273 736.192C335.315 736.192 334.484 735.981 333.78 735.559C333.077 735.137 332.532 734.547 332.144 733.788C331.761 733.03 331.569 732.143 331.569 731.129C331.569 730.115 331.761 729.227 332.144 728.464C332.532 727.701 333.077 727.109 333.78 726.687C334.484 726.265 335.315 726.054 336.273 726.054C337.232 726.054 338.063 726.265 338.766 726.687C339.469 727.109 340.013 727.701 340.396 728.464C340.784 729.227 340.978 730.115 340.978 731.129C340.978 732.143 340.784 733.03 340.396 733.788C340.013 734.547 339.469 735.137 338.766 735.559C338.063 735.981 337.232 736.192 336.273 736.192ZM336.286 734.338C336.806 734.338 337.241 734.195 337.59 733.91C337.94 733.62 338.199 733.232 338.37 732.746C338.545 732.261 338.632 731.719 338.632 731.123C338.632 730.522 338.545 729.979 338.37 729.493C338.199 729.003 337.94 728.613 337.59 728.323C337.241 728.033 336.806 727.888 336.286 727.888C335.753 727.888 335.31 728.033 334.957 728.323C334.607 728.613 334.345 729.003 334.17 729.493C334 729.979 333.915 730.522 333.915 731.123C333.915 731.719 334 732.261 334.17 732.746C334.345 733.232 334.607 733.62 334.957 733.91C335.31 734.195 335.753 734.338 336.286 734.338ZM343.044 736V722.909H345.358V727.805H345.454C345.573 727.567 345.742 727.313 345.959 727.045C346.176 726.772 346.47 726.54 346.841 726.348C347.212 726.152 347.685 726.054 348.26 726.054C349.019 726.054 349.703 726.248 350.312 726.636C350.926 727.019 351.411 727.588 351.769 728.342C352.131 729.092 352.313 730.013 352.313 731.104C352.313 732.182 352.136 733.098 351.782 733.852C351.428 734.607 350.947 735.182 350.337 735.578C349.728 735.974 349.038 736.173 348.266 736.173C347.704 736.173 347.237 736.079 346.867 735.891C346.496 735.704 346.198 735.478 345.972 735.214C345.75 734.945 345.578 734.692 345.454 734.453H345.32V736H343.044ZM345.313 731.091C345.313 731.726 345.403 732.282 345.582 732.759C345.765 733.237 346.027 733.609 346.368 733.878C346.713 734.142 347.131 734.274 347.621 734.274C348.132 734.274 348.56 734.138 348.906 733.865C349.251 733.588 349.511 733.211 349.685 732.734C349.864 732.252 349.954 731.705 349.954 731.091C349.954 730.482 349.867 729.94 349.692 729.467C349.517 728.994 349.257 728.624 348.912 728.355C348.567 728.087 348.136 727.952 347.621 727.952C347.127 727.952 346.707 728.082 346.362 728.342C346.016 728.602 345.754 728.967 345.575 729.435C345.401 729.904 345.313 730.456 345.313 731.091ZM354.28 726.182H356.594V736.562C356.594 737.27 356.459 737.854 356.191 738.314C355.922 738.774 355.535 739.117 355.028 739.343C354.521 739.569 353.905 739.682 353.18 739.682C353.095 739.682 353.016 739.68 352.944 739.675C352.871 739.675 352.793 739.673 352.707 739.669V737.783C352.771 737.788 352.829 737.79 352.88 737.79C352.931 737.794 352.984 737.796 353.04 737.796C353.483 737.796 353.8 737.688 353.992 737.47C354.184 737.257 354.28 736.944 354.28 736.531V726.182ZM355.43 724.788C355.06 724.788 354.742 724.667 354.478 724.424C354.218 724.177 354.088 723.881 354.088 723.536C354.088 723.186 354.218 722.89 354.478 722.647C354.742 722.4 355.06 722.276 355.43 722.276C355.797 722.276 356.11 722.4 356.37 722.647C356.634 722.89 356.766 723.186 356.766 723.536C356.766 723.881 356.634 724.177 356.37 724.424C356.11 724.667 355.797 724.788 355.43 724.788ZM363.32 736.192C362.335 736.192 361.485 735.987 360.769 735.578C360.058 735.165 359.51 734.581 359.127 733.827C358.743 733.068 358.551 732.175 358.551 731.148C358.551 730.138 358.743 729.252 359.127 728.489C359.514 727.722 360.055 727.126 360.75 726.7C361.445 726.269 362.261 726.054 363.198 726.054C363.803 726.054 364.374 726.152 364.911 726.348C365.453 726.54 365.93 726.838 366.343 727.243C366.761 727.648 367.089 728.163 367.328 728.79C367.566 729.412 367.685 730.153 367.685 731.014V731.724H359.638V730.164H365.467C365.463 729.721 365.367 729.327 365.18 728.982C364.992 728.632 364.73 728.357 364.394 728.157C364.061 727.957 363.673 727.857 363.23 727.857C362.757 727.857 362.342 727.972 361.984 728.202C361.626 728.428 361.347 728.726 361.146 729.097C360.95 729.463 360.85 729.866 360.846 730.305V731.666C360.846 732.237 360.95 732.727 361.159 733.136C361.368 733.541 361.66 733.852 362.035 734.07C362.41 734.283 362.849 734.389 363.352 734.389C363.688 734.389 363.993 734.342 364.266 734.249C364.538 734.151 364.775 734.008 364.975 733.82C365.176 733.633 365.327 733.401 365.429 733.124L367.59 733.366C367.453 733.937 367.193 734.436 366.81 734.862C366.43 735.284 365.945 735.612 365.352 735.847C364.76 736.077 364.082 736.192 363.32 736.192ZM373.926 736.192C372.946 736.192 372.104 735.977 371.401 735.546C370.702 735.116 370.163 734.521 369.784 733.763C369.409 733 369.221 732.122 369.221 731.129C369.221 730.132 369.413 729.252 369.796 728.489C370.18 727.722 370.721 727.126 371.42 726.7C372.123 726.269 372.954 726.054 373.913 726.054C374.71 726.054 375.415 726.201 376.029 726.495C376.647 726.785 377.139 727.196 377.505 727.729C377.872 728.257 378.081 728.875 378.132 729.582H375.92C375.831 729.109 375.617 728.715 375.281 728.4C374.948 728.08 374.503 727.92 373.945 727.92C373.472 727.92 373.056 728.048 372.698 728.304C372.34 728.555 372.061 728.918 371.861 729.391C371.665 729.864 371.567 730.43 371.567 731.091C371.567 731.76 371.665 732.335 371.861 732.817C372.057 733.294 372.332 733.663 372.686 733.923C373.044 734.178 373.463 734.306 373.945 734.306C374.286 734.306 374.59 734.242 374.859 734.114C375.132 733.982 375.36 733.793 375.543 733.545C375.726 733.298 375.852 732.998 375.92 732.644H378.132C378.076 733.339 377.872 733.955 377.518 734.491C377.164 735.024 376.683 735.442 376.073 735.744C375.464 736.043 374.748 736.192 373.926 736.192ZM384.934 726.182V727.972H379.29V726.182H384.934ZM380.684 723.83H382.998V733.047C382.998 733.358 383.044 733.597 383.138 733.763C383.236 733.925 383.364 734.036 383.522 734.095C383.679 734.155 383.854 734.185 384.046 734.185C384.191 734.185 384.323 734.174 384.442 734.153C384.566 734.131 384.66 734.112 384.723 734.095L385.113 735.904C384.99 735.947 384.813 735.994 384.583 736.045C384.357 736.096 384.08 736.126 383.752 736.134C383.172 736.151 382.65 736.064 382.186 735.872C381.721 735.676 381.353 735.374 381.08 734.964C380.812 734.555 380.679 734.044 380.684 733.43V723.83ZM395.617 736.192C394.637 736.192 393.795 735.977 393.092 735.546C392.393 735.116 391.854 734.521 391.475 733.763C391.1 733 390.913 732.122 390.913 731.129C390.913 730.132 391.104 729.252 391.488 728.489C391.871 727.722 392.413 727.126 393.111 726.7C393.815 726.269 394.646 726.054 395.604 726.054C396.401 726.054 397.106 726.201 397.72 726.495C398.338 726.785 398.83 727.196 399.197 727.729C399.563 728.257 399.772 728.875 399.823 729.582H397.611C397.522 729.109 397.309 728.715 396.972 728.4C396.64 728.08 396.195 727.92 395.636 727.92C395.163 727.92 394.748 728.048 394.39 728.304C394.032 728.555 393.753 728.918 393.552 729.391C393.356 729.864 393.258 730.43 393.258 731.091C393.258 731.76 393.356 732.335 393.552 732.817C393.748 733.294 394.023 733.663 394.377 733.923C394.735 734.178 395.155 734.306 395.636 734.306C395.977 734.306 396.282 734.242 396.55 734.114C396.823 733.982 397.051 733.793 397.234 733.545C397.418 733.298 397.543 732.998 397.611 732.644H399.823C399.768 733.339 399.563 733.955 399.209 734.491C398.856 735.024 398.374 735.442 397.765 735.744C397.155 736.043 396.44 736.192 395.617 736.192ZM401.723 736V726.182H403.967V727.818H404.069C404.248 727.251 404.555 726.815 404.989 726.508C405.428 726.197 405.929 726.041 406.492 726.041C406.619 726.041 406.762 726.048 406.92 726.06C407.082 726.069 407.216 726.084 407.323 726.105V728.234C407.225 728.2 407.069 728.17 406.856 728.144C406.647 728.114 406.445 728.099 406.249 728.099C405.827 728.099 405.448 728.191 405.111 728.374C404.778 728.553 404.516 728.803 404.325 729.122C404.133 729.442 404.037 729.81 404.037 730.228V736H401.723ZM412.802 736.192C411.818 736.192 410.968 735.987 410.252 735.578C409.54 735.165 408.992 734.581 408.609 733.827C408.225 733.068 408.034 732.175 408.034 731.148C408.034 730.138 408.225 729.252 408.609 728.489C408.997 727.722 409.538 727.126 410.233 726.7C410.927 726.269 411.743 726.054 412.681 726.054C413.286 726.054 413.857 726.152 414.394 726.348C414.935 726.54 415.412 726.838 415.826 727.243C416.243 727.648 416.571 728.163 416.81 728.79C417.049 729.412 417.168 730.153 417.168 731.014V731.724H409.12V730.164H414.95C414.946 729.721 414.85 729.327 414.662 728.982C414.475 728.632 414.213 728.357 413.876 728.157C413.544 727.957 413.156 727.857 412.713 727.857C412.24 727.857 411.824 727.972 411.466 728.202C411.108 728.428 410.829 728.726 410.629 729.097C410.433 729.463 410.333 729.866 410.328 730.305V731.666C410.328 732.237 410.433 732.727 410.642 733.136C410.85 733.541 411.142 733.852 411.517 734.07C411.892 734.283 412.331 734.389 412.834 734.389C413.171 734.389 413.475 734.342 413.748 734.249C414.021 734.151 414.257 734.008 414.458 733.82C414.658 733.633 414.809 733.401 414.911 733.124L417.072 733.366C416.936 733.937 416.676 734.436 416.292 734.862C415.913 735.284 415.427 735.612 414.835 735.847C414.242 736.077 413.565 736.192 412.802 736.192ZM421.951 736.198C421.329 736.198 420.768 736.087 420.27 735.866C419.775 735.64 419.383 735.308 419.093 734.869C418.808 734.43 418.665 733.888 418.665 733.245C418.665 732.691 418.767 732.233 418.972 731.871C419.177 731.509 419.456 731.219 419.809 731.001C420.163 730.784 420.562 730.62 421.005 730.509C421.452 730.394 421.915 730.311 422.392 730.26C422.967 730.2 423.434 730.147 423.792 730.1C424.15 730.049 424.41 729.972 424.571 729.87C424.738 729.763 424.821 729.599 424.821 729.378V729.339C424.821 728.858 424.678 728.485 424.392 728.221C424.107 727.957 423.696 727.825 423.159 727.825C422.592 727.825 422.142 727.948 421.81 728.195C421.482 728.442 421.26 728.734 421.145 729.071L418.985 728.764C419.155 728.168 419.437 727.669 419.829 727.268C420.221 726.864 420.7 726.561 421.267 726.361C421.834 726.156 422.46 726.054 423.146 726.054C423.619 726.054 424.09 726.109 424.559 726.22C425.027 726.331 425.456 726.514 425.843 726.77C426.231 727.021 426.542 727.364 426.777 727.799C427.015 728.234 427.135 728.777 427.135 729.429V736H424.91V734.651H424.834C424.693 734.924 424.495 735.18 424.239 735.418C423.988 735.653 423.67 735.842 423.287 735.987C422.907 736.128 422.462 736.198 421.951 736.198ZM422.552 734.498C423.016 734.498 423.419 734.406 423.76 734.223C424.101 734.036 424.363 733.788 424.546 733.482C424.733 733.175 424.827 732.84 424.827 732.478V731.321C424.755 731.381 424.631 731.436 424.456 731.487C424.286 731.538 424.094 731.583 423.881 731.621C423.668 731.66 423.457 731.694 423.248 731.724C423.04 731.754 422.858 731.779 422.705 731.8C422.36 731.847 422.051 731.924 421.778 732.031C421.505 732.137 421.29 732.286 421.133 732.478C420.975 732.665 420.896 732.908 420.896 733.207C420.896 733.633 421.052 733.955 421.363 734.172C421.674 734.389 422.07 734.498 422.552 734.498ZM434.364 726.182V727.972H428.72V726.182H434.364ZM430.113 723.83H432.427V733.047C432.427 733.358 432.474 733.597 432.568 733.763C432.666 733.925 432.794 734.036 432.951 734.095C433.109 734.155 433.284 734.185 433.476 734.185C433.62 734.185 433.753 734.174 433.872 734.153C433.995 734.131 434.089 734.112 434.153 734.095L434.543 735.904C434.419 735.947 434.243 735.994 434.013 736.045C433.787 736.096 433.51 736.126 433.182 736.134C432.602 736.151 432.08 736.064 431.616 735.872C431.151 735.676 430.782 735.374 430.51 734.964C430.241 734.555 430.109 734.044 430.113 733.43V723.83ZM440.54 736.192C439.556 736.192 438.706 735.987 437.99 735.578C437.278 735.165 436.731 734.581 436.347 733.827C435.964 733.068 435.772 732.175 435.772 731.148C435.772 730.138 435.964 729.252 436.347 728.489C436.735 727.722 437.276 727.126 437.971 726.7C438.665 726.269 439.481 726.054 440.419 726.054C441.024 726.054 441.595 726.152 442.132 726.348C442.673 726.54 443.15 726.838 443.564 727.243C443.981 727.648 444.31 728.163 444.548 728.79C444.787 729.412 444.906 730.153 444.906 731.014V731.724H436.859V730.164H442.688C442.684 729.721 442.588 729.327 442.4 728.982C442.213 728.632 441.951 728.357 441.614 728.157C441.282 727.957 440.894 727.857 440.451 727.857C439.978 727.857 439.562 727.972 439.204 728.202C438.847 728.428 438.567 728.726 438.367 729.097C438.171 729.463 438.071 729.866 438.067 730.305V731.666C438.067 732.237 438.171 732.727 438.38 733.136C438.589 733.541 438.881 733.852 439.256 734.07C439.631 734.283 440.07 734.389 440.572 734.389C440.909 734.389 441.214 734.342 441.486 734.249C441.759 734.151 441.996 734.008 442.196 733.82C442.396 733.633 442.547 733.401 442.65 733.124L444.81 733.366C444.674 733.937 444.414 734.436 444.03 734.862C443.651 735.284 443.165 735.612 442.573 735.847C441.981 736.077 441.303 736.192 440.54 736.192ZM450.507 736.173C449.736 736.173 449.046 735.974 448.436 735.578C447.827 735.182 447.345 734.607 446.992 733.852C446.638 733.098 446.461 732.182 446.461 731.104C446.461 730.013 446.64 729.092 446.998 728.342C447.36 727.588 447.848 727.019 448.462 726.636C449.075 726.248 449.759 726.054 450.514 726.054C451.089 726.054 451.562 726.152 451.933 726.348C452.303 726.54 452.597 726.772 452.815 727.045C453.032 727.313 453.2 727.567 453.32 727.805H453.416V722.909H455.736V736H453.46V734.453H453.32C453.2 734.692 453.028 734.945 452.802 735.214C452.576 735.478 452.278 735.704 451.907 735.891C451.536 736.079 451.07 736.173 450.507 736.173ZM451.153 734.274C451.643 734.274 452.06 734.142 452.406 733.878C452.751 733.609 453.013 733.237 453.192 732.759C453.371 732.282 453.46 731.726 453.46 731.091C453.46 730.456 453.371 729.904 453.192 729.435C453.017 728.967 452.757 728.602 452.412 728.342C452.071 728.082 451.651 727.952 451.153 727.952C450.637 727.952 450.207 728.087 449.862 728.355C449.516 728.624 449.256 728.994 449.082 729.467C448.907 729.94 448.82 730.482 448.82 731.091C448.82 731.705 448.907 732.252 449.082 732.734C449.261 733.211 449.523 733.588 449.868 733.865C450.217 734.138 450.646 734.274 451.153 734.274Z" fill="#4F3588"/>
<path d="M363.766 233.426L363.781 233.415L363.795 233.404C364.508 232.865 365.492 232.865 366.205 233.404L366.219 233.415L366.234 233.426L468.205 308.904C468.208 308.906 468.212 308.909 468.216 308.912C469.261 309.712 469.261 311.288 468.216 312.088C468.212 312.091 468.208 312.094 468.205 312.096L366.234 387.574L366.219 387.585L366.205 387.596C365.492 388.135 364.508 388.135 363.795 387.596L363.78 387.585L363.766 387.574L261.795 312.096C261.792 312.094 261.788 312.091 261.785 312.088C260.738 311.288 260.738 309.712 261.785 308.912L363.766 233.426Z" fill="#FFE5C2" stroke="#EBECFF" stroke-width="8"/>
<path d="M332.624 296.508C332.565 295.95 332.313 295.515 331.87 295.204C331.431 294.893 330.86 294.737 330.157 294.737C329.663 294.737 329.239 294.812 328.885 294.961C328.531 295.11 328.261 295.312 328.073 295.568C327.886 295.824 327.79 296.116 327.786 296.444C327.786 296.717 327.847 296.953 327.971 297.153C328.099 297.354 328.271 297.524 328.489 297.665C328.706 297.801 328.947 297.916 329.211 298.01C329.475 298.104 329.741 298.183 330.01 298.246L331.237 298.553C331.732 298.668 332.207 298.824 332.663 299.02C333.123 299.216 333.534 299.463 333.896 299.761C334.263 300.06 334.553 300.42 334.766 300.842C334.979 301.263 335.085 301.758 335.085 302.325C335.085 303.092 334.889 303.767 334.497 304.351C334.105 304.93 333.538 305.384 332.797 305.712C332.06 306.036 331.167 306.198 330.119 306.198C329.1 306.198 328.216 306.04 327.466 305.725C326.72 305.41 326.136 304.95 325.714 304.344C325.297 303.739 325.071 303.002 325.037 302.133H327.37C327.404 302.589 327.545 302.968 327.792 303.271C328.039 303.573 328.361 303.799 328.757 303.948C329.158 304.097 329.605 304.172 330.099 304.172C330.615 304.172 331.067 304.095 331.455 303.942C331.847 303.784 332.153 303.567 332.375 303.29C332.597 303.009 332.71 302.68 332.714 302.305C332.71 301.964 332.609 301.683 332.413 301.462C332.217 301.236 331.942 301.048 331.589 300.899C331.239 300.746 330.83 300.609 330.362 300.49L328.872 300.107C327.794 299.83 326.942 299.41 326.315 298.847C325.693 298.281 325.382 297.528 325.382 296.591C325.382 295.82 325.591 295.144 326.009 294.565C326.43 293.985 327.004 293.536 327.728 293.216C328.452 292.892 329.273 292.73 330.189 292.73C331.118 292.73 331.932 292.892 332.631 293.216C333.334 293.536 333.886 293.981 334.286 294.552C334.687 295.119 334.893 295.771 334.906 296.508H332.624ZM341.444 306.192C340.459 306.192 339.609 305.987 338.893 305.578C338.182 305.165 337.634 304.581 337.251 303.827C336.867 303.068 336.675 302.175 336.675 301.148C336.675 300.138 336.867 299.252 337.251 298.489C337.638 297.722 338.18 297.126 338.874 296.7C339.569 296.269 340.385 296.054 341.322 296.054C341.927 296.054 342.498 296.152 343.035 296.348C343.577 296.54 344.054 296.838 344.467 297.243C344.885 297.648 345.213 298.163 345.452 298.79C345.69 299.412 345.809 300.153 345.809 301.014V301.724H337.762V300.164H343.591C343.587 299.721 343.491 299.327 343.304 298.982C343.116 298.632 342.854 298.357 342.518 298.157C342.185 297.957 341.797 297.857 341.354 297.857C340.881 297.857 340.466 297.972 340.108 298.202C339.75 298.428 339.471 298.726 339.27 299.097C339.074 299.463 338.974 299.866 338.97 300.305V301.666C338.97 302.237 339.074 302.727 339.283 303.136C339.492 303.541 339.784 303.852 340.159 304.07C340.534 304.283 340.973 304.389 341.476 304.389C341.812 304.389 342.117 304.342 342.39 304.249C342.662 304.151 342.899 304.008 343.099 303.82C343.3 303.633 343.451 303.401 343.553 303.124L345.714 303.366C345.577 303.937 345.317 304.436 344.934 304.862C344.555 305.284 344.069 305.612 343.476 305.847C342.884 306.077 342.206 306.192 341.444 306.192ZM350.081 292.909V306H347.767V292.909H350.081ZM356.807 306.192C355.823 306.192 354.972 305.987 354.257 305.578C353.545 305.165 352.997 304.581 352.614 303.827C352.23 303.068 352.039 302.175 352.039 301.148C352.039 300.138 352.23 299.252 352.614 298.489C353.002 297.722 353.543 297.126 354.237 296.7C354.932 296.269 355.748 296.054 356.686 296.054C357.291 296.054 357.862 296.152 358.399 296.348C358.94 296.54 359.417 296.838 359.83 297.243C360.248 297.648 360.576 298.163 360.815 298.79C361.053 299.412 361.173 300.153 361.173 301.014V301.724H353.125V300.164H358.955C358.95 299.721 358.855 299.327 358.667 298.982C358.48 298.632 358.218 298.357 357.881 298.157C357.548 297.957 357.161 297.857 356.718 297.857C356.244 297.857 355.829 297.972 355.471 298.202C355.113 298.428 354.834 298.726 354.634 299.097C354.438 299.463 354.338 299.866 354.333 300.305V301.666C354.333 302.237 354.438 302.727 354.646 303.136C354.855 303.541 355.147 303.852 355.522 304.07C355.897 304.283 356.336 304.389 356.839 304.389C357.176 304.389 357.48 304.342 357.753 304.249C358.026 304.151 358.262 304.008 358.463 303.82C358.663 303.633 358.814 303.401 358.916 303.124L361.077 303.366C360.941 303.937 360.681 304.436 360.297 304.862C359.918 305.284 359.432 305.612 358.84 305.847C358.247 306.077 357.57 306.192 356.807 306.192ZM367.413 306.192C366.433 306.192 365.591 305.977 364.888 305.546C364.189 305.116 363.65 304.521 363.271 303.763C362.896 303 362.708 302.122 362.708 301.129C362.708 300.132 362.9 299.252 363.284 298.489C363.667 297.722 364.208 297.126 364.907 296.7C365.61 296.269 366.441 296.054 367.4 296.054C368.197 296.054 368.902 296.201 369.516 296.495C370.134 296.785 370.626 297.196 370.993 297.729C371.359 298.257 371.568 298.875 371.619 299.582H369.407C369.318 299.109 369.105 298.715 368.768 298.4C368.436 298.08 367.99 297.92 367.432 297.92C366.959 297.92 366.544 298.048 366.186 298.304C365.828 298.555 365.549 298.918 365.348 299.391C365.152 299.864 365.054 300.43 365.054 301.091C365.054 301.76 365.152 302.335 365.348 302.817C365.544 303.294 365.819 303.663 366.173 303.923C366.531 304.178 366.951 304.306 367.432 304.306C367.773 304.306 368.078 304.242 368.346 304.114C368.619 303.982 368.847 303.793 369.03 303.545C369.213 303.298 369.339 302.998 369.407 302.644H371.619C371.564 303.339 371.359 303.955 371.005 304.491C370.652 305.024 370.17 305.442 369.561 305.744C368.951 306.043 368.235 306.192 367.413 306.192ZM378.422 296.182V297.972H372.778V296.182H378.422ZM374.171 293.83H376.485V303.047C376.485 303.358 376.532 303.597 376.626 303.763C376.724 303.925 376.851 304.036 377.009 304.095C377.167 304.155 377.341 304.185 377.533 304.185C377.678 304.185 377.81 304.174 377.93 304.153C378.053 304.131 378.147 304.112 378.211 304.095L378.601 305.904C378.477 305.947 378.3 305.994 378.07 306.045C377.844 306.096 377.567 306.126 377.239 306.134C376.66 306.151 376.138 306.064 375.673 305.872C375.209 305.676 374.84 305.374 374.567 304.964C374.299 304.555 374.167 304.044 374.171 303.43V293.83ZM380.357 306V296.182H382.671V306H380.357ZM381.52 294.788C381.154 294.788 380.838 294.667 380.574 294.424C380.31 294.177 380.178 293.881 380.178 293.536C380.178 293.186 380.31 292.89 380.574 292.647C380.838 292.4 381.154 292.276 381.52 292.276C381.891 292.276 382.206 292.4 382.466 292.647C382.73 292.89 382.863 293.186 382.863 293.536C382.863 293.881 382.73 294.177 382.466 294.424C382.206 294.667 381.891 294.788 381.52 294.788ZM389.333 306.192C388.374 306.192 387.543 305.981 386.84 305.559C386.137 305.137 385.591 304.547 385.204 303.788C384.82 303.03 384.628 302.143 384.628 301.129C384.628 300.115 384.82 299.227 385.204 298.464C385.591 297.701 386.137 297.109 386.84 296.687C387.543 296.265 388.374 296.054 389.333 296.054C390.292 296.054 391.123 296.265 391.826 296.687C392.529 297.109 393.072 297.701 393.456 298.464C393.844 299.227 394.037 300.115 394.037 301.129C394.037 302.143 393.844 303.03 393.456 303.788C393.072 304.547 392.529 305.137 391.826 305.559C391.123 305.981 390.292 306.192 389.333 306.192ZM389.346 304.338C389.866 304.338 390.3 304.195 390.65 303.91C390.999 303.62 391.259 303.232 391.43 302.746C391.604 302.261 391.692 301.719 391.692 301.123C391.692 300.522 391.604 299.979 391.43 299.493C391.259 299.003 390.999 298.613 390.65 298.323C390.3 298.033 389.866 297.888 389.346 297.888C388.813 297.888 388.37 298.033 388.016 298.323C387.667 298.613 387.405 299.003 387.23 299.493C387.059 299.979 386.974 300.522 386.974 301.123C386.974 301.719 387.059 302.261 387.23 302.746C387.405 303.232 387.667 303.62 388.016 303.91C388.37 304.195 388.813 304.338 389.346 304.338ZM398.315 300.247V306H396.001V296.182H398.213V297.85H398.328C398.554 297.3 398.914 296.864 399.408 296.54C399.907 296.216 400.523 296.054 401.256 296.054C401.933 296.054 402.523 296.199 403.026 296.489C403.533 296.778 403.925 297.198 404.202 297.748C404.484 298.298 404.622 298.964 404.618 299.749V306H402.304V300.107C402.304 299.45 402.134 298.937 401.793 298.566C401.456 298.195 400.989 298.01 400.393 298.01C399.988 298.01 399.628 298.099 399.312 298.278C399.001 298.453 398.756 298.707 398.577 299.039C398.403 299.371 398.315 299.774 398.315 300.247ZM351.527 320.182V321.972H345.883V320.182H351.527ZM347.276 317.83H349.59V327.047C349.59 327.358 349.637 327.597 349.731 327.763C349.829 327.925 349.957 328.036 350.115 328.095C350.272 328.155 350.447 328.185 350.639 328.185C350.784 328.185 350.916 328.174 351.035 328.153C351.159 328.131 351.252 328.112 351.316 328.095L351.706 329.904C351.583 329.947 351.406 329.994 351.176 330.045C350.95 330.096 350.673 330.126 350.345 330.134C349.765 330.151 349.243 330.064 348.779 329.872C348.314 329.676 347.945 329.374 347.673 328.964C347.404 328.555 347.272 328.044 347.276 327.43V317.83ZM354.901 333.682C354.585 333.682 354.293 333.656 354.025 333.605C353.761 333.558 353.55 333.503 353.392 333.439L353.929 331.636C354.266 331.734 354.566 331.781 354.83 331.777C355.094 331.773 355.327 331.69 355.527 331.528C355.732 331.37 355.904 331.106 356.045 330.735L356.243 330.205L352.683 320.182H355.137L357.4 327.597H357.502L359.771 320.182H362.232L358.301 331.189C358.118 331.709 357.875 332.154 357.572 332.525C357.27 332.9 356.899 333.185 356.46 333.381C356.026 333.582 355.506 333.682 354.901 333.682ZM363.833 333.682V320.182H366.109V321.805H366.243C366.363 321.567 366.531 321.313 366.748 321.045C366.966 320.772 367.26 320.54 367.63 320.348C368.001 320.152 368.474 320.054 369.049 320.054C369.808 320.054 370.492 320.248 371.101 320.636C371.715 321.019 372.201 321.588 372.559 322.342C372.921 323.092 373.102 324.013 373.102 325.104C373.102 326.182 372.925 327.098 372.571 327.852C372.218 328.607 371.736 329.182 371.127 329.578C370.517 329.974 369.827 330.173 369.056 330.173C368.493 330.173 368.027 330.079 367.656 329.891C367.285 329.704 366.987 329.478 366.761 329.214C366.539 328.945 366.367 328.692 366.243 328.453H366.147V333.682H363.833ZM366.103 325.091C366.103 325.726 366.192 326.282 366.371 326.759C366.554 327.237 366.816 327.609 367.157 327.878C367.502 328.142 367.92 328.274 368.41 328.274C368.922 328.274 369.35 328.138 369.695 327.865C370.04 327.588 370.3 327.211 370.475 326.734C370.654 326.252 370.743 325.705 370.743 325.091C370.743 324.482 370.656 323.94 370.481 323.467C370.306 322.994 370.047 322.624 369.701 322.355C369.356 322.087 368.926 321.952 368.41 321.952C367.916 321.952 367.496 322.082 367.151 322.342C366.806 322.602 366.544 322.967 366.365 323.435C366.19 323.904 366.103 324.456 366.103 325.091ZM379.43 330.192C378.446 330.192 377.596 329.987 376.88 329.578C376.168 329.165 375.62 328.581 375.237 327.827C374.853 327.068 374.662 326.175 374.662 325.148C374.662 324.138 374.853 323.252 375.237 322.489C375.625 321.722 376.166 321.126 376.86 320.7C377.555 320.269 378.371 320.054 379.309 320.054C379.914 320.054 380.485 320.152 381.022 320.348C381.563 320.54 382.04 320.838 382.453 321.243C382.871 321.648 383.199 322.163 383.438 322.79C383.676 323.412 383.796 324.153 383.796 325.014V325.724H375.748V324.164H381.578C381.574 323.721 381.478 323.327 381.29 322.982C381.103 322.632 380.841 322.357 380.504 322.157C380.172 321.957 379.784 321.857 379.341 321.857C378.868 321.857 378.452 321.972 378.094 322.202C377.736 322.428 377.457 322.726 377.257 323.097C377.061 323.463 376.961 323.866 376.956 324.305V325.666C376.956 326.237 377.061 326.727 377.27 327.136C377.478 327.541 377.77 327.852 378.145 328.07C378.52 328.283 378.959 328.389 379.462 328.389C379.799 328.389 380.103 328.342 380.376 328.249C380.649 328.151 380.885 328.008 381.086 327.82C381.286 327.633 381.437 327.401 381.539 327.124L383.7 327.366C383.564 327.937 383.304 328.436 382.92 328.862C382.541 329.284 382.055 329.612 381.463 329.847C380.87 330.077 380.193 330.192 379.43 330.192Z" fill="#4F3588"/>
<path d="M253 314.5C255.209 314.5 257 312.709 257 310.5C257 308.291 255.209 306.5 253 306.5V314.5ZM101.172 440.828C102.734 442.391 105.266 442.391 106.828 440.828L132.284 415.373C133.846 413.81 133.846 411.278 132.284 409.716C130.722 408.154 128.19 408.154 126.627 409.716L104 432.343L81.3726 409.716C79.8105 408.154 77.2778 408.154 75.7157 409.716C74.1536 411.278 74.1536 413.81 75.7157 415.373L101.172 440.828ZM253 306.5H128V314.5H253V306.5ZM100 334.5V438H108V334.5H100ZM128 306.5C112.536 306.5 100 319.036 100 334.5H108C108 323.454 116.954 314.5 128 314.5V306.5Z" fill="#FFD233"/>
<path d="M477 306.5C474.791 306.5 473 308.291 473 310.5C473 312.709 474.791 314.5 477 314.5V306.5ZM647.172 440.828C648.734 442.391 651.266 442.391 652.828 440.828L678.284 415.373C679.846 413.81 679.846 411.278 678.284 409.716C676.722 408.154 674.19 408.154 672.627 409.716L650 432.343L627.373 409.716C625.81 408.154 623.278 408.154 621.716 409.716C620.154 411.278 620.154 413.81 621.716 415.373L647.172 440.828ZM477 314.5H626V306.5H477V314.5ZM646 334.5V438H654V334.5H646ZM626 314.5C637.046 314.5 646 323.454 646 334.5H654C654 319.036 641.464 306.5 626 306.5V314.5Z" fill="#FFD233"/>
<path d="M369 396C369 393.791 367.209 392 365 392C362.791 392 361 393.791 361 396H369ZM362.172 440.828C363.734 442.391 366.266 442.391 367.828 440.828L393.284 415.373C394.846 413.81 394.846 411.278 393.284 409.716C391.722 408.154 389.19 408.154 387.627 409.716L365 432.343L342.373 409.716C340.81 408.154 338.278 408.154 336.716 409.716C335.154 411.278 335.154 413.81 336.716 415.373L362.172 440.828ZM361 396V438H369V396H361Z" fill="#FFD233"/>
<path d="M654 556C654 553.791 652.209 552 650 552C647.791 552 646 553.791 646 556H654ZM362.172 672.828C363.734 674.391 366.266 674.391 367.828 672.828L393.284 647.373C394.846 645.81 394.846 643.278 393.284 641.716C391.722 640.154 389.19 640.154 387.627 641.716L365 664.343L342.373 641.716C340.81 640.154 338.278 640.154 336.716 641.716C335.154 643.278 335.154 645.81 336.716 647.373L362.172 672.828ZM646 556V589H654V556H646ZM626 609H389V617H626V609ZM361 637V670H369V637H361ZM389 609C373.536 609 361 621.536 361 637H369C369 625.954 377.954 617 389 617V609ZM646 589C646 600.046 637.046 609 626 609V617C641.464 617 654 604.464 654 589H646Z" fill="#85B6FF"/>
<path d="M369 556C369 553.791 367.209 552 365 552C362.791 552 361 553.791 361 556H369ZM362.172 672.828C363.734 674.391 366.266 674.391 367.828 672.828L393.284 647.373C394.846 645.81 394.846 643.278 393.284 641.716C391.722 640.154 389.19 640.154 387.627 641.716L365 664.343L342.373 641.716C340.81 640.154 338.278 640.154 336.716 641.716C335.154 643.278 335.154 645.81 336.716 647.373L362.172 672.828ZM361 556V670H369V556H361Z" fill="#85B6FF"/>
<path d="M108 556C108 553.791 106.209 552 104 552C101.791 552 100 553.791 100 556H108ZM362.172 672.828C363.734 674.391 366.266 674.391 367.828 672.828L393.284 647.373C394.846 645.81 394.846 643.278 393.284 641.716C391.722 640.154 389.19 640.154 387.627 641.716L365 664.343L342.373 641.716C340.81 640.154 338.278 640.154 336.716 641.716C335.154 643.278 335.154 645.81 336.716 647.373L362.172 672.828ZM100 556V589H108V556H100ZM128 617H341V609H128V617ZM361 637V670H369V637H361ZM341 617C352.046 617 361 625.954 361 637H369C369 621.536 356.464 609 341 609V617ZM100 589C100 604.464 112.536 617 128 617V609C116.954 609 108 600.046 108 589H100Z" fill="#85B6FF"/>
<path d="M362.165 227.847C363.737 229.399 366.27 229.382 367.822 227.81L393.11 202.187C394.661 200.615 394.645 198.082 393.072 196.53C391.5 194.979 388.967 194.995 387.416 196.568L364.937 219.343L342.162 196.865C340.589 195.313 338.057 195.33 336.505 196.902C334.953 198.475 334.97 201.007 336.542 202.559L362.165 227.847ZM360.527 157.026L360.975 225.026L368.975 224.974L368.527 156.974L360.527 157.026Z" fill="#FF9790"/>
</svg>
