<svg width="645" height="156" viewBox="0 0 645 156" fill="none" xmlns="http://www.w3.org/2000/svg">
<path d="M202.272 11.0249H212.91V67.3114L267.042 11.0249H280.777L240.38 52.2299L282.528 105.285H269.197L232.974 59.636L212.91 79.9692V105.285H202.272V11.0249V11.0249Z" fill="black"/>
<path d="M336.658 10.3518H346.622L389.578 105.285H378.132L367.09 80.3733H315.786L304.609 105.285H293.702L336.658 10.3518ZM362.916 70.8127L341.505 22.7402L319.96 70.8127H362.916Z" fill="black"/>
<path d="M411.795 11.0249H422.433V105.285H411.795V11.0249Z" fill="black"/>
<path d="M452.735 11.0249H463.373V67.3114L517.505 11.0249H531.24L490.843 52.2299L532.99 105.285H519.659L483.437 59.636L463.373 79.9692V105.285H452.735V11.0249Z" fill="black"/>
<path d="M596.015 106.901C588.828 106.901 582.297 105.605 576.422 102.996C570.548 100.387 565.498 96.8688 561.274 92.4251C557.049 87.9814 553.8 82.814 551.511 76.9396C549.222 71.0652 548.077 64.8878 548.077 58.4243V58.1549C548.077 51.6914 549.239 45.4972 551.578 39.5723C553.918 33.6474 557.183 28.4631 561.408 24.0194C565.633 19.5758 570.7 16.0242 576.624 13.3816C582.549 10.7389 589.097 9.40918 596.284 9.40918C603.472 9.40918 610.002 10.7053 615.877 13.3142C621.751 15.9232 626.801 19.4411 631.026 23.8848C635.251 28.3285 638.499 33.4959 640.788 39.3703C643.077 45.2447 644.222 51.4221 644.222 57.8856C644.306 57.9698 644.306 58.0708 644.222 58.1549C644.222 64.6185 643.061 70.8127 640.721 76.7376C638.381 82.6625 635.116 87.8468 630.891 92.2904C626.666 96.7341 621.6 100.286 615.675 102.928C609.75 105.571 603.202 106.901 596.015 106.901ZM596.284 97.0708C601.671 97.0708 606.636 96.0608 611.164 94.041C615.692 92.0211 619.58 89.2607 622.812 85.7596C626.043 82.2585 628.585 78.1683 630.42 73.5058C632.254 68.8433 633.18 63.8105 633.18 58.4243V58.1549C633.18 52.7687 632.254 47.719 630.42 43.0061C628.585 38.2931 625.993 34.186 622.677 30.685C619.361 27.1839 615.422 24.4066 610.894 22.3362C606.367 20.2659 601.401 19.2391 596.015 19.2391C590.629 19.2391 585.663 20.2491 581.135 22.2689C576.608 24.2888 572.719 27.0492 569.488 30.5503C566.256 34.0514 563.714 38.1416 561.879 42.8041C560.045 47.4666 559.119 52.4994 559.119 57.8856V58.1549C559.119 63.5412 560.045 68.5908 561.879 73.3038C563.714 78.0168 566.306 82.1239 569.622 85.6249C572.938 89.126 576.877 91.9033 581.405 93.9736C585.933 96.044 590.898 97.0708 596.284 97.0708Z" fill="black"/>
<path fill-rule="evenodd" clip-rule="evenodd" d="M16.7311 156H139.286C143.898 156 148.072 154.131 151.102 151.102L4.89815 4.89795C1.86837 7.92773 0 12.1021 0 16.7141V139.269C0.0168321 148.526 7.49029 156 16.7311 156Z" fill="#0555C0"/>
<path fill-rule="evenodd" clip-rule="evenodd" d="M139.288 0.0168457H16.7338C7.5098 0.0168457 0.0195312 7.50713 0.0195312 16.7311V139.286C0.0195312 143.898 1.8879 148.072 4.91768 151.102L151.121 4.89814C148.092 1.8852 143.9 0.0168457 139.288 0.0168457Z" fill="#F7941E"/>
<path fill-rule="evenodd" clip-rule="evenodd" d="M16.7282 156H90.9746L3.39721 6.68237C1.2932 9.4765 0.0307901 12.9439 0.0307901 16.7311V139.286C0.013958 148.526 7.48738 156 16.7282 156Z" fill="#2491EB"/>
<path fill-rule="evenodd" clip-rule="evenodd" d="M16.7338 0.0168357C7.5098 0.0168357 0.0195312 7.50712 0.0195312 16.7311V139.286C0.0195312 143.056 1.28194 146.523 3.38595 149.318L90.9634 0H16.7338V0.0168357Z" fill="#F24406"/>
<path d="M214.748 147.415C212.577 147.415 210.59 147.062 208.789 146.355C206.988 145.648 205.271 144.554 203.639 143.072L205.541 140.817C206.971 142.113 208.402 143.072 209.85 143.712C211.297 144.352 212.964 144.672 214.866 144.672C216.7 144.672 218.182 144.234 219.276 143.375C220.37 142.517 220.925 141.406 220.925 140.06V139.975C220.925 139.353 220.824 138.797 220.605 138.292C220.403 137.787 220.033 137.333 219.511 136.912C218.99 136.491 218.266 136.121 217.357 135.784C216.448 135.448 215.253 135.128 213.839 134.808C212.274 134.471 210.927 134.084 209.766 133.647C208.604 133.209 207.662 132.67 206.904 132.047C206.147 131.425 205.591 130.701 205.221 129.876C204.851 129.051 204.682 128.075 204.682 126.964V126.88C204.682 125.82 204.901 124.826 205.339 123.934C205.776 123.025 206.399 122.251 207.207 121.578C208.015 120.905 208.958 120.4 210.052 120.029C211.146 119.659 212.324 119.474 213.62 119.474C215.623 119.474 217.357 119.76 218.855 120.315C220.336 120.871 221.784 121.713 223.181 122.823L221.397 125.197C220.134 124.153 218.855 123.413 217.576 122.941C216.296 122.47 214.95 122.234 213.553 122.234C211.769 122.234 210.355 122.655 209.311 123.497C208.267 124.338 207.763 125.382 207.763 126.628V126.712C207.763 127.351 207.864 127.94 208.066 128.445C208.268 128.95 208.655 129.422 209.193 129.842C209.732 130.263 210.489 130.65 211.449 131.004C212.408 131.357 213.637 131.677 215.135 131.997C218.165 132.67 220.403 133.596 221.834 134.791C223.265 135.986 223.989 137.619 223.989 139.689V139.773C223.989 140.935 223.753 141.995 223.299 142.938C222.844 143.88 222.205 144.688 221.397 145.362C220.589 146.035 219.612 146.557 218.468 146.91C217.34 147.23 216.094 147.415 214.748 147.415Z" fill="black"/>
<path d="M280.744 136.256L269.433 119.811H273.17L282.326 133.411L291.551 119.811H295.119L283.808 136.205V147.011H280.744V136.256Z" fill="black"/>
<path d="M351.389 147.415C349.218 147.415 347.232 147.062 345.431 146.355C343.63 145.648 341.913 144.554 340.28 143.072L342.182 140.817C343.613 142.113 345.044 143.072 346.491 143.712C347.939 144.352 349.605 144.672 351.507 144.672C353.342 144.672 354.823 144.234 355.917 143.375C357.011 142.517 357.567 141.406 357.567 140.06V139.975C357.567 139.353 357.466 138.797 357.247 138.292C357.045 137.787 356.675 137.333 356.153 136.912C355.631 136.491 354.907 136.121 353.998 135.784C353.089 135.448 351.894 135.128 350.481 134.808C348.915 134.471 347.569 134.084 346.407 133.647C345.246 133.209 344.303 132.67 343.546 132.047C342.788 131.425 342.233 130.701 341.862 129.876C341.492 129.051 341.324 128.075 341.324 126.964V126.88C341.324 125.82 341.543 124.826 341.98 123.934C342.418 123.025 343.041 122.251 343.849 121.578C344.657 120.905 345.599 120.4 346.693 120.029C347.787 119.659 348.966 119.474 350.262 119.474C352.265 119.474 353.998 119.76 355.497 120.315C356.978 120.871 358.425 121.713 359.822 122.823L358.038 125.197C356.776 124.153 355.496 123.413 354.217 122.941C352.938 122.47 351.591 122.234 350.194 122.234C348.41 122.234 346.996 122.655 345.953 123.497C344.909 124.338 344.404 125.382 344.404 126.628V126.712C344.404 127.351 344.505 127.94 344.707 128.445C344.909 128.95 345.296 129.422 345.835 129.842C346.374 130.263 347.131 130.65 348.09 131.004C349.05 131.357 350.279 131.677 351.777 131.997C354.806 132.67 357.045 133.596 358.476 134.791C359.907 135.986 360.63 137.619 360.63 139.689V139.773C360.63 140.935 360.395 141.995 359.94 142.938C359.486 143.88 358.846 144.688 358.038 145.362C357.23 146.035 356.254 146.557 355.109 146.91C353.982 147.23 352.736 147.415 351.389 147.415Z" fill="black"/>
<path d="M416.081 122.655H406.941V119.811H428.284V122.655H419.144V147.028H416.081V122.655Z" fill="black"/>
<path d="M476.031 119.811H495.69V122.571H479.094V131.93H493.94V134.69H479.094V144.251H495.876V147.011H476.014V119.811H476.031Z" fill="black"/>
<path d="M544.042 119.811H547.156L557.07 134.657L566.985 119.811H570.099V147.011H567.035V124.978L557.121 139.555H556.97L547.055 125.012V147.011H544.059V119.811H544.042Z" fill="black"/>
<path d="M629.134 147.415C626.963 147.415 624.977 147.062 623.176 146.355C621.374 145.648 619.658 144.554 618.025 143.072L619.927 140.817C621.358 142.113 622.788 143.072 624.236 143.712C625.683 144.352 627.35 144.672 629.252 144.672C631.087 144.672 632.568 144.234 633.662 143.375C634.756 142.517 635.311 141.406 635.311 140.06V139.975C635.311 139.353 635.21 138.797 634.992 138.292C634.79 137.787 634.419 137.333 633.898 136.912C633.376 136.491 632.652 136.121 631.743 135.784C630.834 135.448 629.639 135.128 628.225 134.808C626.66 134.471 625.313 134.084 624.152 133.647C622.99 133.209 622.048 132.67 621.29 132.047C620.533 131.425 619.977 130.701 619.607 129.876C619.237 129.051 619.068 128.075 619.068 126.964V126.88C619.068 125.82 619.287 124.826 619.725 123.934C620.162 123.025 620.785 122.251 621.593 121.578C622.401 120.905 623.344 120.4 624.438 120.029C625.532 119.659 626.71 119.474 628.006 119.474C630.009 119.474 631.743 119.76 633.241 120.315C634.722 120.871 636.17 121.713 637.567 122.823L635.783 125.197C634.52 124.153 633.241 123.413 631.962 122.941C630.683 122.47 629.336 122.234 627.939 122.234C626.155 122.234 624.741 122.655 623.697 123.497C622.654 124.338 622.149 125.382 622.149 126.628V126.712C622.149 127.351 622.25 127.94 622.452 128.445C622.654 128.95 623.041 129.422 623.579 129.842C624.118 130.263 624.875 130.65 625.835 131.004C626.794 131.357 628.023 131.677 629.521 131.997C632.551 132.67 634.79 133.596 636.22 134.791C637.651 135.986 638.375 137.619 638.375 139.689V139.773C638.375 140.935 638.139 141.995 637.685 142.938C637.23 143.88 636.591 144.688 635.783 145.362C634.975 146.035 633.999 146.557 632.854 146.91C631.726 147.23 630.481 147.415 629.134 147.415Z" fill="black"/>
</svg>
