<?xml version="1.0" encoding="UTF-8" standalone="no"?>
<svg
   width="721"
   height="204"
   viewBox="0 0 721 204"
   fill="none"
   version="1.1"
   id="svg132"
   sodipodi:docname="Apklis-Banner-Logo.svg"
   xml:space="preserve"
   inkscape:version="1.4.2 (f4327f4, 2025-05-13)"
   xmlns:inkscape="http://www.inkscape.org/namespaces/inkscape"
   xmlns:sodipodi="http://sodipodi.sourceforge.net/DTD/sodipodi-0.dtd"
   xmlns="http://www.w3.org/2000/svg"
   xmlns:svg="http://www.w3.org/2000/svg"><sodipodi:namedview
     id="namedview132"
     pagecolor="#ffffff"
     bordercolor="#000000"
     borderopacity="0.25"
     inkscape:showpageshadow="2"
     inkscape:pageopacity="0.0"
     inkscape:pagecheckerboard="0"
     inkscape:deskcolor="#d1d1d1"
     inkscape:zoom="0.61581137"
     inkscape:cx="29.22973"
     inkscape:cy="73.886261"
     inkscape:window-width="1920"
     inkscape:window-height="1009"
     inkscape:window-x="-8"
     inkscape:window-y="-8"
     inkscape:window-maximized="1"
     inkscape:current-layer="svg132" /><defs
     id="defs132"><radialGradient
       id="paint0_radial_1807_48493"
       cx="0"
       cy="0"
       r="1"
       gradientUnits="userSpaceOnUse"
       gradientTransform="matrix(-94.132844,-58.651818,36.545989,-58.654242,69.764987,-229.37718)"><stop
         stop-color="#EE7207"
         id="stop45" /><stop
         offset="0.84"
         stop-color="#F0E106"
         id="stop46" /></radialGradient><radialGradient
       id="paint1_radial_1807_48493"
       cx="0"
       cy="0"
       r="1"
       gradientUnits="userSpaceOnUse"
       gradientTransform="matrix(-88.216897,15.648701,-17.517395,-98.751338,67.068487,-239.97408)"><stop
         stop-color="#F15222"
         id="stop47" /><stop
         offset="1"
         stop-color="#FA7001"
         id="stop48" /></radialGradient><radialGradient
       id="paint2_radial_1807_48493"
       cx="0"
       cy="0"
       r="1"
       gradientUnits="userSpaceOnUse"
       gradientTransform="matrix(44.5866,0,0,44.5566,34.960287,-209.28978)"><stop
         offset="0.44"
         stop-color="#F15222"
         id="stop49" /><stop
         offset="0.8"
         stop-color="#F6640E"
         id="stop50" /><stop
         offset="1"
         stop-color="#FA7001"
         id="stop51" /></radialGradient><radialGradient
       id="paint3_radial_1807_48493"
       cx="0"
       cy="0"
       r="1"
       gradientUnits="userSpaceOnUse"
       gradientTransform="matrix(66.7935,0,0,66.7486,69.151587,-200.24278)"><stop
         offset="0.44"
         stop-color="#F15222"
         id="stop52" /><stop
         offset="0.8"
         stop-color="#F6640E"
         id="stop53" /><stop
         offset="1"
         stop-color="#FA7001"
         id="stop54" /></radialGradient><radialGradient
       id="paint4_radial_1807_48493"
       cx="0"
       cy="0"
       r="1"
       gradientUnits="userSpaceOnUse"
       gradientTransform="matrix(69.2397,0,0,69.1932,81.443487,-186.92378)"><stop
         offset="0.44"
         stop-color="#F15222"
         id="stop55" /><stop
         offset="0.8"
         stop-color="#F6640E"
         id="stop56" /><stop
         offset="1"
         stop-color="#FA7001"
         id="stop57" /></radialGradient><radialGradient
       id="paint5_radial_1807_48493"
       cx="0"
       cy="0"
       r="1"
       gradientUnits="userSpaceOnUse"
       gradientTransform="matrix(62.769,0,0,62.7268,86.607387,-180.03478)"><stop
         offset="0.44"
         stop-color="#F15222"
         id="stop58" /><stop
         offset="0.8"
         stop-color="#F6640E"
         id="stop59" /><stop
         offset="1"
         stop-color="#FA7001"
         id="stop60" /></radialGradient><radialGradient
       id="paint6_radial_1807_48493"
       cx="0"
       cy="0"
       r="1"
       gradientUnits="userSpaceOnUse"
       gradientTransform="matrix(43.6761,0,0,43.6468,80.155787,-175.81278)"><stop
         offset="0.44"
         stop-color="#F15222"
         id="stop61" /><stop
         offset="0.8"
         stop-color="#F6640E"
         id="stop62" /><stop
         offset="1"
         stop-color="#FA7001"
         id="stop63" /></radialGradient><radialGradient
       id="paint7_radial_1807_48493"
       cx="0"
       cy="0"
       r="1"
       gradientUnits="userSpaceOnUse"
       gradientTransform="matrix(28.3256,0,0,28.3066,76.325187,-166.27778)"><stop
         offset="0.44"
         stop-color="#F15222"
         id="stop64" /><stop
         offset="0.8"
         stop-color="#F6640E"
         id="stop65" /><stop
         offset="1"
         stop-color="#FA7001"
         id="stop66" /></radialGradient><radialGradient
       id="paint8_radial_1807_48493"
       cx="0"
       cy="0"
       r="1"
       gradientUnits="userSpaceOnUse"
       gradientTransform="matrix(128.246,0,0,128.16,75.778187,-209.36178)"><stop
         stop-color="#EE7207"
         id="stop67" /><stop
         offset="0.84"
         stop-color="#F0E106"
         id="stop68" /></radialGradient><radialGradient
       id="paint9_radial_1807_48493"
       cx="0"
       cy="0"
       r="1"
       gradientUnits="userSpaceOnUse"
       gradientTransform="matrix(111.779,0,0,111.704,67.310487,-209.21878)"><stop
         stop-color="#EE7207"
         id="stop69" /><stop
         offset="0.78"
         stop-color="#F0E106"
         id="stop70" /></radialGradient><radialGradient
       id="paint10_radial_1807_48493"
       cx="0"
       cy="0"
       r="1"
       gradientUnits="userSpaceOnUse"
       gradientTransform="matrix(63.9024,0,0,63.8595,49.520287,-206.49278)"><stop
         stop-color="#EE7207"
         id="stop71" /><stop
         offset="1"
         stop-color="#F0E106"
         id="stop72" /></radialGradient><radialGradient
       id="paint11_radial_1807_48493"
       cx="0"
       cy="0"
       r="1"
       gradientUnits="userSpaceOnUse"
       gradientTransform="matrix(45.3335,0,0,45.303,36.610287,-203.49278)"><stop
         stop-color="#EE7207"
         id="stop73" /><stop
         offset="1"
         stop-color="#F0E106"
         id="stop74" /></radialGradient><radialGradient
       id="paint12_radial_1807_48493"
       cx="0"
       cy="0"
       r="1"
       gradientUnits="userSpaceOnUse"
       gradientTransform="matrix(94.131586,-58.651946,36.546346,58.653902,90.924387,-229.37728)"><stop
         stop-color="#EE7207"
         id="stop75" /><stop
         offset="0.84"
         stop-color="#F0E106"
         id="stop76" /></radialGradient><radialGradient
       id="paint13_radial_1807_48493"
       cx="0"
       cy="0"
       r="1"
       gradientUnits="userSpaceOnUse"
       gradientTransform="matrix(88.216952,15.648393,-17.51705,98.751399,93.618387,-239.97458)"><stop
         stop-color="#F15222"
         id="stop77" /><stop
         offset="1"
         stop-color="#FA7001"
         id="stop78" /></radialGradient><radialGradient
       id="paint14_radial_1807_48493"
       cx="0"
       cy="0"
       r="1"
       gradientUnits="userSpaceOnUse"
       gradientTransform="matrix(-44.5866,0,0,-44.5566,125.73239,-209.29078)"><stop
         offset="0.44"
         stop-color="#F15222"
         id="stop79" /><stop
         offset="0.8"
         stop-color="#F6640E"
         id="stop80" /><stop
         offset="1"
         stop-color="#FA7001"
         id="stop81" /></radialGradient><radialGradient
       id="paint15_radial_1807_48493"
       cx="0"
       cy="0"
       r="1"
       gradientUnits="userSpaceOnUse"
       gradientTransform="matrix(-66.8078,0,0,-66.7629,91.515387,-200.25778)"><stop
         offset="0.44"
         stop-color="#F15222"
         id="stop82" /><stop
         offset="0.8"
         stop-color="#F6640E"
         id="stop83" /><stop
         offset="1"
         stop-color="#FA7001"
         id="stop84" /></radialGradient><radialGradient
       id="paint16_radial_1807_48493"
       cx="0"
       cy="0"
       r="1"
       gradientUnits="userSpaceOnUse"
       gradientTransform="matrix(-69.2397,0,0,-69.193,79.244387,-186.92478)"><stop
         offset="0.44"
         stop-color="#F15222"
         id="stop85" /><stop
         offset="0.8"
         stop-color="#F6640E"
         id="stop86" /><stop
         offset="1"
         stop-color="#FA7001"
         id="stop87" /></radialGradient><radialGradient
       id="paint17_radial_1807_48493"
       cx="0"
       cy="0"
       r="1"
       gradientUnits="userSpaceOnUse"
       gradientTransform="matrix(-62.769,0,0,-62.7268,74.081187,-180.04178)"><stop
         offset="0.44"
         stop-color="#F15222"
         id="stop88" /><stop
         offset="0.8"
         stop-color="#F6640E"
         id="stop89" /><stop
         offset="1"
         stop-color="#FA7001"
         id="stop90" /></radialGradient><radialGradient
       id="paint18_radial_1807_48493"
       cx="0"
       cy="0"
       r="1"
       gradientUnits="userSpaceOnUse"
       gradientTransform="matrix(-43.6761,0,0,-43.6468,80.535887,-175.81278)"><stop
         offset="0.44"
         stop-color="#F15222"
         id="stop91" /><stop
         offset="0.8"
         stop-color="#F6640E"
         id="stop92" /><stop
         offset="1"
         stop-color="#FA7001"
         id="stop93" /></radialGradient><radialGradient
       id="paint19_radial_1807_48493"
       cx="0"
       cy="0"
       r="1"
       gradientUnits="userSpaceOnUse"
       gradientTransform="matrix(-28.3256,0,0,-28.3066,84.360387,-166.27878)"><stop
         offset="0.44"
         stop-color="#F15222"
         id="stop94" /><stop
         offset="0.8"
         stop-color="#F6640E"
         id="stop95" /><stop
         offset="1"
         stop-color="#FA7001"
         id="stop96" /></radialGradient><radialGradient
       id="paint20_radial_1807_48493"
       cx="0"
       cy="0"
       r="1"
       gradientUnits="userSpaceOnUse"
       gradientTransform="matrix(-128.246,0,0,-128.16,84.913387,-209.36178)"><stop
         stop-color="#EE7207"
         id="stop97" /><stop
         offset="0.84"
         stop-color="#F0E106"
         id="stop98" /></radialGradient><radialGradient
       id="paint21_radial_1807_48493"
       cx="0"
       cy="0"
       r="1"
       gradientUnits="userSpaceOnUse"
       gradientTransform="matrix(-111.779,0,0,-111.704,93.376387,-209.21878)"><stop
         stop-color="#EE7207"
         id="stop99" /><stop
         offset="0.78"
         stop-color="#F0E106"
         id="stop100" /></radialGradient><radialGradient
       id="paint22_radial_1807_48493"
       cx="0"
       cy="0"
       r="1"
       gradientUnits="userSpaceOnUse"
       gradientTransform="matrix(-63.9024,0,0,-63.8594,111.16739,-206.49478)"><stop
         stop-color="#EE7207"
         id="stop101" /><stop
         offset="1"
         stop-color="#F0E106"
         id="stop102" /></radialGradient><radialGradient
       id="paint23_radial_1807_48493"
       cx="0"
       cy="0"
       r="1"
       gradientUnits="userSpaceOnUse"
       gradientTransform="matrix(-45.3335,0,0,-45.303,124.07839,-203.48378)"><stop
         stop-color="#EE7207"
         id="stop103" /><stop
         offset="1"
         stop-color="#F0E106"
         id="stop104" /></radialGradient><linearGradient
       id="paint24_linear_1807_48493"
       x1="91.491"
       y1="48.5942"
       x2="93.1388"
       y2="66.8745"
       gradientUnits="userSpaceOnUse"
       gradientTransform="translate(-17.862613,-311.78378)"><stop
         stop-color="#EE7207"
         id="stop105" /><stop
         offset="1"
         stop-color="#EB3C03"
         id="stop106" /></linearGradient><linearGradient
       id="paint25_linear_1807_48493"
       x1="93.3482"
       y1="43.2992"
       x2="83.5922"
       y2="43.371"
       gradientUnits="userSpaceOnUse"
       gradientTransform="translate(-17.862613,-311.78378)"><stop
         stop-color="#F0E106"
         id="stop107" /><stop
         offset="1"
         stop-color="#EB3C03"
         id="stop108" /></linearGradient><linearGradient
       id="paint26_linear_1807_48493"
       x1="67.2242"
       y1="4.10711"
       x2="72.7651"
       y2="19.5936"
       gradientUnits="userSpaceOnUse"
       gradientTransform="translate(-17.862613,-311.78378)"><stop
         stop-color="#EE7207"
         id="stop109" /><stop
         offset="1"
         stop-color="#EB3C03"
         id="stop110" /></linearGradient><linearGradient
       id="paint27_linear_1807_48493"
       x1="74.8984"
       y1="13.5625"
       x2="78.4328"
       y2="27.9486"
       gradientUnits="userSpaceOnUse"
       gradientTransform="translate(-17.862613,-311.78378)"><stop
         stop-color="#EE7207"
         id="stop111" /><stop
         offset="1"
         stop-color="#EB3C03"
         id="stop112" /></linearGradient><linearGradient
       id="paint28_linear_1807_48493"
       x1="81.3063"
       y1="22.8773"
       x2="84.1242"
       y2="38.6488"
       gradientUnits="userSpaceOnUse"
       gradientTransform="translate(-17.862613,-311.78378)"><stop
         stop-color="#EE7207"
         id="stop113" /><stop
         offset="1"
         stop-color="#EB3C03"
         id="stop114" /></linearGradient><linearGradient
       id="paint29_linear_1807_48493"
       x1="87.3444"
       y1="35.2064"
       x2="89.1115"
       y2="51.1689"
       gradientUnits="userSpaceOnUse"
       gradientTransform="translate(-17.862613,-311.78378)"><stop
         stop-color="#EE7207"
         id="stop115" /><stop
         offset="1"
         stop-color="#EB3C03"
         id="stop116" /></linearGradient><radialGradient
       id="paint30_radial_1807_48493"
       cx="0"
       cy="0"
       r="1"
       gradientUnits="userSpaceOnUse"
       gradientTransform="matrix(72.7002,0,0,72.6515,80.239787,-242.91498)"><stop
         stop-color="#F2551F"
         id="stop117" /><stop
         offset="1"
         stop-color="#F0E106"
         id="stop118" /></radialGradient><linearGradient
       id="paint31_linear_1807_48493"
       x1="104.911"
       y1="48.5942"
       x2="103.263"
       y2="66.8745"
       gradientUnits="userSpaceOnUse"
       gradientTransform="translate(-17.862613,-311.78378)"><stop
         stop-color="#EE7207"
         id="stop119" /><stop
         offset="1"
         stop-color="#EB3C03"
         id="stop120" /></linearGradient><linearGradient
       id="paint32_linear_1807_48493"
       x1="103.051"
       y1="43.2992"
       x2="112.807"
       y2="43.371"
       gradientUnits="userSpaceOnUse"
       gradientTransform="translate(-17.862613,-311.78378)"><stop
         stop-color="#F0E106"
         id="stop121" /><stop
         offset="1"
         stop-color="#EB3C03"
         id="stop122" /></linearGradient><linearGradient
       id="paint33_linear_1807_48493"
       x1="129.175"
       y1="4.1027"
       x2="123.634"
       y2="19.5893"
       gradientUnits="userSpaceOnUse"
       gradientTransform="translate(-17.862613,-311.78378)"><stop
         stop-color="#EE7207"
         id="stop123" /><stop
         offset="1"
         stop-color="#EB3C03"
         id="stop124" /></linearGradient><linearGradient
       id="paint34_linear_1807_48493"
       x1="121.508"
       y1="13.5625"
       x2="117.974"
       y2="27.9486"
       gradientUnits="userSpaceOnUse"
       gradientTransform="translate(-17.862613,-311.78378)"><stop
         stop-color="#EE7207"
         id="stop125" /><stop
         offset="1"
         stop-color="#EB3C03"
         id="stop126" /></linearGradient><linearGradient
       id="paint35_linear_1807_48493"
       x1="115.096"
       y1="22.8773"
       x2="112.278"
       y2="38.649"
       gradientUnits="userSpaceOnUse"
       gradientTransform="translate(-17.862613,-311.78378)"><stop
         stop-color="#EE7207"
         id="stop127" /><stop
         offset="1"
         stop-color="#EB3C03"
         id="stop128" /></linearGradient><linearGradient
       id="paint36_linear_1807_48493"
       x1="109.055"
       y1="35.2064"
       x2="107.288"
       y2="51.1689"
       gradientUnits="userSpaceOnUse"
       gradientTransform="translate(-17.862613,-311.78378)"><stop
         stop-color="#EE7207"
         id="stop129" /><stop
         offset="1"
         stop-color="#EB3C03"
         id="stop130" /></linearGradient><radialGradient
       id="paint37_radial_1807_48493"
       cx="0"
       cy="0"
       r="1"
       gradientUnits="userSpaceOnUse"
       gradientTransform="matrix(-72.7004,0,0,-72.6514,80.445187,-242.91508)"><stop
         stop-color="#F2551F"
         id="stop131" /><stop
         offset="1"
         stop-color="#F0E106"
         id="stop132" /></radialGradient></defs><g
     style="fill:none"
     id="g132"
     transform="matrix(4.3571428,0,0,4.3571428,-123.14285,-35.999997)"><g
       id="g8"
       transform="matrix(1.1666563,0,0,1.1666563,-10.737853,-88.123442)"><path
         id="path1-0"
         d="M 78.296875,87.535156 69.070313,111.53516 H 73.875 l 9.224609,-24.000004 z m 8.914063,0 -9.226563,24.000004 h 4.802734 l 9.226563,-24.000004 z m 46.087892,0.296875 -4.59766,2.472656 v 14.076173 c 0,5.3759 1.74145,7.1543 7.06446,7.1543 h 0.66992 v -4.25391 c -2.7745,0 -3.10547,-0.39755 -3.10547,-2.96875 l -0.0312,-0.0801 v -5.21875 h 3.13672 v -3.964842 h -3.13672 z m -34.445314,6.396485 c -4.7426,-0.0094 -8.596069,3.851193 -8.605469,8.621094 v 0.0332 c -9e-4,0.6282 0.06331,1.25579 0.191406,1.87109 0.1453,0.7115 0.378913,1.40159 0.695313,2.05469 l 0.01367,0.0273 0.0039,0.01 c 0.1033,0.2072 0.206478,0.41462 0.330078,0.60742 0.2399,0.4008 0.514859,0.78037 0.818359,1.13477 l 0.02734,0.0312 c 0.1444,0.1665 0.295978,0.33013 0.455078,0.48633 l 0.265625,0.2539 c 0.0843,0.0807 0.173878,0.15616 0.267578,0.22656 l 0.03125,0.0234 c 0.1779,0.1451 0.359982,0.28288 0.550782,0.42188 l 0.01953,0.0137 c 0.1823,0.1244 0.371953,0.23996 0.564453,0.35156 l 0.08203,0.0469 c 0.0152,0.008 0.03167,0.0152 0.04687,0.0234 l 0.0098,0.006 0.002,0.002 c 0.1717,0.093 0.346744,0.18577 0.527344,0.25977 l 0.08984,0.041 c 0.2098,0.0927 0.419207,0.17645 0.628907,0.25195 l 0.0293,0.0117 c 0.2097,0.0738 0.43119,0.13691 0.65039,0.19531 l 0.08398,0.0234 c 0.209799,0.0549 0.441868,0.10113 0.667968,0.14063 l 0.126953,0.0215 c 0.226,0.036 0.456707,0.0645 0.691407,0.0859 h 0.113281 c 0.2467,0.0172 0.495753,0.0293 0.751953,0.0293 0.1968,0 0.391231,-4.8e-4 0.582031,-0.0176 l 0.1875,-0.0137 c 0.1032,0 0.206294,-0.0127 0.308597,-0.0254 0.022,-0.003 0.0444,-0.005 0.0664,-0.008 0.0504,0 0.10123,-0.008 0.14844,-0.0156 0.0211,-0.003 0.0412,-0.007 0.0605,-0.01 0.1109,-0.0146 0.22087,-0.0319 0.33007,-0.0508 l 0.22071,-0.041 c 0.1049,-0.0188 0.2102,-0.0406 0.3125,-0.0664 l 0.21093,-0.0488 c 0.1531,-0.0404 0.30248,-0.0828 0.45118,-0.13086 0.0863,-0.0257 0.1706,-0.0545 0.2539,-0.084 l 0.0332,-0.0117 0.17969,-0.0664 c 0.1022,-0.0377 0.21138,-0.0791 0.30078,-0.1211 l 0.15039,-0.0644 c 0.086,-0.0369 0.16945,-0.0762 0.25195,-0.11914 l 0.12696,-0.0664 c 1.1785,-0.6042 2.19504,-1.48746 2.96094,-2.57226 l -3.62891,-2.10547 c -0.2296,0.2858 -0.49296,0.54122 -0.78516,0.76172 -0.0525,0.0404 -0.10701,0.0791 -0.16211,0.11523 -0.0859,0.0592 -0.17322,0.11282 -0.26172,0.16602 -0.0193,0.0106 -0.038,0.022 -0.0566,0.0332 -0.0264,0.0158 -0.0534,0.0313 -0.0801,0.0449 -0.1289,0.0695 -0.26068,0.13154 -0.39648,0.18554 -0.0481,0.0206 -0.0997,0.0403 -0.15039,0.0567 -0.1298,0.0481 -0.25848,0.089 -0.39258,0.125 l -0.0879,0.0254 c -0.132299,0.036 -0.269649,0.0626 -0.406249,0.0781 l -0.238282,0.0273 c -0.1294,0.015 -0.258672,0.0234 -0.388671,0.0254 -0.0872,-9.1e-4 -0.173113,-0.004 -0.257813,-0.0117 l -0.146484,-0.0156 c -0.0661,0 -0.132866,-0.009 -0.197266,-0.0176 -0.0168,-0.002 -0.03418,-0.004 -0.05078,-0.006 l -0.173828,-0.0293 c -0.0511,-1e-5 -0.102597,-0.0117 -0.154297,-0.0234 l -0.01367,-0.004 c -0.0118,-0.003 -0.02346,-0.003 -0.03516,-0.006 l -0.179688,-0.043 -0.07617,-0.0176 c -0.0791,-0.0206 -0.206856,-0.0574 -0.285156,-0.084 l -0.07422,-0.0254 c -0.0877,-0.0292 -0.174665,-0.0627 -0.259765,-0.0996 l -0.126953,-0.0566 c -0.0509,-0.0226 -0.09909,-0.0461 -0.146485,-0.0703 l -0.02148,-0.0117 -0.01367,-0.006 -0.111328,-0.0606 c -0.0611,-0.0344 -0.120135,-0.0705 -0.177735,-0.10742 -0.0113,-0.007 -0.0212,-0.0125 -0.0293,-0.0176 l -0.01563,-0.0117 c -0.0206,-0.0131 -0.03118,-0.0193 -0.05078,-0.0332 -0.0309,-0.0223 -0.116228,-0.0841 -0.173828,-0.12695 l -0.07813,-0.0605 c -0.0593,-0.0464 -0.112969,-0.0958 -0.167969,-0.14648 l -0.06445,-0.0586 c -0.0567,-0.0532 -0.110762,-0.11047 -0.164062,-0.16797 l -0.04883,-0.0547 c -0.0533,-0.0609 -0.104397,-0.12426 -0.154297,-0.18946 l -0.03711,-0.0488 c -0.0237,-0.0325 -0.04731,-0.0658 -0.07031,-0.0977 -0.0214,-0.0298 -0.0417,-0.0589 -0.0625,-0.0879 l -0.01367,-0.0195 -0.02539,-0.0391 c -0.049,-0.0773 -0.09372,-0.15482 -0.136718,-0.23632 v -0.002 c -2.03e-4,-0.001 3.74e-4,-0.005 0,-0.006 -0.0026,-0.005 -0.008,-0.0132 -0.01172,-0.0176 -0.0012,-0.001 -0.0029,-0.002 -0.0039,-0.004 -0.0169,-0.0323 -0.03303,-0.0606 -0.04883,-0.0879 -0.0261,-0.0451 -0.05207,-0.0865 -0.07617,-0.14258 v -0.002 c -0.0016,-0.007 -0.0084,-0.0287 -0.01563,-0.0469 -0.0061,-0.0152 -0.01142,-0.0288 -0.01172,-0.0312 -0.0084,-0.0202 -0.01513,-0.0331 -0.01953,-0.043 -0.0028,-0.006 -0.0056,-0.0103 -0.0078,-0.0156 -0.0093,-0.0226 -0.01433,-0.0462 -0.04883,-0.17188 v -0.002 l -0.0078,-0.0254 c -0.1006,-0.3675 -0.08107,-0.68232 -0.07227,-0.82812 v -0.002 c 0.0011,-0.0187 0.0015,-0.0341 0.002,-0.0469 4e-4,-0.01 3e-4,-0.0173 0,-0.0234 l 12.429684,-0.008 -0.008,-1.09375 c 0,-4.793102 -3.4747,-8.621095 -8.537105,-8.621095 z m -55.919922,0.162109 c -4.74261,0 -8.585938,3.837466 -8.585938,8.572265 0,4.7348 3.843328,8.57227 8.585938,8.57227 3.38871,0 6.07689,-1.73882 7.52539,-4.32032 l -3.796875,-2.18554 c -1.1468,2.07 -3.755545,2.81978 -5.828125,1.67578 -2.07258,-1.1449 -2.824484,-3.75111 -1.677734,-5.82031 1.14675,-2.069104 3.757528,-2.818732 5.830078,-1.673832 0.6688,0.369 1.225834,0.910062 1.615235,1.568362 l 3.791015,-2.183597 c -1.4631,-2.51891 -4.121074,-4.205078 -7.458984,-4.205078 z m 17.496094,0 c -4.943701,-0.01888 -8.928163,4.135384 -8.601563,9.146485 0.276,4.2285 3.692981,7.66651 7.925781,7.97461 5.0169,0.3647 9.209616,-3.58003 9.228516,-8.51563 v -0.0332 c 0.024,-4.710696 -3.779547,-8.548232 -8.498047,-8.572262 z m 57.654292,0 c -4.7426,0 -8.58789,3.837466 -8.58789,8.572265 0,4.7348 3.84529,8.57227 8.58789,8.57227 3.3887,0 6.0769,-1.73882 7.5254,-4.32032 l -3.79297,-2.18554 c -1.1459,2.0717 -3.75774,2.82484 -5.83203,1.68164 -2.07511,-1.1431 -2.82755,-3.75147 -1.68165,-5.82227 1.145,-2.071798 3.75498,-2.823686 5.83008,-1.679686 l 0.002,0.002 c 0.0431,0.0242 0.89709,0.502559 1.61719,1.568356 l 3.78906,-2.183591 c -1.46314,-2.518956 -4.11908,-4.205124 -7.45708,-4.205124 z m -19.267574,3.544922 c 1.991804,0.0223 3.959954,0.892419 4.376954,3.136723 h -8.716797 c 0.332699,-1.786904 2.439243,-3.158123 4.339843,-3.136723 z m -38.466797,0.712891 c 2.4155,0 4.373047,1.955582 4.373047,4.367192 -0.0026,2.41069 -1.959247,4.36273 -4.373047,4.36523 -2.4147,0 -4.373046,-1.95454 -4.373046,-4.36523 0,-2.41161 1.958346,-4.367192 4.373046,-4.367192 z"
         style="fill:#00005a;fill-opacity:1" /><path
         id="path8-5"
         d="m 155.42188,88.371094 -8.23242,23.164066 h 4.70703 l 1.37695,-3.96485 h 8.75391 l 1.375,3.96485 h 4.70703 L 159.8711,88.371094 Z m 14.32617,0 v 23.164066 h 4.59961 V 88.371094 Z m -12.10352,6.408203 2.98047,8.617183 h -5.95898 z m -15.59765,12.228513 c -0.646,0 -1.18242,0.21387 -1.60742,0.63867 -0.426,0.4249 -0.63672,0.95992 -0.63672,1.60352 0,0.6454 0.21072,1.18835 0.63672,1.62695 0.425,0.4402 0.96142,0.65821 1.60742,0.65821 0.616,0 1.13745,-0.21801 1.56445,-0.65821 0.424,-0.4386 0.63672,-0.98155 0.63672,-1.62695 0,-0.6445 -0.21172,-1.17862 -0.63672,-1.60352 -0.427,-0.4248 -0.94845,-0.63867 -1.56445,-0.63867 z"
         style="fill:#28faa9;fill-opacity:1" /></g></g></svg>
