<svg width="230" height="64" viewBox="0 0 230 64" fill="none" xmlns="http://www.w3.org/2000/svg">
<path fill-rule="evenodd" clip-rule="evenodd" d="M59.8593 12.0481L70.9965 23.0741L57.7644 36.176L52.0643 30.5327L48.2642 34.2949L57.7644 43.7005L74.7972 26.837L77.548 29.5606C78.9596 30.9581 78.9596 33.224 77.548 34.6215L59.8593 52.134C58.4477 53.5315 56.1591 53.5315 54.7475 52.134L37.0587 34.6215C35.6471 33.224 35.6471 30.9581 37.0587 29.5606L54.7475 12.0481C56.1591 10.6506 58.4477 10.6506 59.8593 12.0481Z" fill="#007FFF"/>
<path d="M102.823 24.3047L97.3306 40.8782H92.9062L100.41 20.8856H103.225L102.823 24.3047ZM107.386 40.8782L101.88 24.3047L101.436 20.8856H104.279L111.824 40.8782H107.386ZM107.136 33.4359V36.6627H96.4707V33.4359H107.136Z" fill="#007FFF"/>
<path d="M118.231 19.7871V40.8782H114.223V19.7871H118.231Z" fill="#007FFF"/>
<path d="M126.316 19.7871V40.8782H122.308V19.7871H126.316Z" fill="#007FFF"/>
<path d="M139.048 37.6376V19.7871H143.07V40.8782H139.45L139.048 37.6376ZM129.561 33.6281V33.3398C129.561 32.2046 129.691 31.1748 129.95 30.2502C130.209 29.3165 130.588 28.5155 131.087 27.8473C131.586 27.179 132.201 26.6618 132.932 26.2957C133.662 25.9295 134.494 25.7464 135.428 25.7464C136.306 25.7464 137.074 25.9295 137.73 26.2957C138.396 26.6618 138.96 27.1836 139.422 27.861C139.894 28.5293 140.273 29.3211 140.56 30.2365C140.846 31.1428 141.054 32.136 141.184 33.2162V33.8478C141.054 34.8822 140.846 35.8434 140.56 36.7314C140.273 37.6193 139.894 38.3974 139.422 39.0657C138.96 39.7247 138.396 40.2374 137.73 40.6035C137.065 40.9697 136.288 41.1528 135.4 41.1528C134.466 41.1528 133.634 40.9651 132.904 40.5898C132.183 40.2145 131.572 39.6881 131.073 39.0107C130.583 38.3333 130.209 37.5369 129.95 36.6215C129.691 35.7061 129.561 34.7083 129.561 33.6281ZM133.556 33.3398V33.6281C133.556 34.2414 133.602 34.8136 133.694 35.3445C133.796 35.8754 133.958 36.3469 134.18 36.7588C134.411 37.1616 134.707 37.4774 135.067 37.7063C135.437 37.926 135.886 38.0358 136.413 38.0358C137.097 38.0358 137.661 37.8848 138.105 37.5827C138.549 37.2714 138.886 36.8458 139.117 36.3057C139.358 35.7656 139.496 35.1431 139.533 34.4383V32.6395C139.506 32.0628 139.422 31.5456 139.284 31.0878C139.154 30.621 138.96 30.2228 138.701 29.8932C138.452 29.5637 138.137 29.3074 137.758 29.1243C137.388 28.9412 136.949 28.8497 136.441 28.8497C135.923 28.8497 135.479 28.9687 135.109 29.2067C134.739 29.4355 134.439 29.7514 134.208 30.1541C133.986 30.5569 133.819 31.0329 133.708 31.5822C133.607 32.1223 133.556 32.7081 133.556 33.3398Z" fill="#007FFF"/>
<path d="M146.121 33.6007V33.3123C146.121 32.223 146.278 31.2206 146.592 30.3052C146.907 29.3806 147.364 28.5796 147.965 27.9022C148.566 27.2248 149.306 26.6985 150.185 26.3231C151.063 25.9387 152.071 25.7464 153.208 25.7464C154.345 25.7464 155.358 25.9387 156.245 26.3231C157.133 26.6985 157.877 27.2248 158.478 27.9022C159.089 28.5796 159.551 29.3806 159.865 30.3052C160.18 31.2206 160.337 32.223 160.337 33.3123V33.6007C160.337 34.6808 160.18 35.6832 159.865 36.6078C159.551 37.5232 159.089 38.3242 158.478 39.0107C157.877 39.6881 157.138 40.2145 156.259 40.5898C155.381 40.9651 154.373 41.1528 153.236 41.1528C152.099 41.1528 151.086 40.9651 150.198 40.5898C149.32 40.2145 148.576 39.6881 147.965 39.0107C147.364 38.3242 146.907 37.5232 146.592 36.6078C146.278 35.6832 146.121 34.6808 146.121 33.6007ZM150.115 33.3123V33.6007C150.115 34.2231 150.171 34.8044 150.282 35.3445C150.393 35.8846 150.568 36.3606 150.809 36.7725C151.058 37.1753 151.382 37.4911 151.78 37.72C152.177 37.9489 152.663 38.0633 153.236 38.0633C153.791 38.0633 154.267 37.9489 154.664 37.72C155.062 37.4911 155.381 37.1753 155.621 36.7725C155.862 36.3606 156.037 35.8846 156.148 35.3445C156.269 34.8044 156.329 34.2231 156.329 33.6007V33.3123C156.329 32.7081 156.269 32.1406 156.148 31.6096C156.037 31.0695 155.857 30.5935 155.607 30.1816C155.367 29.7605 155.048 29.431 154.651 29.193C154.253 28.9549 153.772 28.8359 153.208 28.8359C152.644 28.8359 152.163 28.9549 151.766 29.193C151.377 29.431 151.058 29.7605 150.809 30.1816C150.568 30.5935 150.393 31.0695 150.282 31.6096C150.171 32.1406 150.115 32.7081 150.115 33.3123Z" fill="#007FFF"/>
<path d="M167.271 29.193V40.8782H163.277V26.0211H167.021L167.271 29.193ZM166.689 32.9278H165.607C165.607 31.8293 165.75 30.8407 166.037 29.9619C166.323 29.0739 166.726 28.3187 167.243 27.6963C167.761 27.0646 168.376 26.584 169.088 26.2545C169.809 25.9158 170.614 25.7464 171.501 25.7464C172.204 25.7464 172.847 25.8471 173.429 26.0485C174.012 26.2499 174.511 26.5703 174.927 27.0097C175.352 27.4491 175.676 28.0304 175.898 28.7536C176.129 29.4767 176.245 30.3601 176.245 31.4037V40.8782H172.222V31.3899C172.222 30.7308 172.13 30.2182 171.945 29.852C171.76 29.4859 171.487 29.2296 171.127 29.0831C170.775 28.9275 170.341 28.8497 169.823 28.8497C169.287 28.8497 168.82 28.9549 168.422 29.1655C168.034 29.376 167.71 29.669 167.451 30.0443C167.202 30.4104 167.012 30.8407 166.883 31.335C166.753 31.8293 166.689 32.3603 166.689 32.9278Z" fill="#007FFF"/>
<path d="M186.757 41.1528C185.592 41.1528 184.547 40.9697 183.623 40.6035C182.698 40.2282 181.912 39.711 181.265 39.0519C180.627 38.3928 180.137 37.6285 179.795 36.7588C179.452 35.88 179.281 34.9463 179.281 33.9577V33.4084C179.281 32.2825 179.443 31.2526 179.767 30.3189C180.09 29.3852 180.553 28.575 181.154 27.8885C181.764 27.2019 182.504 26.6756 183.373 26.3094C184.242 25.9341 185.222 25.7464 186.313 25.7464C187.377 25.7464 188.32 25.9204 189.143 26.2682C189.965 26.6161 190.654 27.1104 191.209 27.7512C191.773 28.392 192.198 29.1609 192.485 30.058C192.772 30.946 192.915 31.9346 192.915 33.0239V34.6717H180.987V32.0353H188.99V31.7332C188.99 31.184 188.888 30.6942 188.685 30.264C188.491 29.8246 188.195 29.4767 187.797 29.2204C187.4 28.9641 186.891 28.8359 186.272 28.8359C185.745 28.8359 185.291 28.9504 184.912 29.1792C184.533 29.4081 184.224 29.7285 183.983 30.1404C183.752 30.5523 183.576 31.0375 183.456 31.5959C183.345 32.1451 183.29 32.7493 183.29 33.4084V33.9577C183.29 34.5527 183.373 35.1019 183.539 35.6054C183.715 36.1089 183.96 36.5437 184.274 36.9099C184.598 37.276 184.986 37.5598 185.439 37.7612C185.902 37.9626 186.424 38.0633 187.007 38.0633C187.728 38.0633 188.398 37.926 189.018 37.6513C189.646 37.3676 190.187 36.9419 190.64 36.3743L192.582 38.4615C192.268 38.91 191.838 39.3403 191.292 39.7522C190.756 40.1641 190.109 40.5028 189.351 40.7683C188.592 41.0246 187.728 41.1528 186.757 41.1528Z" fill="#007FFF"/>
</svg>
