<svg width="721" height="204" viewBox="0 0 721 204" fill="none" xmlns="http://www.w3.org/2000/svg">
<path d="M438.125 197L440.614 189.989H450.386L452.875 197H455.102L446.636 173.727H444.364L435.898 197H438.125ZM441.295 188.08L445.42 176.489H445.58L449.705 188.08H441.295ZM460.693 186.091C460.693 183.045 462.693 181.17 465.443 181.17C468.125 181.17 469.852 182.966 469.852 185.818V197H471.875V185.693C471.875 181.557 469.477 179.318 465.955 179.318C463.398 179.318 461.636 180.5 460.818 182.284H460.636V179.545H458.67V197H460.693V186.091ZM483.486 197.364C486.656 197.364 488.134 195.352 488.849 193.761H489.088V197H491.065V173.727H489.031V182.875H488.849C488.156 181.307 486.713 179.307 483.52 179.307C479.213 179.307 476.304 182.943 476.304 188.318C476.304 193.739 479.202 197.364 483.486 197.364ZM483.724 195.511C480.247 195.511 478.338 192.352 478.338 188.284C478.338 184.261 480.224 181.148 483.724 181.148C487.134 181.148 489.065 184.102 489.065 188.284C489.065 192.5 487.111 195.511 483.724 195.511ZM496.827 197H498.849V185.727C498.849 183.136 500.838 181.261 503.565 181.261C504.099 181.261 504.599 181.352 504.781 181.375V179.318C504.509 179.307 504.043 179.284 503.713 179.284C501.52 179.284 499.645 180.466 498.94 182.227H498.793V179.545H496.827V197ZM514.486 197.364C519.009 197.364 522.168 193.67 522.168 188.352C522.168 183 519.009 179.307 514.486 179.307C509.963 179.307 506.804 183 506.804 188.352C506.804 193.67 509.963 197.364 514.486 197.364ZM514.486 195.511C510.861 195.511 508.838 192.261 508.838 188.352C508.838 184.443 510.861 181.148 514.486 181.148C518.111 181.148 520.134 184.443 520.134 188.352C520.134 192.261 518.111 195.511 514.486 195.511ZM526.631 197H528.665V179.545H526.631V197ZM527.665 176.545C528.494 176.545 529.188 175.886 529.188 175.091C529.188 174.295 528.494 173.636 527.665 173.636C526.835 173.636 526.153 174.295 526.153 175.091C526.153 175.886 526.835 176.545 527.665 176.545ZM540.298 197.364C543.469 197.364 544.946 195.352 545.662 193.761H545.901V197H547.878V173.727H545.844V182.875H545.662C544.969 181.307 543.526 179.307 540.332 179.307C536.026 179.307 533.116 182.943 533.116 188.318C533.116 193.739 536.014 197.364 540.298 197.364ZM540.537 195.511C537.06 195.511 535.151 192.352 535.151 188.284C535.151 184.261 537.037 181.148 540.537 181.148C543.946 181.148 545.878 184.102 545.878 188.284C545.878 192.5 543.923 195.511 540.537 195.511ZM563.094 197L565.582 189.989H575.355L577.844 197H580.071L571.605 173.727H569.332L560.866 197H563.094ZM566.264 188.08L570.389 176.489H570.548L574.673 188.08H566.264ZM583.605 203.545H585.639V193.761H585.821C586.514 195.364 588.014 197.364 591.185 197.364C595.457 197.364 598.366 193.727 598.366 188.318C598.366 182.932 595.469 179.307 591.151 179.307C587.946 179.307 586.526 181.307 585.821 182.875H585.571V179.545H583.605V203.545ZM585.605 188.284C585.605 184.102 587.526 181.148 590.935 181.148C594.446 181.148 596.332 184.261 596.332 188.284C596.332 192.352 594.412 195.511 590.935 195.511C587.56 195.511 585.605 192.5 585.605 188.284ZM602.761 203.545H604.795V193.761H604.977C605.67 195.364 607.17 197.364 610.341 197.364C614.614 197.364 617.523 193.727 617.523 188.318C617.523 182.932 614.625 179.307 610.307 179.307C607.102 179.307 605.682 181.307 604.977 182.875H604.727V179.545H602.761V203.545ZM604.761 188.284C604.761 184.102 606.682 181.148 610.091 181.148C613.602 181.148 615.489 184.261 615.489 188.284C615.489 192.352 613.568 195.511 610.091 195.511C606.716 195.511 604.761 192.5 604.761 188.284ZM644.009 179.545H646.065C645.906 176.011 642.849 173.398 638.52 173.398C634.224 173.398 630.918 175.977 630.918 179.727C630.918 182.716 633.031 184.591 636.679 185.67L639.463 186.489C642.349 187.33 644.327 188.409 644.327 190.784C644.327 193.58 641.793 195.455 638.315 195.455C635.179 195.455 632.724 193.943 632.497 191.182H630.315C630.565 194.864 633.565 197.398 638.315 197.398C643.361 197.398 646.384 194.545 646.384 190.818C646.384 186.955 643.02 185.409 640.065 184.58L637.611 183.875C635.349 183.239 632.974 182.091 632.974 179.636C632.974 177.136 635.213 175.307 638.463 175.307C641.543 175.307 643.747 176.955 644.009 179.545ZM657.952 179.545H654.259V175.364H652.224V179.545H649.622V181.307H652.224V192.92C652.224 195.773 654.474 197.261 656.713 197.261C657.554 197.261 658.122 197.102 658.509 196.955L658.077 195.125C657.793 195.205 657.429 195.284 656.895 195.284C655.52 195.284 654.259 194.636 654.259 192.443V181.307H657.952V179.545ZM669.142 197.364C673.665 197.364 676.824 193.67 676.824 188.352C676.824 183 673.665 179.307 669.142 179.307C664.619 179.307 661.46 183 661.46 188.352C661.46 193.67 664.619 197.364 669.142 197.364ZM669.142 195.511C665.517 195.511 663.494 192.261 663.494 188.352C663.494 184.443 665.517 181.148 669.142 181.148C672.767 181.148 674.79 184.443 674.79 188.352C674.79 192.261 672.767 195.511 669.142 195.511ZM681.264 197H683.287V185.727C683.287 183.136 685.276 181.261 688.003 181.261C688.537 181.261 689.037 181.352 689.219 181.375V179.318C688.946 179.307 688.48 179.284 688.151 179.284C685.957 179.284 684.082 180.466 683.378 182.227H683.23V179.545H681.264V197ZM699.196 197.364C702.696 197.364 705.048 195.466 705.844 193.273L703.923 192.648C703.253 194.216 701.673 195.511 699.196 195.511C695.628 195.511 693.366 192.909 693.276 188.875H706.276V187.875C706.276 182.045 702.673 179.307 698.889 179.307C694.366 179.307 691.241 183.091 691.241 188.375C691.241 193.67 694.31 197.364 699.196 197.364ZM693.287 187.091C693.503 183.841 695.696 181.148 698.889 181.148C702.014 181.148 704.207 183.727 704.207 187.091H693.287Z" fill="#1C1F24"/>
<path d="M74.0377 96.3724C77.2422 95.3518 80.3647 94.0908 83.3697 92.5834C85.6469 91.4515 87.8537 90.1846 89.9784 88.7945C83.8627 59.1927 64.8641 34.2947 39.1101 20.2064C31.3686 16.4879 22.694 14.9629 15.8094 14.9277C10.4567 14.9042 6.18982 15.7782 4.29994 17.221C2.26333 18.7753 0.972108 22.7285 0.614087 27.2975C0.344104 30.8284 0.631694 34.7346 1.57076 38.1834C2.33963 41.0104 2.91481 43.8785 3.29044 46.7818C3.29044 46.7818 3.84801 52.5063 3.84801 55.3803C3.84801 57.4917 3.74824 59.5739 3.55455 61.6326C3.41956 63.0813 3.39608 64.5418 3.48999 65.9963C3.9654 73.6211 7.66299 80.677 13.6554 85.422C25.1884 94.519 39.4623 99.4634 54.1528 99.4399C56.254 99.4399 60.3918 99.1467 60.3918 99.1467C65.0285 98.7185 69.6006 97.78 74.0377 96.3724Z" fill="url(#paint0_radial_1807_48493)"/>
<path d="M66.7359 69.2515C48.1247 69.2515 31.3271 77.0112 19.4068 89.469C19.4068 89.469 19.4068 89.469 19.4009 89.469C19.0722 89.815 18.7494 90.1669 18.4266 90.5188C16.971 92.1025 15.5977 93.7623 14.3064 95.4867C14.3006 95.4926 14.2947 95.5043 14.283 95.5102C13.7313 96.2492 13.1913 96.9941 12.6689 97.7565C8.37269 104.009 6.91127 111.774 8.63681 119.159C9.74608 123.863 11.3718 128.426 13.4965 132.772C15.9146 137.728 18.949 142.356 22.5292 146.549C25.5048 150.045 28.8385 153.218 32.4774 156.016V156.01C35.817 158.579 39.3972 160.825 43.1652 162.708C43.5996 162.925 44.0397 163.136 44.4741 163.342C47.9017 164.966 51.6169 165.905 55.4025 166.116C68.1386 166.785 79.8887 159.3 84.6721 147.488C86.8085 142.215 88.493 136.778 89.7079 131.224V131.218C90.7643 126.402 91.4686 121.522 91.8149 116.607C91.9851 114.209 92.0673 111.786 92.0732 109.346C92.0732 107.692 92.0321 106.05 91.9558 104.414C91.7856 100.801 91.4334 97.1994 90.8758 93.6274V93.6157C90.3652 90.3018 89.6844 87.0173 88.8392 83.768C87.7828 79.7092 86.474 75.7208 84.9245 71.8205C79.0142 70.1078 72.8927 69.2456 66.7359 69.2515Z" fill="url(#paint1_radial_1807_48493)"/>
<path d="M8.64352 119.153C9.7528 123.857 11.3786 128.42 13.5032 132.766L88.8519 83.7621C87.7954 79.7034 86.4866 75.715 84.9371 71.8146C79.021 70.1078 72.8994 69.2456 66.7426 69.2515C44.293 69.2515 24.4786 80.5421 12.6815 97.7507C8.37941 104.003 6.91798 111.774 8.64352 119.153Z" fill="url(#paint2_radial_1807_48493)"/>
<path d="M22.54 146.543L90.8338 93.6448C90.8456 93.6389 90.8514 93.6213 90.8456 93.6096C90.3349 90.3074 89.6541 87.0405 88.8207 83.8088C88.8148 83.797 88.8031 83.7853 88.7913 83.7794C84.9412 83.0873 81.0382 82.7413 77.1293 82.7471C46.2809 82.7471 20.433 104.067 13.5015 132.772C13.5132 132.83 18.6605 142.203 22.4931 146.543C22.4989 146.555 22.5224 146.555 22.54 146.543Z" fill="url(#paint3_radial_1807_48493)"/>
<path d="M22.5356 146.544C25.5113 150.039 28.845 153.213 32.4839 156.01L91.9681 104.42C91.7979 100.801 91.434 97.1995 90.8764 93.6217C89.5441 93.5396 88.2001 93.4985 86.8443 93.4985C54.9218 93.4868 28.3285 116.32 22.5356 146.544Z" fill="url(#paint4_radial_1807_48493)"/>
<path d="M32.4824 156.01C35.822 158.585 39.4022 160.825 43.1761 162.708L91.8316 116.607C92.0018 114.209 92.084 111.786 92.0898 109.346C92.0898 107.692 92.0488 106.05 91.9725 104.414C62.5444 106.437 38.469 127.88 32.4824 156.01Z" fill="url(#paint5_radial_1807_48493)"/>
<path d="M44.4895 163.336C47.9171 164.961 51.6323 165.899 55.4179 166.11L89.7233 131.212C90.7798 126.397 91.4841 121.511 91.8304 116.596C68.3536 121.857 49.6426 139.716 43.1748 162.697C43.1807 162.697 44.0493 163.131 44.4895 163.336Z" fill="url(#paint6_radial_1807_48493)"/>
<path d="M55.4131 166.11C68.1492 166.779 79.8993 159.295 84.6827 147.482C86.8191 142.209 88.5036 136.772 89.7185 131.218C74.218 137.998 61.9279 150.497 55.4131 166.11Z" fill="url(#paint7_radial_1807_48493)"/>
<path opacity="0.4" d="M68.9662 97.7626C65.6501 98.5779 62.2988 99.223 58.9181 99.6981C42.8952 101.956 27.4828 100.255 14.283 95.5045C15.8676 93.393 17.5756 91.3754 19.4009 89.4634L68.9662 97.7626Z" fill="black"/>
<path d="M0.615479 27.2974L83.371 92.5834C85.6483 91.4514 87.8551 90.1845 89.9797 88.7945C83.864 59.1926 64.8655 34.2946 39.1115 20.2063C25.3541 13.5962 8.62105 13.9246 4.30133 17.2209C2.26472 18.7752 0.973499 22.7284 0.615479 27.2974Z" fill="url(#paint8_radial_1807_48493)"/>
<path d="M1.57501 38.1891C2.34388 41.0103 2.91906 43.8843 3.30055 46.7875L74.0419 96.3723C77.2464 95.3517 80.3689 94.0848 83.3797 92.5833C70.3443 57.7614 38.7504 31.9896 0.624206 27.2974C0.342485 30.8341 0.635945 34.7345 1.57501 38.1891Z" fill="url(#paint9_radial_1807_48493)"/>
<path d="M3.55926 61.6325C3.42427 63.0813 3.40079 64.5417 3.4947 65.9963L60.3965 99.1467C65.0332 98.7127 69.6112 97.7859 74.0483 96.3783C59.2696 70.6826 33.586 52.0487 3.30688 46.7935C3.68251 49.644 3.86446 52.5121 3.86446 55.386C3.85272 57.4858 3.75294 59.568 3.55926 61.6325Z" fill="url(#paint10_radial_1807_48493)"/>
<path d="M3.49268 65.9961C3.96808 73.6209 7.66567 80.6768 13.6581 85.4218C25.191 94.5188 39.4649 99.4631 54.1555 99.4397C56.2566 99.4397 58.3343 99.34 60.3827 99.1464C45.6275 82.0903 25.6136 70.4302 3.49268 65.9961Z" fill="url(#paint11_radial_1807_48493)"/>
<path d="M122.374 96.3723C126.817 97.7858 131.389 98.7184 136.026 99.1524C136.026 99.1524 140.158 99.4457 142.265 99.4457C156.961 99.4691 171.229 94.5248 182.762 85.4278C188.755 80.6887 192.446 73.6269 192.928 66.0021C193.021 64.5476 192.998 63.0871 192.863 61.6384C192.663 59.5797 192.57 57.4917 192.57 55.3861C192.57 52.5121 193.127 46.7876 193.127 46.7876C193.509 43.8844 194.084 41.0163 194.847 38.1892C195.786 34.7346 196.073 30.8342 195.803 27.3033C195.451 22.7285 194.16 18.7753 192.118 17.2269C190.228 15.784 185.961 14.9101 180.608 14.9336C173.724 14.9688 165.049 16.4879 157.307 20.2123C131.548 34.3006 112.555 59.1985 106.439 88.8003C108.564 90.1903 110.771 91.4572 113.048 92.5892C116.047 94.0849 119.169 95.3518 122.374 96.3723Z" fill="url(#paint12_radial_1807_48493)"/>
<path d="M129.675 69.2515C123.518 69.2456 117.397 70.1078 111.48 71.8146C109.925 75.7091 108.616 79.7034 107.566 83.7621C106.721 87.0114 106.046 90.296 105.529 93.6098V93.6216C104.972 97.1993 104.619 100.795 104.449 104.408C104.367 106.044 104.332 107.686 104.332 109.34C104.332 111.78 104.42 114.203 104.59 116.602C104.936 121.517 105.641 126.397 106.697 131.212V131.218C107.912 136.772 109.596 142.215 111.733 147.482C116.516 159.295 128.266 166.779 141.002 166.11C144.788 165.899 148.503 164.96 151.931 163.336C152.371 163.13 152.805 162.919 153.24 162.702C157.014 160.82 160.588 158.579 163.927 156.004V156.01C167.566 153.212 170.9 150.039 173.876 146.544C177.456 142.35 180.49 137.722 182.908 132.766C185.027 128.426 186.659 123.857 187.768 119.153C189.494 111.769 188.032 104.003 183.736 97.7507C183.214 96.9882 182.674 96.2433 182.122 95.5043C182.116 95.4984 182.11 95.4867 182.098 95.4808C180.807 93.7565 179.428 92.1025 177.978 90.513C177.656 90.1611 177.333 89.8092 177.004 89.4631C177.004 89.4631 177.004 89.4631 176.998 89.4631C165.084 77.0112 148.286 69.2515 129.675 69.2515Z" fill="url(#paint13_radial_1807_48493)"/>
<path d="M183.745 97.7561C171.948 80.5474 152.134 69.2569 129.684 69.2569C123.528 69.251 117.406 70.1132 111.49 71.82C109.935 75.7145 108.626 79.7087 107.575 83.7675C111.431 83.0754 115.34 82.7235 119.261 82.7293C150.121 82.7293 175.992 104.061 182.924 132.772C185.043 128.431 186.674 123.862 187.783 119.158C189.503 111.774 188.036 104.003 183.745 97.7561Z" fill="url(#paint14_radial_1807_48493)"/>
<path d="M182.919 132.766C175.993 104.056 150.116 82.7236 119.268 82.7236C115.347 82.7236 111.438 83.0697 107.582 83.7618C106.737 87.0111 106.056 90.2957 105.545 93.6095C106.878 93.5274 108.222 93.4864 109.578 93.4864C141.5 93.4864 168.099 116.326 173.892 146.543C177.466 142.35 180.501 137.722 182.919 132.766Z" fill="url(#paint15_radial_1807_48493)"/>
<path d="M109.567 93.4922C108.211 93.4922 106.867 93.5333 105.535 93.6154C104.977 97.1932 104.613 100.8 104.443 104.413C133.865 106.437 157.935 127.88 163.927 156.004C167.566 153.206 170.9 150.033 173.876 146.537C168.089 116.326 141.489 93.4863 109.567 93.4922Z" fill="url(#paint16_radial_1807_48493)"/>
<path d="M163.929 156.004C157.942 127.875 133.867 106.437 104.445 104.414C104.363 106.05 104.327 107.692 104.327 109.346C104.327 111.786 104.415 114.209 104.586 116.607C128.051 121.869 146.773 139.722 153.241 162.708C157.009 160.82 160.589 158.573 163.929 156.004Z" fill="url(#paint17_radial_1807_48493)"/>
<path d="M153.24 162.697C146.772 139.716 128.061 121.857 104.584 116.596C104.931 121.511 105.635 126.397 106.691 131.212C122.198 137.998 134.488 150.497 140.997 166.11C144.782 165.899 148.497 164.96 151.925 163.336C152.365 163.131 152.805 162.919 153.24 162.697Z" fill="url(#paint18_radial_1807_48493)"/>
<path d="M106.69 131.217C107.905 136.772 109.59 142.215 111.726 147.482C116.51 159.294 128.26 166.778 140.996 166.11C134.487 150.496 122.197 137.998 106.69 131.217Z" fill="url(#paint19_radial_1807_48493)"/>
<path opacity="0.4" d="M177.012 89.4688C178.837 91.3808 180.545 93.3925 182.13 95.5099C168.924 100.267 153.518 101.962 137.495 99.7035C134.114 99.2284 130.763 98.5832 127.447 97.7679L177.012 89.4688Z" fill="black"/>
<path d="M195.799 27.2973C195.447 22.7224 194.156 18.7692 192.113 17.2208C187.788 13.9246 171.06 13.5902 157.303 20.2062C131.543 34.2945 112.551 59.1925 106.435 88.7943C108.559 90.1844 110.766 91.4513 113.044 92.5833C126.085 57.7613 157.673 31.9954 195.799 27.2973Z" fill="url(#paint20_radial_1807_48493)"/>
<path d="M195.798 27.2969C157.671 31.9891 126.077 57.7609 113.042 92.5828C116.053 94.0843 119.169 95.3512 122.38 96.3718C137.159 70.6762 162.842 52.0423 193.121 46.7871C193.503 43.8838 194.078 41.0157 194.847 38.1886C195.78 34.734 196.068 30.8336 195.798 27.2969Z" fill="url(#paint21_radial_1807_48493)"/>
<path d="M192.858 61.6267C192.659 59.568 192.565 57.4799 192.565 55.3743C192.565 52.5003 192.752 49.6322 193.122 46.7817C162.843 52.037 137.154 70.6708 122.381 96.3665C126.818 97.7741 131.396 98.7067 136.033 99.1348C150.794 82.0787 170.808 70.4186 192.934 65.9845C193.017 64.5358 192.993 63.0812 192.858 61.6267Z" fill="url(#paint22_radial_1807_48493)"/>
<path d="M136.031 99.1523C138.079 99.3458 140.157 99.4456 142.258 99.4456C156.955 99.469 171.223 94.5246 182.756 85.4276C188.748 80.6885 192.44 73.6268 192.921 66.002C170.8 70.4361 150.786 82.102 136.031 99.1523Z" fill="url(#paint23_radial_1807_48493)"/>
<path d="M89.7795 51.474C91.3995 56.4594 92.6203 61.5564 93.4478 66.7295L93.4654 66.7178C94.4456 65.8145 94.9327 64.5007 94.786 63.1752C94.2226 58.4595 93.3246 53.7907 92.1038 49.1982C91.3056 49.9373 90.5308 50.6939 89.7795 51.474Z" fill="url(#paint24_linear_1807_48493)"/>
<path d="M84.501 38.3943C86.5669 42.6232 88.3277 46.9928 89.7774 51.468C90.5287 50.6879 91.3034 49.9313 92.0957 49.1923C90.828 44.4121 89.214 39.7316 87.2595 35.1919C86.3028 36.2359 85.3814 37.2975 84.501 38.3943Z" fill="url(#paint25_linear_1807_48493)"/>
<path d="M78.4058 27.6258C80.6536 31.0862 82.6902 34.6816 84.4979 38.3943C85.3783 37.2975 86.2998 36.23 87.2564 35.1919C85.5133 31.1332 83.5002 27.1918 81.2406 23.3911C80.2428 24.7694 79.2979 26.1771 78.4058 27.6258Z" fill="#EB3C03"/>
<path d="M66.7066 12.838C68.7021 14.9319 70.5979 17.0962 72.3997 19.3367C73.151 17.5067 73.9844 15.7237 74.8941 13.9817C72.5582 10.9025 70.0579 7.95816 67.3933 5.16045L67.1057 4.86133L66.8123 5.15459C64.717 7.27779 64.67 10.6679 66.7066 12.838Z" fill="url(#paint26_linear_1807_48493)"/>
<path d="M72.4033 19.3325C74.5456 21.9953 76.547 24.7637 78.4075 27.6259C79.2996 26.1772 80.2387 24.7695 81.2306 23.3971C79.2938 20.1419 77.175 16.9981 74.886 13.9834C73.988 15.7195 73.1604 17.5025 72.4033 19.3325Z" fill="url(#paint27_linear_1807_48493)"/>
<path d="M78.4058 27.6258C80.6536 31.0862 82.6902 34.6816 84.4979 38.3943C85.3783 37.2975 86.2998 36.23 87.2564 35.1919C85.5133 31.1332 83.5002 27.1918 81.2406 23.3911C80.2428 24.7694 79.2979 26.1771 78.4058 27.6258Z" fill="url(#paint28_linear_1807_48493)"/>
<path d="M84.501 38.3943C86.5669 42.6232 88.3277 46.9928 89.7774 51.468C90.5287 50.6879 91.3034 49.9313 92.0957 49.1923C90.828 44.4121 89.214 39.7316 87.2595 35.1919C86.3028 36.2359 85.3814 37.2975 84.501 38.3943Z" fill="url(#paint29_linear_1807_48493)"/>
<path opacity="0.7" d="M66.8271 5.14434L67.1206 4.85107L67.4081 5.1502C70.0728 7.94793 72.5789 10.8981 74.909 13.9774C85.7845 28.3238 92.6515 45.2978 94.7937 63.1693C94.9463 64.4889 94.4533 65.8086 93.4732 66.7119L93.4556 66.7236C91.8885 56.8934 88.8776 47.3448 84.5109 38.3944C81.2066 31.6083 77.151 25.2152 72.4204 19.3324C70.6245 17.0919 68.7228 14.9276 66.7273 12.8337C64.6849 10.6635 64.7259 7.26756 66.8271 5.14434Z" fill="url(#paint30_radial_1807_48493)"/>
<path d="M106.623 51.474C105.872 50.6939 105.098 49.9373 104.305 49.1982C103.084 53.7907 102.192 58.4595 101.623 63.1752C101.47 64.4949 101.963 65.8145 102.944 66.7178L102.961 66.7295C103.783 61.5564 105.009 56.4536 106.623 51.474Z" fill="url(#paint31_linear_1807_48493)"/>
<path d="M111.899 38.3943C111.019 37.2975 110.097 36.23 109.141 35.1919C107.186 39.7316 105.572 44.4121 104.304 49.1923C105.097 49.9313 105.872 50.6879 106.623 51.468C108.072 46.9928 109.839 42.629 111.899 38.3943Z" fill="url(#paint32_linear_1807_48493)"/>
<path d="M115.163 23.397C112.904 27.1918 110.89 31.1333 109.147 35.1979C110.104 36.236 111.019 37.3035 111.906 38.4003C113.713 34.6876 115.75 31.0922 117.998 27.6317C117.106 26.1771 116.161 24.7694 115.163 23.397Z" fill="#EB3C03"/>
<path d="M129.588 5.15606L129.295 4.86279L129.007 5.16192C126.342 7.95964 123.836 10.904 121.506 13.9832C122.416 15.7252 123.243 17.5083 124.001 19.3382C125.802 17.0977 127.698 14.9334 129.694 12.8395C131.73 10.6635 131.683 7.27341 129.588 5.15606Z" fill="url(#paint33_linear_1807_48493)"/>
<path d="M121.516 13.9834C119.227 16.9981 117.108 20.1419 115.171 23.3971C116.163 24.7637 117.102 26.1772 117.994 27.6259C119.855 24.7637 121.856 21.9953 123.999 19.3325C123.247 17.5025 122.42 15.7195 121.516 13.9834Z" fill="url(#paint34_linear_1807_48493)"/>
<path d="M115.163 23.397C112.904 27.1918 110.89 31.1333 109.147 35.1979C110.104 36.236 111.019 37.3035 111.906 38.4003C113.713 34.6876 115.75 31.0922 117.998 27.6317C117.106 26.1771 116.161 24.7694 115.163 23.397Z" fill="url(#paint35_linear_1807_48493)"/>
<path d="M111.899 38.3943C111.019 37.2975 110.097 36.23 109.141 35.1919C107.186 39.7316 105.572 44.4121 104.304 49.1923C105.097 49.9313 105.872 50.6879 106.623 51.468C108.072 46.9928 109.839 42.629 111.899 38.3943Z" fill="url(#paint36_linear_1807_48493)"/>
<path opacity="0.7" d="M129.584 5.14433C131.685 7.26168 131.726 10.6635 129.678 12.8395C127.677 14.9334 125.781 17.0977 123.985 19.3382C119.254 25.2211 115.205 31.6142 111.894 38.4003C107.534 47.3506 104.517 56.8992 102.95 66.7294L102.932 66.7176C101.952 65.8144 101.465 64.5006 101.612 63.175C103.754 45.3036 110.615 28.3238 121.496 13.9832C123.832 10.904 126.333 7.95378 128.997 5.15606L129.285 4.85693L129.584 5.14433Z" fill="url(#paint37_radial_1807_48493)"/>
<path d="M623.152 57.2357C631.898 57.2357 638.989 50.1439 638.989 41.3957C638.989 32.6475 631.898 25.5557 623.152 25.5557C614.406 25.5557 607.316 32.6475 607.316 41.3957C607.316 50.1439 614.406 57.2357 623.152 57.2357Z" fill="#F9A825"/>
<path d="M497.346 25.5547L472.008 25.556V145.94H497.346V107.813H500.773C504.384 107.84 507.515 109.878 509.101 112.865L524.053 140.992C525.445 143.536 527.966 145.37 530.941 145.827C531.556 145.901 532.2 145.94 532.875 145.94H556.15L533.364 106.811C531.532 103.701 527.865 100.484 523.345 99.8932C526.879 98.8751 529.091 96.9553 531.226 94.0163L555.641 60.4039H531.99C531.28 60.4039 530.614 60.448 529.989 60.532C527.378 60.9563 525.124 62.4412 523.686 64.5341C523.678 64.5461 523.67 64.5563 523.662 64.5681L507.837 88.0349C506.111 90.4202 503.304 91.972 500.135 91.972H497.346L497.346 25.5547ZM291.339 25.556L244.749 145.94H265.397C266.121 145.936 266.842 145.85 267.547 145.682C267.738 145.639 267.927 145.59 268.116 145.535C268.363 145.464 268.604 145.384 268.841 145.294C269.42 145.073 269.967 144.797 270.48 144.463C270.524 144.435 270.567 144.406 270.611 144.377C270.738 144.291 270.865 144.201 270.988 144.107C270.991 144.104 270.993 144.103 270.995 144.101C272.731 142.833 273.946 140.701 274.553 138.939L280.578 121.438H331.019L337.044 138.939C337.65 140.701 338.866 142.833 340.602 144.101C340.604 144.105 340.606 144.105 340.608 144.107C340.732 144.201 340.858 144.29 340.986 144.377C341.03 144.406 341.073 144.435 341.117 144.463C341.63 144.797 342.176 145.074 342.756 145.294C342.992 145.384 343.234 145.464 343.481 145.535C343.669 145.59 343.859 145.639 344.05 145.682C344.755 145.85 345.476 145.936 346.199 145.94H366.848L320.258 25.556H291.339ZM569.309 25.556V145.94H594.647V25.556H569.309ZM305.798 48.1768L324.476 102.43H287.121L305.798 48.1768ZM610.484 60.3941V145.94H635.823V60.404C632.059 62.8751 627.656 64.1933 623.154 64.1969C618.65 64.1897 614.247 62.8687 610.484 60.3941ZM376.676 60.404V172.126H402.014V138.86C407.445 143.466 414.817 145.94 422.358 145.94C428.025 145.94 432.851 144.802 437.348 142.525C441.901 140.248 445.785 137.081 449.007 133.029C455.691 124.624 459.165 114.278 459.334 102.885C459.477 93.2463 456.794 81.3483 450.423 72.0655C447.771 68.2014 444.343 65.4021 440.512 63.403C436.682 61.4039 432.518 60.4039 428.021 60.4039C425.023 60.4039 422.246 60.7031 419.694 61.3203C417.194 61.9248 414.761 62.6544 412.615 63.9024C408.592 66.2412 405.166 68.9169 402.014 72.7319L401.213 68.2181C401.206 68.1781 401.216 68.2367 401.201 68.1569C400.38 63.7445 396.51 60.4039 391.86 60.4039L376.676 60.404ZM688.274 60.404C682.611 60.4163 677.666 61.1529 673.43 62.6308C662.746 66.3587 654.463 73.2322 654.463 86.139C654.463 98.3085 662.416 104.73 674.42 109.647C678.697 111.399 683.513 112.352 688.109 114.266C689.975 115.043 691.49 115.971 692.645 117.071C693.799 118.171 694.383 119.573 694.376 121.277C694.368 123.162 693.53 125.051 691.985 126.391C689.792 128.293 686.635 128.693 683.656 128.701C678.829 128.714 674.066 126.891 669.449 124.275C669.445 124.275 669.444 124.271 669.441 124.271C668.068 123.5 666.484 123.061 664.797 123.061C661.364 123.061 658.361 124.884 656.691 127.613L651.659 136.702C658.999 142.381 671.978 145.94 682.336 145.94C688.163 145.94 693.301 145.217 697.757 143.795C702.263 142.358 706.03 140.358 709.055 137.774C715.09 132.619 718.291 125.543 718.291 116.823C718.291 108.759 713.185 102.601 705.756 98.5945C703.418 97.334 700.973 96.3397 698.499 95.4599C696.025 94.5801 693.606 93.7827 691.242 93.0678C688.878 92.3529 686.762 91.6108 684.892 90.8409C683.023 90.0161 681.511 89.0809 680.357 88.0361C679.257 86.9913 678.707 85.6714 678.707 84.0767C678.707 81.8772 680.164 80.1725 681.868 78.9628C683.627 77.698 686.129 77.0565 689.372 77.0657C693.578 77.0776 697.706 78.7244 701.874 80.5709C703.024 81.0644 704.289 81.3388 705.619 81.3388C708.788 81.3388 711.594 79.787 713.321 77.4017C713.324 77.3981 713.326 77.3979 713.328 77.3955L717.796 71.4567C711.416 65.3044 698.69 60.3812 688.274 60.404ZM419.027 80.1452C422.849 80.1775 426.603 81.8953 428.854 85.5593C432.026 90.721 432.582 96.6771 432.685 102.885C432.779 108.647 431.233 115.72 427.938 121.035C426.735 122.975 424.773 124.588 422.774 125.532C420.776 126.476 418.583 126.949 416.195 126.949C413.697 126.949 411.301 126.557 409.034 125.699C406.748 124.835 403.957 122.762 402.014 120.596V88.3084C405.708 83.9832 412.423 80.0893 419.027 80.1452Z" fill="#1C1F24"/>
<defs>
<radialGradient id="paint0_radial_1807_48493" cx="0" cy="0" r="1" gradientUnits="userSpaceOnUse" gradientTransform="translate(87.6276 82.4066) rotate(-148.074) scale(110.91 69.1081)">
<stop stop-color="#EE7207"/>
<stop offset="0.84" stop-color="#F0E106"/>
</radialGradient>
<radialGradient id="paint1_radial_1807_48493" cx="0" cy="0" r="1" gradientUnits="userSpaceOnUse" gradientTransform="translate(84.9311 71.8097) rotate(169.941) scale(89.5941 100.293)">
<stop stop-color="#F15222"/>
<stop offset="1" stop-color="#FA7001"/>
</radialGradient>
<radialGradient id="paint2_radial_1807_48493" cx="0" cy="0" r="1" gradientUnits="userSpaceOnUse" gradientTransform="translate(52.8229 102.494) scale(44.5866 44.5566)">
<stop offset="0.44" stop-color="#F15222"/>
<stop offset="0.8" stop-color="#F6640E"/>
<stop offset="1" stop-color="#FA7001"/>
</radialGradient>
<radialGradient id="paint3_radial_1807_48493" cx="0" cy="0" r="1" gradientUnits="userSpaceOnUse" gradientTransform="translate(87.0142 111.541) scale(66.7935 66.7486)">
<stop offset="0.44" stop-color="#F15222"/>
<stop offset="0.8" stop-color="#F6640E"/>
<stop offset="1" stop-color="#FA7001"/>
</radialGradient>
<radialGradient id="paint4_radial_1807_48493" cx="0" cy="0" r="1" gradientUnits="userSpaceOnUse" gradientTransform="translate(99.3061 124.86) scale(69.2397 69.1932)">
<stop offset="0.44" stop-color="#F15222"/>
<stop offset="0.8" stop-color="#F6640E"/>
<stop offset="1" stop-color="#FA7001"/>
</radialGradient>
<radialGradient id="paint5_radial_1807_48493" cx="0" cy="0" r="1" gradientUnits="userSpaceOnUse" gradientTransform="translate(104.47 131.749) scale(62.769 62.7268)">
<stop offset="0.44" stop-color="#F15222"/>
<stop offset="0.8" stop-color="#F6640E"/>
<stop offset="1" stop-color="#FA7001"/>
</radialGradient>
<radialGradient id="paint6_radial_1807_48493" cx="0" cy="0" r="1" gradientUnits="userSpaceOnUse" gradientTransform="translate(98.0184 135.971) scale(43.6761 43.6468)">
<stop offset="0.44" stop-color="#F15222"/>
<stop offset="0.8" stop-color="#F6640E"/>
<stop offset="1" stop-color="#FA7001"/>
</radialGradient>
<radialGradient id="paint7_radial_1807_48493" cx="0" cy="0" r="1" gradientUnits="userSpaceOnUse" gradientTransform="translate(94.1878 145.506) scale(28.3256 28.3066)">
<stop offset="0.44" stop-color="#F15222"/>
<stop offset="0.8" stop-color="#F6640E"/>
<stop offset="1" stop-color="#FA7001"/>
</radialGradient>
<radialGradient id="paint8_radial_1807_48493" cx="0" cy="0" r="1" gradientUnits="userSpaceOnUse" gradientTransform="translate(93.6408 102.422) scale(128.246 128.16)">
<stop stop-color="#EE7207"/>
<stop offset="0.84" stop-color="#F0E106"/>
</radialGradient>
<radialGradient id="paint9_radial_1807_48493" cx="0" cy="0" r="1" gradientUnits="userSpaceOnUse" gradientTransform="translate(85.1731 102.565) scale(111.779 111.704)">
<stop stop-color="#EE7207"/>
<stop offset="0.78" stop-color="#F0E106"/>
</radialGradient>
<radialGradient id="paint10_radial_1807_48493" cx="0" cy="0" r="1" gradientUnits="userSpaceOnUse" gradientTransform="translate(67.3829 105.291) scale(63.9024 63.8595)">
<stop stop-color="#EE7207"/>
<stop offset="1" stop-color="#F0E106"/>
</radialGradient>
<radialGradient id="paint11_radial_1807_48493" cx="0" cy="0" r="1" gradientUnits="userSpaceOnUse" gradientTransform="translate(54.4729 108.291) scale(45.3335 45.303)">
<stop stop-color="#EE7207"/>
<stop offset="1" stop-color="#F0E106"/>
</radialGradient>
<radialGradient id="paint12_radial_1807_48493" cx="0" cy="0" r="1" gradientUnits="userSpaceOnUse" gradientTransform="translate(108.787 82.4065) rotate(-31.9264) scale(110.909 69.108)">
<stop stop-color="#EE7207"/>
<stop offset="0.84" stop-color="#F0E106"/>
</radialGradient>
<radialGradient id="paint13_radial_1807_48493" cx="0" cy="0" r="1" gradientUnits="userSpaceOnUse" gradientTransform="translate(111.481 71.8092) rotate(10.0588) scale(89.5941 100.293)">
<stop stop-color="#F15222"/>
<stop offset="1" stop-color="#FA7001"/>
</radialGradient>
<radialGradient id="paint14_radial_1807_48493" cx="0" cy="0" r="1" gradientUnits="userSpaceOnUse" gradientTransform="translate(143.595 102.493) rotate(180) scale(44.5866 44.5566)">
<stop offset="0.44" stop-color="#F15222"/>
<stop offset="0.8" stop-color="#F6640E"/>
<stop offset="1" stop-color="#FA7001"/>
</radialGradient>
<radialGradient id="paint15_radial_1807_48493" cx="0" cy="0" r="1" gradientUnits="userSpaceOnUse" gradientTransform="translate(109.378 111.526) rotate(180) scale(66.8078 66.7629)">
<stop offset="0.44" stop-color="#F15222"/>
<stop offset="0.8" stop-color="#F6640E"/>
<stop offset="1" stop-color="#FA7001"/>
</radialGradient>
<radialGradient id="paint16_radial_1807_48493" cx="0" cy="0" r="1" gradientUnits="userSpaceOnUse" gradientTransform="translate(97.107 124.859) rotate(180) scale(69.2397 69.193)">
<stop offset="0.44" stop-color="#F15222"/>
<stop offset="0.8" stop-color="#F6640E"/>
<stop offset="1" stop-color="#FA7001"/>
</radialGradient>
<radialGradient id="paint17_radial_1807_48493" cx="0" cy="0" r="1" gradientUnits="userSpaceOnUse" gradientTransform="translate(91.9438 131.742) rotate(180) scale(62.769 62.7268)">
<stop offset="0.44" stop-color="#F15222"/>
<stop offset="0.8" stop-color="#F6640E"/>
<stop offset="1" stop-color="#FA7001"/>
</radialGradient>
<radialGradient id="paint18_radial_1807_48493" cx="0" cy="0" r="1" gradientUnits="userSpaceOnUse" gradientTransform="translate(98.3985 135.971) rotate(180) scale(43.6761 43.6468)">
<stop offset="0.44" stop-color="#F15222"/>
<stop offset="0.8" stop-color="#F6640E"/>
<stop offset="1" stop-color="#FA7001"/>
</radialGradient>
<radialGradient id="paint19_radial_1807_48493" cx="0" cy="0" r="1" gradientUnits="userSpaceOnUse" gradientTransform="translate(102.223 145.505) rotate(180) scale(28.3256 28.3066)">
<stop offset="0.44" stop-color="#F15222"/>
<stop offset="0.8" stop-color="#F6640E"/>
<stop offset="1" stop-color="#FA7001"/>
</radialGradient>
<radialGradient id="paint20_radial_1807_48493" cx="0" cy="0" r="1" gradientUnits="userSpaceOnUse" gradientTransform="translate(102.776 102.422) rotate(180) scale(128.246 128.16)">
<stop stop-color="#EE7207"/>
<stop offset="0.84" stop-color="#F0E106"/>
</radialGradient>
<radialGradient id="paint21_radial_1807_48493" cx="0" cy="0" r="1" gradientUnits="userSpaceOnUse" gradientTransform="translate(111.239 102.565) rotate(180) scale(111.779 111.704)">
<stop stop-color="#EE7207"/>
<stop offset="0.78" stop-color="#F0E106"/>
</radialGradient>
<radialGradient id="paint22_radial_1807_48493" cx="0" cy="0" r="1" gradientUnits="userSpaceOnUse" gradientTransform="translate(129.03 105.289) rotate(180) scale(63.9024 63.8594)">
<stop stop-color="#EE7207"/>
<stop offset="1" stop-color="#F0E106"/>
</radialGradient>
<radialGradient id="paint23_radial_1807_48493" cx="0" cy="0" r="1" gradientUnits="userSpaceOnUse" gradientTransform="translate(141.941 108.3) rotate(180) scale(45.3335 45.303)">
<stop stop-color="#EE7207"/>
<stop offset="1" stop-color="#F0E106"/>
</radialGradient>
<linearGradient id="paint24_linear_1807_48493" x1="91.491" y1="48.5942" x2="93.1388" y2="66.8745" gradientUnits="userSpaceOnUse">
<stop stop-color="#EE7207"/>
<stop offset="1" stop-color="#EB3C03"/>
</linearGradient>
<linearGradient id="paint25_linear_1807_48493" x1="93.3482" y1="43.2992" x2="83.5922" y2="43.371" gradientUnits="userSpaceOnUse">
<stop stop-color="#F0E106"/>
<stop offset="1" stop-color="#EB3C03"/>
</linearGradient>
<linearGradient id="paint26_linear_1807_48493" x1="67.2242" y1="4.10711" x2="72.7651" y2="19.5936" gradientUnits="userSpaceOnUse">
<stop stop-color="#EE7207"/>
<stop offset="1" stop-color="#EB3C03"/>
</linearGradient>
<linearGradient id="paint27_linear_1807_48493" x1="74.8984" y1="13.5625" x2="78.4328" y2="27.9486" gradientUnits="userSpaceOnUse">
<stop stop-color="#EE7207"/>
<stop offset="1" stop-color="#EB3C03"/>
</linearGradient>
<linearGradient id="paint28_linear_1807_48493" x1="81.3063" y1="22.8773" x2="84.1242" y2="38.6488" gradientUnits="userSpaceOnUse">
<stop stop-color="#EE7207"/>
<stop offset="1" stop-color="#EB3C03"/>
</linearGradient>
<linearGradient id="paint29_linear_1807_48493" x1="87.3444" y1="35.2064" x2="89.1115" y2="51.1689" gradientUnits="userSpaceOnUse">
<stop stop-color="#EE7207"/>
<stop offset="1" stop-color="#EB3C03"/>
</linearGradient>
<radialGradient id="paint30_radial_1807_48493" cx="0" cy="0" r="1" gradientUnits="userSpaceOnUse" gradientTransform="translate(98.1024 68.8688) scale(72.7002 72.6515)">
<stop stop-color="#F2551F"/>
<stop offset="1" stop-color="#F0E106"/>
</radialGradient>
<linearGradient id="paint31_linear_1807_48493" x1="104.911" y1="48.5942" x2="103.263" y2="66.8745" gradientUnits="userSpaceOnUse">
<stop stop-color="#EE7207"/>
<stop offset="1" stop-color="#EB3C03"/>
</linearGradient>
<linearGradient id="paint32_linear_1807_48493" x1="103.051" y1="43.2992" x2="112.807" y2="43.371" gradientUnits="userSpaceOnUse">
<stop stop-color="#F0E106"/>
<stop offset="1" stop-color="#EB3C03"/>
</linearGradient>
<linearGradient id="paint33_linear_1807_48493" x1="129.175" y1="4.1027" x2="123.634" y2="19.5893" gradientUnits="userSpaceOnUse">
<stop stop-color="#EE7207"/>
<stop offset="1" stop-color="#EB3C03"/>
</linearGradient>
<linearGradient id="paint34_linear_1807_48493" x1="121.508" y1="13.5625" x2="117.974" y2="27.9486" gradientUnits="userSpaceOnUse">
<stop stop-color="#EE7207"/>
<stop offset="1" stop-color="#EB3C03"/>
</linearGradient>
<linearGradient id="paint35_linear_1807_48493" x1="115.096" y1="22.8773" x2="112.278" y2="38.649" gradientUnits="userSpaceOnUse">
<stop stop-color="#EE7207"/>
<stop offset="1" stop-color="#EB3C03"/>
</linearGradient>
<linearGradient id="paint36_linear_1807_48493" x1="109.055" y1="35.2064" x2="107.288" y2="51.1689" gradientUnits="userSpaceOnUse">
<stop stop-color="#EE7207"/>
<stop offset="1" stop-color="#EB3C03"/>
</linearGradient>
<radialGradient id="paint37_radial_1807_48493" cx="0" cy="0" r="1" gradientUnits="userSpaceOnUse" gradientTransform="translate(98.3078 68.8687) rotate(180) scale(72.7004 72.6514)">
<stop stop-color="#F2551F"/>
<stop offset="1" stop-color="#F0E106"/>
</radialGradient>
</defs>
</svg>
