<svg width="231" height="64" viewBox="0 0 231 64" fill="none" xmlns="http://www.w3.org/2000/svg">
<path d="M54.388 33.2661C55.0835 33.0446 55.7611 32.7709 56.4133 32.4438C56.9076 32.1981 57.3865 31.9232 57.8476 31.6215C56.5203 25.1969 52.397 19.7932 46.8075 16.7356C45.1274 15.9285 43.2447 15.5976 41.7505 15.5899C40.5888 15.5849 39.6628 15.7745 39.2526 16.0877C38.8106 16.425 38.5303 17.283 38.4526 18.2746C38.394 19.0409 38.4565 19.8887 38.6603 20.6372C38.8271 21.2508 38.952 21.8732 39.0335 22.5033C39.0335 22.5033 39.1545 23.7457 39.1545 24.3695C39.1545 24.8277 39.1329 25.2796 39.0908 25.7264C39.0615 26.0409 39.0564 26.3578 39.0768 26.6735C39.18 28.3284 39.9825 29.8597 41.283 30.8895C43.7861 32.8639 46.884 33.937 50.0723 33.9319C50.5283 33.9319 51.4264 33.8682 51.4264 33.8682C52.4327 33.7753 53.425 33.5716 54.388 33.2661Z" fill="url(#paint0_radial_2286_19006)"/>
<path d="M52.8033 27.3809C48.7641 27.3809 45.1184 29.065 42.5313 31.7687C42.5313 31.7687 42.5313 31.7687 42.5301 31.7687C42.4587 31.8438 42.3887 31.9202 42.3186 31.9966C42.0027 32.3403 41.7046 32.7005 41.4244 33.0748C41.4231 33.076 41.4219 33.0786 41.4193 33.0799C41.2996 33.2403 41.1824 33.4019 41.069 33.5674C40.1366 34.9244 39.8194 36.6098 40.1939 38.2124C40.4347 39.2333 40.7875 40.2237 41.2486 41.1669C41.7734 42.2426 42.432 43.2469 43.209 44.1571C43.8548 44.9157 44.5784 45.6044 45.3681 46.2116V46.2103C46.0929 46.7679 46.8699 47.2554 47.6877 47.664C47.782 47.7111 47.8775 47.757 47.9718 47.8015C48.7157 48.1541 49.522 48.3578 50.3436 48.4036C53.1078 48.5487 55.6579 46.9245 56.6961 44.3607C57.1597 43.2164 57.5253 42.0363 57.789 40.8309V40.8296C58.0183 39.7845 58.1712 38.7254 58.2463 37.6587C58.2832 37.138 58.3011 36.6123 58.3024 36.0827C58.3024 35.7238 58.2934 35.3674 58.2769 35.0122C58.2399 34.2281 58.1635 33.4465 58.0425 32.6712V32.6687C57.9317 31.9495 57.7839 31.2366 57.6005 30.5314C57.3712 29.6505 57.0871 28.7849 56.7509 27.9384C55.4681 27.5667 54.1396 27.3796 52.8033 27.3809Z" fill="url(#paint1_radial_2286_19006)"/>
<path d="M40.1953 38.2111C40.4361 39.232 40.7889 40.2224 41.2501 41.1656L57.6032 30.5301C57.3739 29.6493 57.0899 28.7837 56.7536 27.9371C55.4696 27.5667 54.141 27.3796 52.8048 27.3809C47.9325 27.3809 43.6321 29.8313 41.0717 33.5661C40.138 34.9231 39.8208 36.6098 40.1953 38.2111Z" fill="url(#paint2_radial_2286_19006)"/>
<path d="M43.2112 44.1545L58.0332 32.6738C58.0357 32.6725 58.037 32.6687 58.0357 32.6661C57.9249 31.9494 57.7771 31.2404 57.5963 30.539C57.595 30.5365 57.5924 30.5339 57.5899 30.5327C56.7543 30.3824 55.9072 30.3073 55.0588 30.3086C48.3637 30.3086 42.7539 34.9358 41.2495 41.1656C41.2521 41.1783 42.3692 43.2125 43.201 44.1545C43.2023 44.157 43.2074 44.157 43.2112 44.1545Z" fill="url(#paint3_radial_2286_19006)"/>
<path d="M43.2104 44.1551C43.8563 44.9138 44.5798 45.6025 45.3696 46.2097L58.2796 35.0128C58.2426 34.2274 58.1637 33.4458 58.0427 32.6693C57.7535 32.6515 57.4618 32.6426 57.1676 32.6426C50.2393 32.64 44.4677 37.5956 43.2104 44.1551Z" fill="url(#paint4_radial_2286_19006)"/>
<path d="M45.3691 46.2099C46.0939 46.7687 46.871 47.255 47.69 47.6636L58.2499 37.6582C58.2868 37.1375 58.3046 36.6118 58.3059 36.0823C58.3059 35.7233 58.297 35.3669 58.2804 35.0117C51.8936 35.4509 46.6684 40.1048 45.3691 46.2099Z" fill="url(#paint5_radial_2286_19006)"/>
<path d="M47.975 47.7984C48.7189 48.1511 49.5253 48.3547 50.3469 48.4006L57.7923 40.8265C58.0215 39.7814 58.1744 38.721 58.2496 37.6543C53.1543 38.7961 49.0934 42.6723 47.6897 47.6597C47.691 47.6597 47.8795 47.7539 47.975 47.7984Z" fill="url(#paint6_radial_2286_19006)"/>
<path d="M50.3457 48.4009C53.1099 48.5461 55.66 46.9218 56.6982 44.358C57.1618 43.2136 57.5274 42.0336 57.7911 40.8281C54.427 42.2997 51.7596 45.0123 50.3457 48.4009Z" fill="url(#paint7_radial_2286_19006)"/>
<path opacity="0.4" d="M53.2873 33.5688C52.5676 33.7457 51.8402 33.8857 51.1065 33.9889C47.629 34.4789 44.284 34.1098 41.4192 33.0787C41.7631 32.6204 42.1338 32.1826 42.5299 31.7676L53.2873 33.5688Z" fill="black"/>
<path d="M38.4529 18.2738L56.4136 32.4431C56.9078 32.1974 57.3868 31.9224 57.8479 31.6207C56.5206 25.1961 52.3973 19.7925 46.8078 16.7348C43.822 15.3002 40.1904 15.3715 39.2528 16.0869C38.8108 16.4242 38.5306 17.2822 38.4529 18.2738Z" fill="url(#paint8_radial_2286_19006)"/>
<path d="M38.6612 20.6393C38.8281 21.2515 38.9529 21.8753 39.0357 22.5054L54.3889 33.2669C55.0844 33.0454 55.7621 32.7705 56.4155 32.4446C53.5864 24.8871 46.7295 19.2938 38.4549 18.2754C38.3937 19.043 38.4574 19.8895 38.6612 20.6393Z" fill="url(#paint9_radial_2286_19006)"/>
<path d="M39.0919 25.7264C39.0626 26.0408 39.0575 26.3578 39.0779 26.6735L51.4274 33.8682C52.4338 33.774 53.4273 33.5729 54.3903 33.2674C51.1829 27.6906 45.6087 23.6464 39.0371 22.5059C39.1186 23.1245 39.1581 23.747 39.1581 24.3707C39.1556 24.8265 39.1339 25.2783 39.0919 25.7264Z" fill="url(#paint10_radial_2286_19006)"/>
<path d="M39.0774 26.6738C39.1806 28.3287 39.9831 29.86 41.2836 30.8898C43.7867 32.8642 46.8846 33.9373 50.0729 33.9322C50.5289 33.9322 50.9798 33.9105 51.4244 33.8685C48.222 30.1668 43.8784 27.6362 39.0774 26.6738Z" fill="url(#paint11_radial_2286_19006)"/>
<path d="M64.8786 33.2648C65.8428 33.5716 66.8351 33.774 67.8414 33.8682C67.8414 33.8682 68.7382 33.9319 69.1955 33.9319C72.3851 33.937 75.4817 32.8639 77.9848 30.8895C79.2853 29.861 80.0865 28.3283 80.191 26.6735C80.2114 26.3578 80.2063 26.0409 80.177 25.7264C80.1337 25.2796 80.1133 24.8265 80.1133 24.3695C80.1133 23.7457 80.2343 22.5033 80.2343 22.5033C80.3171 21.8732 80.4419 21.2507 80.6075 20.6372C80.8113 19.8874 80.8738 19.0409 80.8152 18.2746C80.7387 17.2817 80.4585 16.4237 80.0152 16.0877C79.605 15.7745 78.679 15.5849 77.5173 15.5899C76.0231 15.5976 74.1404 15.9273 72.4603 16.7356C66.8695 19.7932 62.7475 25.1969 61.4202 31.6215C61.8813 31.9231 62.3602 32.1981 62.8545 32.4438C63.5054 32.7684 64.1831 33.0433 64.8786 33.2648Z" fill="url(#paint12_radial_2286_19006)"/>
<path d="M66.4632 27.3789C65.127 27.3776 63.7984 27.5648 62.5144 27.9352C62.1768 28.7804 61.8928 29.6473 61.6648 30.5282C61.4813 31.2334 61.3348 31.9463 61.2227 32.6655V32.668C61.1017 33.4445 61.0253 34.2248 60.9884 35.009C60.9705 35.3641 60.9629 35.7206 60.9629 36.0795C60.9629 36.6091 60.982 37.1348 61.0189 37.6554C61.0941 38.7222 61.247 39.7813 61.4762 40.8264V40.8276C61.7399 42.0331 62.1055 43.2144 62.5692 44.3575C63.6073 46.9212 66.1575 48.5455 68.9216 48.4004C69.7432 48.3546 70.5496 48.1509 71.2935 47.7983C71.389 47.7537 71.4833 47.7079 71.5775 47.6608C72.3966 47.2522 73.1723 46.7659 73.8971 46.2071V46.2084C74.6869 45.6012 75.4104 44.9125 76.0562 44.1538C76.8332 43.2437 77.4918 42.2393 78.0166 41.1637C78.4765 40.2217 78.8306 39.2301 79.0713 38.2092C79.4458 36.6065 79.1286 34.9211 78.1962 33.5642C78.0829 33.3987 77.9657 33.237 77.8459 33.0766C77.8447 33.0754 77.8434 33.0728 77.8408 33.0715C77.5606 32.6973 77.2612 32.3383 76.9466 31.9934C76.8766 31.917 76.8065 31.8406 76.7352 31.7655C76.7352 31.7655 76.7352 31.7655 76.7339 31.7655C74.1481 29.063 70.5024 27.3789 66.4632 27.3789Z" fill="url(#paint13_radial_2286_19006)"/>
<path d="M78.1982 33.5661C75.6379 29.8313 71.3375 27.3809 66.4652 27.3809C65.129 27.3796 63.8004 27.5667 62.5164 27.9371C62.1788 28.7824 61.8948 29.6493 61.6667 30.5301C62.5036 30.3799 63.352 30.3036 64.2029 30.3048C70.9006 30.3048 76.5155 34.9346 78.0199 41.1656C78.4797 40.2237 78.8338 39.232 79.0746 38.2111C79.4478 36.6085 79.1294 34.9218 78.1982 33.5661Z" fill="url(#paint14_radial_2286_19006)"/>
<path d="M78.0189 41.1635C76.5158 34.9325 70.8996 30.3027 64.2045 30.3027C63.3536 30.3027 62.5052 30.3778 61.6683 30.528C61.4849 31.2333 61.3371 31.9461 61.2263 32.6653C61.5155 32.6475 61.8072 32.6386 62.1014 32.6386C69.0297 32.6386 74.8026 37.5955 76.0598 44.1537C76.8356 43.2435 77.4941 42.2392 78.0189 41.1635Z" fill="url(#paint15_radial_2286_19006)"/>
<path d="M62.0991 32.6406C61.8048 32.6406 61.5131 32.6495 61.224 32.6674C61.103 33.4439 61.024 34.2267 60.9871 35.0109C67.3727 35.45 72.5965 40.1039 73.8971 46.2077C74.6869 45.6005 75.4104 44.9118 76.0562 44.1532C74.8002 37.5962 69.0273 32.6394 62.0991 32.6406Z" fill="url(#paint16_radial_2286_19006)"/>
<path d="M73.8974 46.2086C72.5981 40.1035 67.373 35.4509 60.9874 35.0117C60.9696 35.3669 60.9619 35.7233 60.9619 36.0823C60.9619 36.6118 60.981 37.1375 61.018 37.6582C66.1106 38.8 70.1741 42.6749 71.5778 47.6636C72.3956 47.2537 73.1726 46.7661 73.8974 46.2086Z" fill="url(#paint17_radial_2286_19006)"/>
<path d="M71.5774 47.6597C70.1737 42.6723 66.1128 38.7961 61.0176 37.6543C61.0927 38.721 61.2456 39.7814 61.4749 40.8265C64.8403 42.2993 67.5076 45.0119 68.9203 48.4005C69.7419 48.3547 70.5482 48.151 71.2921 47.7984C71.3876 47.7539 71.4832 47.7081 71.5774 47.6597Z" fill="url(#paint18_radial_2286_19006)"/>
<path d="M61.4749 40.8281C61.7385 42.0336 62.1041 43.2149 62.5678 44.358C63.6059 46.9218 66.1561 48.546 68.9203 48.4009C67.5076 45.0123 64.8403 42.2997 61.4749 40.8281Z" fill="url(#paint19_radial_2286_19006)"/>
<path opacity="0.4" d="M76.7368 31.7676C77.133 32.1826 77.5036 32.6192 77.8476 33.0787C74.9815 34.111 71.6377 34.4789 68.1603 33.9888C67.4265 33.8857 66.6992 33.7457 65.9795 33.5688L76.7368 31.7676Z" fill="black"/>
<path d="M80.8142 18.2742C80.7377 17.2813 80.4575 16.4234 80.0142 16.0873C79.0754 15.3719 75.4451 15.2993 72.4593 16.7352C66.8685 19.7929 62.7465 25.1965 61.4192 31.6211C61.8803 31.9228 62.3593 32.1978 62.8535 32.4434C65.6839 24.8859 72.5395 19.2939 80.8142 18.2742Z" fill="url(#paint20_radial_2286_19006)"/>
<path d="M80.814 18.2734C72.5393 19.2918 65.6824 24.8851 62.8533 32.4426C63.5067 32.7685 64.1831 33.0435 64.8799 33.265C68.0874 27.6882 73.6615 23.644 80.2331 22.5034C80.3159 21.8733 80.4407 21.2509 80.6076 20.6373C80.8102 19.8875 80.8726 19.041 80.814 18.2734Z" fill="url(#paint21_radial_2286_19006)"/>
<path d="M80.176 25.7257C80.1327 25.2789 80.1123 24.8258 80.1123 24.3688C80.1123 23.745 80.1531 23.1226 80.2333 22.5039C73.6618 23.6445 68.0863 27.6886 64.8801 33.2654C65.8431 33.5709 66.8367 33.7733 67.843 33.8663C71.0466 30.1645 75.3903 27.6339 80.1926 26.6715C80.2104 26.3571 80.2053 26.0414 80.176 25.7257Z" fill="url(#paint22_radial_2286_19006)"/>
<path d="M67.8425 33.8685C68.2871 33.9106 68.738 33.9322 69.194 33.9322C72.3837 33.9373 75.4803 32.8642 77.9833 30.8898C79.2839 29.8613 80.0851 28.3287 80.1896 26.6738C75.3886 27.6362 71.0449 30.1681 67.8425 33.8685Z" fill="url(#paint23_radial_2286_19006)"/>
<path d="M57.8044 23.5213C58.156 24.6033 58.421 25.7095 58.6006 26.8322L58.6044 26.8297C58.8171 26.6336 58.9229 26.3485 58.891 26.0608C58.7687 25.0373 58.5738 24.0241 58.3089 23.0273C58.1356 23.1877 57.9675 23.3519 57.8044 23.5213Z" fill="url(#paint24_linear_2286_19006)"/>
<path d="M56.6589 20.6814C57.1073 21.5992 57.4895 22.5475 57.8041 23.5188C57.9671 23.3495 58.1353 23.1853 58.3073 23.0249C58.0321 21.9874 57.6818 20.9716 57.2576 19.9863C57.05 20.2129 56.85 20.4433 56.6589 20.6814Z" fill="url(#paint25_linear_2286_19006)"/>
<path d="M55.3359 18.3448C55.8238 19.0959 56.2658 19.8762 56.6581 20.682C56.8492 20.4439 57.0492 20.2122 57.2568 19.9869C56.8785 19.1061 56.4416 18.2506 55.9512 17.4258C55.7346 17.7249 55.5296 18.0304 55.3359 18.3448Z" fill="#EB3C03"/>
<path d="M52.7969 15.1355C53.2299 15.5899 53.6414 16.0597 54.0324 16.5459C54.1955 16.1488 54.3764 15.7618 54.5738 15.3837C54.0668 14.7154 53.5242 14.0764 52.9459 13.4692L52.8835 13.4043L52.8198 13.4679C52.365 13.9287 52.3548 14.6645 52.7969 15.1355Z" fill="url(#paint26_linear_2286_19006)"/>
<path d="M54.0332 16.5457C54.4981 17.1236 54.9325 17.7244 55.3363 18.3456C55.5299 18.0312 55.7337 17.7257 55.949 17.4278C55.5287 16.7214 55.0688 16.0391 54.572 15.3848C54.3771 15.7616 54.1975 16.1485 54.0332 16.5457Z" fill="url(#paint27_linear_2286_19006)"/>
<path d="M55.3359 18.3448C55.8238 19.0959 56.2658 19.8762 56.6581 20.682C56.8492 20.4439 57.0492 20.2122 57.2568 19.9869C56.8785 19.1061 56.4416 18.2506 55.9512 17.4258C55.7346 17.7249 55.5296 18.0304 55.3359 18.3448Z" fill="url(#paint28_linear_2286_19006)"/>
<path d="M56.6589 20.6814C57.1073 21.5992 57.4895 22.5475 57.8041 23.5188C57.9671 23.3495 58.1353 23.1853 58.3073 23.0249C58.0321 21.9874 57.6818 20.9716 57.2576 19.9863C57.05 20.2129 56.85 20.4433 56.6589 20.6814Z" fill="url(#paint29_linear_2286_19006)"/>
<path opacity="0.7" d="M52.823 13.466L52.8867 13.4023L52.9491 13.4673C53.5274 14.0745 54.0713 14.7148 54.577 15.3831C56.9374 18.4967 58.4278 22.1806 58.8927 26.0593C58.9258 26.3457 58.8188 26.6321 58.6061 26.8282L58.6023 26.8307C58.2622 24.6973 57.6087 22.6249 56.661 20.6824C55.9438 19.2096 55.0636 17.822 54.037 16.5453C53.6472 16.059 53.2345 15.5893 52.8014 15.1348C52.3581 14.6638 52.367 13.9268 52.823 13.466Z" fill="url(#paint30_radial_2286_19006)"/>
<path d="M61.4603 23.5213C61.2973 23.3519 61.1291 23.1877 60.9572 23.0273C60.6922 24.0241 60.4986 25.0373 60.3751 26.0608C60.342 26.3472 60.4489 26.6336 60.6617 26.8297L60.6655 26.8322C60.8438 25.7095 61.11 24.602 61.4603 23.5213Z" fill="url(#paint31_linear_2286_19006)"/>
<path d="M62.6053 20.6833C62.4143 20.4453 62.2143 20.2136 62.0066 19.9883C61.5825 20.9735 61.2322 21.9894 60.957 23.0268C61.129 23.1872 61.2971 23.3514 61.4602 23.5207C61.7748 22.5495 62.1582 21.6024 62.6053 20.6833Z" fill="url(#paint32_linear_2286_19006)"/>
<path d="M63.3137 17.4277C62.8233 18.2513 62.3864 19.1068 62.0081 19.9889C62.2157 20.2142 62.4144 20.4459 62.6067 20.684C62.9991 19.8782 63.4411 19.0979 63.929 18.3468C63.7353 18.0311 63.5303 17.7256 63.3137 17.4277Z" fill="#EB3C03"/>
<path d="M66.4442 13.4699L66.3805 13.4062L66.3181 13.4712C65.7398 14.0784 65.1959 14.7174 64.6902 15.3857C64.8876 15.7638 65.0672 16.1507 65.2316 16.5479C65.6226 16.0616 66.0341 15.5919 66.4672 15.1375C66.9092 14.6652 66.899 13.9294 66.4442 13.4699Z" fill="url(#paint33_linear_2286_19006)"/>
<path d="M64.6924 15.3848C64.1956 16.0391 63.7358 16.7214 63.3154 17.4278C63.5307 17.7244 63.7345 18.0312 63.9281 18.3456C64.3319 17.7244 64.7663 17.1236 65.2312 16.5457C65.0682 16.1485 64.8886 15.7616 64.6924 15.3848Z" fill="url(#paint34_linear_2286_19006)"/>
<path d="M63.3137 17.4277C62.8233 18.2513 62.3864 19.1068 62.0081 19.9889C62.2157 20.2142 62.4144 20.4459 62.6067 20.684C62.9991 19.8782 63.4411 19.0979 63.929 18.3468C63.7353 18.0311 63.5303 17.7256 63.3137 17.4277Z" fill="url(#paint35_linear_2286_19006)"/>
<path d="M62.6053 20.6833C62.4143 20.4453 62.2143 20.2136 62.0066 19.9883C61.5825 20.9735 61.2322 21.9894 60.957 23.0268C61.129 23.1872 61.2971 23.3514 61.4602 23.5207C61.7748 22.5495 62.1582 21.6024 62.6053 20.6833Z" fill="url(#paint36_linear_2286_19006)"/>
<path opacity="0.7" d="M66.4435 13.4667C66.8995 13.9262 66.9084 14.6645 66.4639 15.1368C66.0295 15.5912 65.6181 16.0609 65.2283 16.5472C64.2016 17.824 63.3227 19.2115 62.6042 20.6843C61.6578 22.6268 61.0031 24.6992 60.6629 26.8327L60.6591 26.8301C60.4464 26.6341 60.3407 26.3489 60.3725 26.0612C60.8375 22.1826 62.3265 18.4974 64.6882 15.385C65.1952 14.7167 65.7378 14.0764 66.3161 13.4692L66.3785 13.4043L66.4435 13.4667Z" fill="url(#paint37_radial_2286_19006)"/>
<path d="M173.564 24.7701C175.462 24.7701 177.001 23.231 177.001 21.3323C177.001 19.4337 175.462 17.8945 173.564 17.8945C171.666 17.8945 170.127 19.4337 170.127 21.3323C170.127 23.231 171.666 24.7701 173.564 24.7701Z" fill="#F9A825"/>
<path d="M146.26 17.8945L140.761 17.8948V44.0221H146.26V35.7473H147.004C147.787 35.7531 148.467 36.1954 148.811 36.8437L152.056 42.9483C152.358 43.5003 152.905 43.8985 153.551 43.9975C153.685 44.0136 153.824 44.0221 153.971 44.0221H159.022L154.077 35.5298C153.679 34.8549 152.884 34.1567 151.903 34.0284C152.67 33.8075 153.15 33.3908 153.613 32.753L158.912 25.458H153.779C153.625 25.458 153.48 25.4675 153.344 25.4858C152.778 25.5778 152.289 25.9001 151.977 26.3543C151.975 26.3569 151.973 26.3592 151.971 26.3617L148.537 31.4548C148.162 31.9725 147.553 32.3093 146.865 32.3093H146.26L146.26 17.8945ZM101.55 17.8948L91.438 44.0221H95.9194C96.0765 44.0213 96.233 44.0025 96.3858 43.9661C96.4273 43.9568 96.4685 43.9462 96.5094 43.9343C96.563 43.9189 96.6155 43.9014 96.6667 43.8819C96.7925 43.8341 96.9112 43.774 97.0225 43.7016C97.032 43.6954 97.0414 43.6892 97.0508 43.6829C97.0786 43.6641 97.106 43.6447 97.1329 43.6244C97.1334 43.6236 97.1338 43.6235 97.1343 43.623C97.511 43.3477 97.7749 42.8851 97.9065 42.5028L99.2142 38.7043H110.161L111.469 42.5028C111.601 42.8851 111.865 43.3477 112.241 43.623C112.242 43.6238 112.242 43.6238 112.243 43.6244C112.27 43.6447 112.297 43.6641 112.325 43.6829C112.334 43.6892 112.344 43.6955 112.353 43.7016C112.464 43.774 112.583 43.8341 112.709 43.8819C112.76 43.9014 112.813 43.9189 112.866 43.9343C112.907 43.9462 112.948 43.9568 112.99 43.9661C113.143 44.0025 113.299 44.0213 113.456 44.0221H117.938L107.826 17.8948H101.55ZM161.878 17.8948V44.0221H167.377V17.8948H161.878ZM104.688 22.8043L108.741 34.579H100.634L104.688 22.8043ZM170.815 25.4558V44.0221H176.314V25.458C175.497 25.9943 174.541 26.2804 173.564 26.2812C172.587 26.2796 171.631 25.9929 170.815 25.4558ZM120.071 25.458V49.7054H125.57V42.4856C126.748 43.4852 128.348 44.0221 129.985 44.0221C131.215 44.0221 132.262 43.7751 133.238 43.281C134.226 42.7868 135.07 42.0995 135.769 41.22C137.219 39.3959 137.973 37.1505 138.01 34.6777C138.041 32.5859 137.459 30.0036 136.076 27.9889C135.5 27.1503 134.757 26.5427 133.925 26.1089C133.094 25.675 132.19 25.458 131.214 25.458C130.563 25.458 129.961 25.5229 129.407 25.6569C128.864 25.788 128.336 25.9464 127.87 26.2172C126.997 26.7248 126.254 27.3056 125.57 28.1335L125.396 27.1539C125.394 27.1452 125.397 27.1579 125.393 27.1406C125.215 26.183 124.375 25.458 123.366 25.458L120.071 25.458ZM187.698 25.458C186.469 25.4606 185.395 25.6205 184.476 25.9413C182.157 26.7504 180.359 28.2421 180.359 31.0433C180.359 33.6845 182.086 35.0782 184.691 36.1454C185.619 36.5257 186.664 36.7325 187.662 37.1479C188.067 37.3165 188.396 37.5179 188.646 37.7566C188.897 37.9953 189.023 38.2995 189.022 38.6695C189.02 39.0786 188.838 39.4884 188.503 39.7794C188.027 40.1921 187.342 40.2789 186.695 40.2807C185.648 40.2836 184.614 39.8879 183.612 39.3201C183.611 39.3201 183.611 39.3193 183.61 39.3193C183.312 39.152 182.968 39.0566 182.602 39.0566C181.857 39.0566 181.205 39.4524 180.843 40.0446L179.751 42.0172C181.344 43.2496 184.161 44.0221 186.409 44.0221C187.674 44.0221 188.789 43.8652 189.756 43.5567C190.734 43.2447 191.551 42.8106 192.208 42.2499C193.518 41.1311 194.212 39.5952 194.212 37.7029C194.212 35.9526 193.104 34.6162 191.492 33.7466C190.984 33.473 190.454 33.2572 189.917 33.0663C189.38 32.8753 188.855 32.7023 188.342 32.5471C187.829 32.392 187.369 32.2309 186.964 32.0638C186.558 31.8848 186.23 31.6818 185.979 31.4551C185.741 31.2283 185.621 30.9418 185.621 30.5957C185.621 30.1184 185.937 29.7484 186.307 29.4858C186.689 29.2113 187.232 29.0721 187.936 29.0741C188.849 29.0767 189.745 29.4341 190.649 29.8349C190.899 29.942 191.173 30.0015 191.462 30.0015C192.15 30.0015 192.759 29.6647 193.134 29.147C193.134 29.1463 193.135 29.1462 193.135 29.1457L194.105 27.8568C192.72 26.5215 189.958 25.453 187.698 25.458ZM129.262 29.7425C130.092 29.7495 130.906 30.1223 131.395 30.9175C132.083 32.0378 132.204 33.3304 132.226 34.6777C132.247 35.9282 131.911 37.4634 131.196 38.6168C130.935 39.0379 130.509 39.3881 130.075 39.593C129.642 39.7979 129.166 39.9004 128.648 39.9004C128.105 39.9004 127.585 39.8153 127.093 39.6292C126.597 39.4417 125.992 38.9917 125.57 38.5216V31.5141C126.372 30.5754 127.829 29.7303 129.262 29.7425Z" fill="#1C1F24"/>
<defs>
<radialGradient id="paint0_radial_2286_19006" cx="0" cy="0" r="1" gradientUnits="userSpaceOnUse" gradientTransform="translate(57.3374 30.2351) rotate(-148.074) scale(24.071 14.9987)">
<stop stop-color="#EE7207"/>
<stop offset="0.84" stop-color="#F0E106"/>
</radialGradient>
<radialGradient id="paint1_radial_2286_19006" cx="0" cy="0" r="1" gradientUnits="userSpaceOnUse" gradientTransform="translate(56.7523 27.9361) rotate(169.941) scale(19.4449 21.7668)">
<stop stop-color="#F15222"/>
<stop offset="1" stop-color="#FA7001"/>
</radialGradient>
<radialGradient id="paint2_radial_2286_19006" cx="0" cy="0" r="1" gradientUnits="userSpaceOnUse" gradientTransform="translate(49.7837 34.5955) scale(9.67677 9.67026)">
<stop offset="0.44" stop-color="#F15222"/>
<stop offset="0.8" stop-color="#F6640E"/>
<stop offset="1" stop-color="#FA7001"/>
</radialGradient>
<radialGradient id="paint3_radial_2286_19006" cx="0" cy="0" r="1" gradientUnits="userSpaceOnUse" gradientTransform="translate(57.2042 36.5578) scale(14.4964 14.4867)">
<stop offset="0.44" stop-color="#F15222"/>
<stop offset="0.8" stop-color="#F6640E"/>
<stop offset="1" stop-color="#FA7001"/>
</radialGradient>
<radialGradient id="paint4_radial_2286_19006" cx="0" cy="0" r="1" gradientUnits="userSpaceOnUse" gradientTransform="translate(59.8722 39.449) scale(15.0273 15.0172)">
<stop offset="0.44" stop-color="#F15222"/>
<stop offset="0.8" stop-color="#F6640E"/>
<stop offset="1" stop-color="#FA7001"/>
</radialGradient>
<radialGradient id="paint5_radial_2286_19006" cx="0" cy="0" r="1" gradientUnits="userSpaceOnUse" gradientTransform="translate(60.9929 40.9443) scale(13.6229 13.6138)">
<stop offset="0.44" stop-color="#F15222"/>
<stop offset="0.8" stop-color="#F6640E"/>
<stop offset="1" stop-color="#FA7001"/>
</radialGradient>
<radialGradient id="paint6_radial_2286_19006" cx="0" cy="0" r="1" gradientUnits="userSpaceOnUse" gradientTransform="translate(59.5926 41.8594) scale(9.47916 9.47279)">
<stop offset="0.44" stop-color="#F15222"/>
<stop offset="0.8" stop-color="#F6640E"/>
<stop offset="1" stop-color="#FA7001"/>
</radialGradient>
<radialGradient id="paint7_radial_2286_19006" cx="0" cy="0" r="1" gradientUnits="userSpaceOnUse" gradientTransform="translate(58.7611 43.929) scale(6.14759 6.14348)">
<stop offset="0.44" stop-color="#F15222"/>
<stop offset="0.8" stop-color="#F6640E"/>
<stop offset="1" stop-color="#FA7001"/>
</radialGradient>
<radialGradient id="paint8_radial_2286_19006" cx="0" cy="0" r="1" gradientUnits="userSpaceOnUse" gradientTransform="translate(58.6424 34.5784) scale(27.8337 27.815)">
<stop stop-color="#EE7207"/>
<stop offset="0.84" stop-color="#F0E106"/>
</radialGradient>
<radialGradient id="paint9_radial_2286_19006" cx="0" cy="0" r="1" gradientUnits="userSpaceOnUse" gradientTransform="translate(56.8048 34.611) scale(24.2597 24.2434)">
<stop stop-color="#EE7207"/>
<stop offset="0.78" stop-color="#F0E106"/>
</radialGradient>
<radialGradient id="paint10_radial_2286_19006" cx="0" cy="0" r="1" gradientUnits="userSpaceOnUse" gradientTransform="translate(52.9437 35.2018) scale(13.8689 13.8596)">
<stop stop-color="#EE7207"/>
<stop offset="1" stop-color="#F0E106"/>
</radialGradient>
<radialGradient id="paint11_radial_2286_19006" cx="0" cy="0" r="1" gradientUnits="userSpaceOnUse" gradientTransform="translate(50.1418 35.8531) scale(9.83886 9.83224)">
<stop stop-color="#EE7207"/>
<stop offset="1" stop-color="#F0E106"/>
</radialGradient>
<radialGradient id="paint12_radial_2286_19006" cx="0" cy="0" r="1" gradientUnits="userSpaceOnUse" gradientTransform="translate(61.9297 30.2338) rotate(-31.9263) scale(24.071 14.9987)">
<stop stop-color="#EE7207"/>
<stop offset="0.84" stop-color="#F0E106"/>
</radialGradient>
<radialGradient id="paint13_radial_2286_19006" cx="0" cy="0" r="1" gradientUnits="userSpaceOnUse" gradientTransform="translate(62.5146 27.934) rotate(10.0588) scale(19.4449 21.7668)">
<stop stop-color="#F15222"/>
<stop offset="1" stop-color="#FA7001"/>
</radialGradient>
<radialGradient id="paint14_radial_2286_19006" cx="0" cy="0" r="1" gradientUnits="userSpaceOnUse" gradientTransform="translate(69.4842 34.5943) rotate(180) scale(9.67677 9.67026)">
<stop offset="0.44" stop-color="#F15222"/>
<stop offset="0.8" stop-color="#F6640E"/>
<stop offset="1" stop-color="#FA7001"/>
</radialGradient>
<radialGradient id="paint15_radial_2286_19006" cx="0" cy="0" r="1" gradientUnits="userSpaceOnUse" gradientTransform="translate(62.0582 36.5538) rotate(180) scale(14.4995 14.4897)">
<stop offset="0.44" stop-color="#F15222"/>
<stop offset="0.8" stop-color="#F6640E"/>
<stop offset="1" stop-color="#FA7001"/>
</radialGradient>
<radialGradient id="paint16_radial_2286_19006" cx="0" cy="0" r="1" gradientUnits="userSpaceOnUse" gradientTransform="translate(59.3949 39.4484) rotate(180) scale(15.0273 15.0172)">
<stop offset="0.44" stop-color="#F15222"/>
<stop offset="0.8" stop-color="#F6640E"/>
<stop offset="1" stop-color="#FA7001"/>
</radialGradient>
<radialGradient id="paint17_radial_2286_19006" cx="0" cy="0" r="1" gradientUnits="userSpaceOnUse" gradientTransform="translate(58.2743 40.9428) rotate(180) scale(13.6229 13.6138)">
<stop offset="0.44" stop-color="#F15222"/>
<stop offset="0.8" stop-color="#F6640E"/>
<stop offset="1" stop-color="#FA7001"/>
</radialGradient>
<radialGradient id="paint18_radial_2286_19006" cx="0" cy="0" r="1" gradientUnits="userSpaceOnUse" gradientTransform="translate(59.6751 41.8594) rotate(180) scale(9.47916 9.47278)">
<stop offset="0.44" stop-color="#F15222"/>
<stop offset="0.8" stop-color="#F6640E"/>
<stop offset="1" stop-color="#FA7001"/>
</radialGradient>
<radialGradient id="paint19_radial_2286_19006" cx="0" cy="0" r="1" gradientUnits="userSpaceOnUse" gradientTransform="translate(60.5054 43.929) rotate(180) scale(6.14759 6.14347)">
<stop offset="0.44" stop-color="#F15222"/>
<stop offset="0.8" stop-color="#F6640E"/>
<stop offset="1" stop-color="#FA7001"/>
</radialGradient>
<radialGradient id="paint20_radial_2286_19006" cx="0" cy="0" r="1" gradientUnits="userSpaceOnUse" gradientTransform="translate(60.6251 34.5787) rotate(180) scale(27.8337 27.8149)">
<stop stop-color="#EE7207"/>
<stop offset="0.84" stop-color="#F0E106"/>
</radialGradient>
<radialGradient id="paint21_radial_2286_19006" cx="0" cy="0" r="1" gradientUnits="userSpaceOnUse" gradientTransform="translate(62.462 34.6091) rotate(180) scale(24.2597 24.2434)">
<stop stop-color="#EE7207"/>
<stop offset="0.78" stop-color="#F0E106"/>
</radialGradient>
<radialGradient id="paint22_radial_2286_19006" cx="0" cy="0" r="1" gradientUnits="userSpaceOnUse" gradientTransform="translate(66.3233 35.202) rotate(180) scale(13.8689 13.8596)">
<stop stop-color="#EE7207"/>
<stop offset="1" stop-color="#F0E106"/>
</radialGradient>
<radialGradient id="paint23_radial_2286_19006" cx="0" cy="0" r="1" gradientUnits="userSpaceOnUse" gradientTransform="translate(69.1252 35.8539) rotate(180) scale(9.83887 9.83225)">
<stop stop-color="#EE7207"/>
<stop offset="1" stop-color="#F0E106"/>
</radialGradient>
<linearGradient id="paint24_linear_2286_19006" x1="58.1759" y1="22.8963" x2="58.5335" y2="26.8637" gradientUnits="userSpaceOnUse">
<stop stop-color="#EE7207"/>
<stop offset="1" stop-color="#EB3C03"/>
</linearGradient>
<linearGradient id="paint25_linear_2286_19006" x1="58.5791" y1="21.7459" x2="56.4617" y2="21.7615" gradientUnits="userSpaceOnUse">
<stop stop-color="#F0E106"/>
<stop offset="1" stop-color="#EB3C03"/>
</linearGradient>
<linearGradient id="paint26_linear_2286_19006" x1="52.9092" y1="13.2406" x2="54.1117" y2="16.6017" gradientUnits="userSpaceOnUse">
<stop stop-color="#EE7207"/>
<stop offset="1" stop-color="#EB3C03"/>
</linearGradient>
<linearGradient id="paint27_linear_2286_19006" x1="54.5747" y1="15.2934" x2="55.3418" y2="18.4157" gradientUnits="userSpaceOnUse">
<stop stop-color="#EE7207"/>
<stop offset="1" stop-color="#EB3C03"/>
</linearGradient>
<linearGradient id="paint28_linear_2286_19006" x1="55.9655" y1="17.3143" x2="56.577" y2="20.7372" gradientUnits="userSpaceOnUse">
<stop stop-color="#EE7207"/>
<stop offset="1" stop-color="#EB3C03"/>
</linearGradient>
<linearGradient id="paint29_linear_2286_19006" x1="57.2761" y1="19.9895" x2="57.6596" y2="23.4539" gradientUnits="userSpaceOnUse">
<stop stop-color="#EE7207"/>
<stop offset="1" stop-color="#EB3C03"/>
</linearGradient>
<radialGradient id="paint30_radial_2286_19006" cx="0" cy="0" r="1" gradientUnits="userSpaceOnUse" gradientTransform="translate(59.6108 27.2963) scale(15.7783 15.7678)">
<stop stop-color="#F2551F"/>
<stop offset="1" stop-color="#F0E106"/>
</radialGradient>
<linearGradient id="paint31_linear_2286_19006" x1="61.0887" y1="22.8963" x2="60.731" y2="26.8637" gradientUnits="userSpaceOnUse">
<stop stop-color="#EE7207"/>
<stop offset="1" stop-color="#EB3C03"/>
</linearGradient>
<linearGradient id="paint32_linear_2286_19006" x1="60.685" y1="21.7478" x2="62.8023" y2="21.7634" gradientUnits="userSpaceOnUse">
<stop stop-color="#F0E106"/>
<stop offset="1" stop-color="#EB3C03"/>
</linearGradient>
<linearGradient id="paint33_linear_2286_19006" x1="66.3546" y1="13.2413" x2="65.1521" y2="16.6024" gradientUnits="userSpaceOnUse">
<stop stop-color="#EE7207"/>
<stop offset="1" stop-color="#EB3C03"/>
</linearGradient>
<linearGradient id="paint34_linear_2286_19006" x1="64.6908" y1="15.2934" x2="63.9237" y2="18.4157" gradientUnits="userSpaceOnUse">
<stop stop-color="#EE7207"/>
<stop offset="1" stop-color="#EB3C03"/>
</linearGradient>
<linearGradient id="paint35_linear_2286_19006" x1="63.2992" y1="17.315" x2="62.6876" y2="20.7379" gradientUnits="userSpaceOnUse">
<stop stop-color="#EE7207"/>
<stop offset="1" stop-color="#EB3C03"/>
</linearGradient>
<linearGradient id="paint36_linear_2286_19006" x1="61.988" y1="19.9914" x2="61.6045" y2="23.4558" gradientUnits="userSpaceOnUse">
<stop stop-color="#EE7207"/>
<stop offset="1" stop-color="#EB3C03"/>
</linearGradient>
<radialGradient id="paint37_radial_2286_19006" cx="0" cy="0" r="1" gradientUnits="userSpaceOnUse" gradientTransform="translate(59.6555 27.297) rotate(180) scale(15.7784 15.7678)">
<stop stop-color="#F2551F"/>
<stop offset="1" stop-color="#F0E106"/>
</radialGradient>
</defs>
</svg>
