<?xml version="1.0" encoding="UTF-8" standalone="no"?>
<svg
   width="231"
   height="64"
   viewBox="0 0 231 64"
   fill="none"
   version="1.1"
   id="svg1"
   sodipodi:docname="Side-Projects-Link-Card.svg"
   inkscape:version="1.4.2 (f4327f4, 2025-05-13)"
   xmlns:inkscape="http://www.inkscape.org/namespaces/inkscape"
   xmlns:sodipodi="http://sodipodi.sourceforge.net/DTD/sodipodi-0.dtd"
   xmlns="http://www.w3.org/2000/svg"
   xmlns:svg="http://www.w3.org/2000/svg">
  <defs
     id="defs1" />
  <sodipodi:namedview
     id="namedview1"
     pagecolor="#ffffff"
     bordercolor="#000000"
     borderopacity="0.25"
     inkscape:showpageshadow="2"
     inkscape:pageopacity="0.0"
     inkscape:pagecheckerboard="0"
     inkscape:deskcolor="#d1d1d1"
     inkscape:zoom="3.8441558"
     inkscape:cx="77.390203"
     inkscape:cy="26.923986"
     inkscape:window-width="1920"
     inkscape:window-height="1009"
     inkscape:window-x="-8"
     inkscape:window-y="-8"
     inkscape:window-maximized="1"
     inkscape:current-layer="svg1" />
  <path
     style="font-weight:800;font-size:24px;font-family:Inter;-inkscape-font-specification:'Inter Ultra-Bold';fill:#fc738e"
     d="m 44.220703,27.098816 v -3.375 h 14.695313 v 3.375 h -5.285157 v 14.085937 h -4.125 V 27.098816 Z m 20.90625,6.609375 v 7.476562 H 61.037109 V 23.723816 h 4.007813 v 6.960937 c 0.351563,-0.84375 0.851563,-1.515625 1.5,-2.015625 0.65625,-0.5 1.492187,-0.75 2.507812,-0.75 1.367188,0 2.464844,0.449219 3.292969,1.347657 0.828125,0.898437 1.242188,2.089843 1.242188,3.574218 v 8.34375 h -4.089844 v -7.546875 c 0,-0.734375 -0.1875,-1.308593 -0.5625,-1.722656 -0.375,-0.421875 -0.898438,-0.632812 -1.570313,-0.632812 -0.664062,0 -1.203124,0.214844 -1.617187,0.644531 -0.414063,0.421875 -0.621094,1.015625 -0.621094,1.78125 z m 17.261719,7.722656 c -2.054687,0 -3.671875,-0.597656 -4.851563,-1.792969 -1.171875,-1.203125 -1.757812,-2.855468 -1.757812,-4.957031 0,-1.34375 0.261719,-2.523437 0.785156,-3.539062 0.53125,-1.015625 1.28125,-1.804688 2.25,-2.367188 0.96875,-0.570313 2.109375,-0.855469 3.421875,-0.855469 1.226563,0 2.3125,0.257813 3.257813,0.773438 0.953125,0.507813 1.699218,1.261719 2.238281,2.261719 0.546875,0.992187 0.820312,2.207031 0.820312,3.644531 v 1.03125 h -8.753906 c 0.03906,0.945313 0.296873,1.65625 0.773438,2.132812 0.484375,0.46875 1.113281,0.703125 1.886718,0.703125 0.546875,0 1.019532,-0.113281 1.417969,-0.339843 0.398437,-0.234375 0.679687,-0.570313 0.84375,-1.007813 l 3.644531,0.597656 c -0.328125,1.132813 -1.011718,2.035157 -2.050781,2.707032 -1.03125,0.671875 -2.339844,1.007812 -3.925781,1.007812 z M 79.822266,33.25116 h 4.851562 c -0.07813,-0.742188 -0.320312,-1.320313 -0.726562,-1.734375 -0.40625,-0.421875 -0.964844,-0.632813 -1.675782,-0.632813 -0.71875,0 -1.289062,0.214844 -1.710937,0.644531 -0.414063,0.421875 -0.660156,0.996094 -0.738281,1.722657 z m 15.328125,7.933593 5.824219,-17.460937 h 5.54297 l 6,17.460937 h -4.64063 l -1.18359,-3.714843 h -5.8125 l -1.136719,3.714843 z m 6.703129,-6.878906 h 3.83203 l -0.23438,-0.75 c -0.30469,-1 -0.60156,-2.046875 -0.89062,-3.140625 -0.28907,-1.09375 -0.57422,-2.226562 -0.85547,-3.398437 -0.26563,1.179687 -0.53125,2.316406 -0.79688,3.410156 -0.25781,1.09375 -0.53125,2.136719 -0.82031,3.128906 z m 12.5625,6.878906 V 28.083191 h 3.97265 v 2.390625 h 0.14063 c 0.23437,-0.859375 0.62109,-1.5 1.16015,-1.921875 0.54688,-0.421875 1.17969,-0.632813 1.89844,-0.632813 0.39844,0 0.78516,0.04687 1.16016,0.140625 v 3.5625 c -0.19531,-0.07031 -0.45313,-0.121093 -0.77344,-0.152343 -0.3125,-0.03906 -0.59375,-0.05859 -0.84375,-0.05859 -0.75781,0 -1.38672,0.242187 -1.88672,0.726562 -0.49219,0.484375 -0.73828,1.117188 -0.73828,1.898438 v 7.148437 z m 15.49218,0.246094 c -1.36719,0 -2.54297,-0.28125 -3.52734,-0.84375 -0.98437,-0.570313 -1.74219,-1.359375 -2.27344,-2.367187 -0.52343,-1.015625 -0.78515,-2.195313 -0.78515,-3.539063 0,-1.34375 0.26172,-2.523437 0.78515,-3.539062 0.53125,-1.015625 1.28907,-1.804688 2.27344,-2.367188 0.98437,-0.570313 2.16015,-0.855469 3.52734,-0.855469 1.67188,0 3.04297,0.417969 4.11328,1.253907 1.07813,0.835937 1.71875,1.96875 1.92188,3.398437 l -3.77344,0.632813 c -0.13281,-0.6875 -0.38672,-1.21875 -0.76172,-1.59375 -0.36719,-0.375 -0.85156,-0.5625 -1.45312,-0.5625 -0.78125,0 -1.38672,0.320312 -1.81641,0.960937 -0.42969,0.632813 -0.64453,1.515625 -0.64453,2.648438 0,1.125 0.21484,2.015625 0.64453,2.671875 0.42969,0.648437 1.03516,0.972656 1.81641,0.972656 0.60156,0 1.08984,-0.195313 1.46484,-0.585938 0.38281,-0.390625 0.63672,-0.9375 0.76172,-1.640625 l 3.77344,0.609375 c -0.20313,1.46875 -0.83985,2.628906 -1.91016,3.480469 -1.07031,0.84375 -2.44922,1.265625 -4.13672,1.265625 z m 12.29297,-7.722656 v 7.476562 h -4.08984 V 23.723816 h 4.00781 v 6.960937 c 0.35156,-0.84375 0.85156,-1.515625 1.5,-2.015625 0.65625,-0.5 1.49219,-0.75 2.50781,-0.75 1.36719,0 2.46484,0.449219 3.29297,1.347657 0.82813,0.898437 1.24219,2.089843 1.24219,3.574218 v 8.34375 h -4.08984 v -7.546875 c 0,-0.734375 -0.1875,-1.308593 -0.5625,-1.722656 -0.375,-0.421875 -0.89844,-0.632812 -1.57032,-0.632812 -0.66406,0 -1.20312,0.214844 -1.61718,0.644531 -0.41407,0.421875 -0.6211,1.015625 -0.6211,1.78125 z m 11.15625,7.476562 V 28.083191 h 4.08985 v 13.101562 z m 2.03906,-14.636718 c -0.57812,0 -1.07421,-0.191406 -1.48828,-0.574219 -0.41406,-0.382813 -0.62109,-0.847656 -0.62109,-1.394531 0,-0.546875 0.20703,-1.011719 0.62109,-1.394532 0.41407,-0.382812 0.91016,-0.574218 1.48828,-0.574218 0.58594,0 1.08594,0.191406 1.5,0.574218 0.41407,0.382813 0.6211,0.847657 0.6211,1.394532 0,0.546875 -0.20703,1.011718 -0.6211,1.394531 -0.41406,0.382813 -0.91406,0.574219 -1.5,0.574219 z m 8.41407,14.636718 -4.7461,-13.101562 h 4.3125 l 1.95703,6.410156 c 0.17969,0.585937 0.33985,1.179687 0.48047,1.78125 0.14844,0.601563 0.29297,1.21875 0.4336,1.851563 0.125,-0.632813 0.25781,-1.246094 0.39843,-1.839844 0.14063,-0.601563 0.30078,-1.199219 0.48047,-1.792969 l 1.92188,-6.410156 h 4.26562 l -4.76953,13.101562 z m 16.80468,0.246094 c -2.05469,0 -3.67187,-0.597656 -4.85156,-1.792969 -1.17187,-1.203125 -1.75781,-2.855468 -1.75781,-4.957031 0,-1.34375 0.26172,-2.523437 0.78516,-3.539062 0.53125,-1.015625 1.28125,-1.804688 2.25,-2.367188 0.96875,-0.570313 2.10937,-0.855469 3.42187,-0.855469 1.22656,0 2.3125,0.257813 3.25781,0.773438 0.95313,0.507813 1.69922,1.261719 2.23828,2.261719 0.54688,0.992187 0.82032,2.207031 0.82032,3.644531 v 1.03125 h -8.75391 c 0.0391,0.945313 0.29688,1.65625 0.77344,2.132812 0.48437,0.46875 1.11328,0.703125 1.88672,0.703125 0.54687,0 1.01953,-0.113281 1.41797,-0.339843 0.39843,-0.234375 0.67968,-0.570313 0.84375,-1.007813 l 3.64453,0.597656 c -0.32813,1.132813 -1.01172,2.035157 -2.05078,2.707032 -1.03125,0.671875 -2.33985,1.007812 -3.92579,1.007812 z m -2.5664,-8.179687 h 4.85156 c -0.0781,-0.742188 -0.32031,-1.320313 -0.72656,-1.734375 -0.40625,-0.421875 -0.96485,-0.632813 -1.67578,-0.632813 -0.71875,0 -1.28907,0.214844 -1.71094,0.644531 -0.41406,0.421875 -0.66015,0.996094 -0.73828,1.722657 z"
     id="text1"
     aria-label="The Archive"
     sodipodi:nodetypes="cccccccccsccccccsssccscscsscsccsccscccsccccscccsccccccccccccccsccccccccccscccscsccsccsccsccccscscsccccssccccccsssccscscscccccsssssssssccccccccccccscsccsccscccsccccscccscc" />
</svg>
