<svg width="24" height="24" viewBox="0 0 24 24" fill="none" xmlns="http://www.w3.org/2000/svg">
<path d="M12 24C18.6274 24 24 18.6274 24 12C24 5.37258 18.6274 0 12 0C5.37258 0 0 5.37258 0 12C0 18.6274 5.37258 24 12 24Z" fill="#1769FF"/>
<path d="M16.3019 9.91283C12.8359 9.91283 12.8314 13.3658 12.8314 13.3835C12.8314 13.3835 12.594 16.8408 16.3019 16.8408C16.3019 16.8408 19.3942 17.0166 19.3942 14.4347H17.8063C17.8063 14.4347 17.859 15.4067 16.3547 15.4067C16.3547 15.4067 14.7669 15.5124 14.7669 13.8364H19.447C19.447 13.8364 19.9617 9.91283 16.3019 9.91283ZM14.7491 12.6267C14.7491 12.6267 14.9427 11.2367 16.3372 11.2367C17.736 11.2367 17.7139 12.6267 17.7139 12.6267H14.7491ZM10.7819 11.7383C10.7819 11.7383 12.1586 11.6372 12.1586 10.0185C12.1586 8.40433 11.0326 7.61243 9.60305 7.61243H4.90063V16.6515H9.60262C9.60262 16.6515 12.475 16.7396 12.475 13.9816C12.4752 13.9816 12.5984 11.7383 10.7819 11.7383ZM6.97258 9.21783H9.60283C9.60283 9.21783 10.2407 9.21783 10.2407 10.159C10.2407 11.1003 9.8668 11.2367 9.44005 11.2367H6.97258V9.21783ZM9.47107 15.0461H6.97258V12.6267H9.60283C9.60283 12.6267 10.5575 12.618 10.553 13.8715C10.553 14.9273 9.84498 15.0373 9.47107 15.0461ZM14.3577 8.14464V9.25762H18.0878V8.14464H14.3577Z" fill="white"/>
</svg>
