<svg width="231" height="64" viewBox="0 0 231 64" fill="none" xmlns="http://www.w3.org/2000/svg">
<g clip-path="url(#clip0_2286_7656)">
<path d="M60.5684 13.0612C59.5515 12.9003 58.5102 13.0692 57.5949 13.5434C57.2762 13.7116 56.9762 13.9135 56.6999 14.1455C56.1986 14.0858 55.6914 14.0861 55.19 14.0861C51.0021 14.0861 46.9858 15.7609 44.0245 18.7419C41.0633 21.7229 39.3997 25.7661 39.3997 29.9819C39.3997 34.1977 41.0633 38.2409 44.0245 41.2219C46.9858 44.2029 51.0021 45.8777 55.19 45.8777H89.3967C89.9531 46.4543 90.6422 46.8839 91.4029 47.1282C92.1637 47.3725 92.9726 47.424 93.7579 47.2781C94.5432 47.1322 95.2805 46.7935 95.9046 46.2919C96.5286 45.7904 97.0201 45.1415 97.3353 44.403C97.6505 43.6644 97.7798 42.8589 97.7116 42.058C97.6435 41.257 97.38 40.4854 96.9446 39.8116C96.5092 39.1377 95.9153 38.5825 95.2156 38.1951C94.5159 37.8077 93.732 37.6002 92.9335 37.5909C92.1734 37.5939 91.4247 37.7767 90.7476 38.1245C90.0705 38.4723 89.4841 38.9753 89.0356 39.5931H80.2215C78.9198 39.5984 77.6308 39.3352 76.434 38.8197C75.2373 38.3042 74.1581 37.5475 73.263 36.5961C72.3679 35.6446 71.6759 34.5187 71.2296 33.2878C70.7833 32.0568 70.5923 30.7468 70.6682 29.4387C70.7859 27.2288 71.6584 25.1276 73.1381 23.4909C74.6178 21.8542 76.6138 20.7823 78.7883 20.4568C80.9628 20.1312 83.1823 20.5719 85.0711 21.7043C86.9599 22.8368 88.402 24.5913 89.1535 26.6711C89.164 26.6852 89.1696 26.7023 89.1696 26.7199C89.1696 26.7374 89.164 26.7545 89.1535 26.7686C89.1436 26.7852 89.1293 26.7987 89.1122 26.8075C89.0951 26.8164 89.0758 26.8201 89.0566 26.8184H83.812C83.1716 26.0511 82.3124 25.5007 81.3507 25.2417C80.3891 24.9828 79.3715 25.0279 78.4362 25.3709C77.5009 25.7139 76.693 26.3382 76.1221 27.1592C75.5512 27.9802 75.245 28.9581 75.245 29.9602C75.245 30.9623 75.5512 31.9402 76.1221 32.7611C76.693 33.5821 77.5009 34.2064 78.4362 34.5494C79.3715 34.8925 80.3891 34.9376 81.3507 34.6786C82.3124 34.4197 83.1716 33.8692 83.812 33.1019H89.0682C90.0932 33.1028 91.1032 32.8541 92.0121 32.3771C92.921 31.9 93.7018 31.2088 94.288 30.3623C94.8741 29.5158 95.2482 28.5392 95.3783 27.5157C95.5084 26.4922 95.3907 25.4522 95.0352 24.4844C93.7833 21.048 91.3914 18.1521 88.2636 16.2859C85.1358 14.4197 81.464 13.6977 77.8685 14.2419C74.273 14.7861 70.9744 16.5631 68.53 19.2727C66.0857 21.9823 64.6454 25.4582 64.4527 29.1133C64.2332 32.878 65.3638 36.597 67.6389 39.5931H55.19C52.6593 39.5931 50.2322 38.5811 48.4426 36.7796C46.6531 34.9782 45.6478 32.5349 45.6478 29.9872C45.6478 27.4396 46.6531 24.9962 48.4426 23.1948C50.2322 21.3933 52.6593 20.3813 55.19 20.3813H55.6112C56.0408 21.1248 56.6568 21.7417 57.3976 22.1703C58.1384 22.5989 58.978 22.8241 59.8324 22.8234C60.6673 22.8252 61.4884 22.6101 62.2166 22.199C62.9447 21.7878 63.5551 21.1944 63.9887 20.4763C64.4224 19.7581 64.6647 18.9395 64.6921 18.0995C64.7195 17.2595 64.5311 16.4266 64.1452 15.6814C63.798 14.9905 63.2926 14.3926 62.6707 13.937C62.0488 13.4815 61.3282 13.1812 60.5684 13.0612ZM132.931 13.1163C132.885 13.1164 132.837 13.1193 132.789 13.1247H132.788C132.128 13.1976 131.628 13.7681 131.638 14.437V28.0014V28.0024C131.642 28.559 132.094 29.015 132.647 29.0189H132.648C132.989 29.0197 133.309 28.8467 133.496 28.56V28.5589L133.567 28.4476C133.955 28.6968 134.358 28.9233 134.797 29.0613C135.23 29.2087 135.683 29.2916 136.14 29.3062H136.142H136.143C137.156 29.3256 138.156 29.0748 139.043 28.5801H139.045L139.046 28.579C139.879 28.1001 140.557 27.3878 140.997 26.5291V26.528C141.469 25.5951 141.703 24.5591 141.68 23.5124C141.704 22.4376 141.48 21.3716 141.022 20.4003L141.021 20.3993C140.602 19.5243 139.935 18.7939 139.103 18.3016L139.101 18.3006L139.098 18.2995C138.204 17.793 137.19 17.5378 136.164 17.5618H136.163C135.794 17.5717 135.429 17.6367 135.078 17.7526H135.077C134.783 17.8439 134.505 17.9767 134.225 18.1045V14.4179V14.4168C134.226 13.6932 133.633 13.1142 132.931 13.1163ZM59.8156 15.5192C60.0627 15.5196 60.3084 15.5578 60.5442 15.6326C61.0662 15.8028 61.5134 16.1499 61.8097 16.6148C62.106 17.0797 62.233 17.6336 62.1692 18.1821C62.1054 18.7307 61.8546 19.2401 61.4596 19.6234C61.0646 20.0068 60.5498 20.2404 60.0029 20.2846C59.4559 20.3287 58.9107 20.1806 58.4601 19.8655C58.0095 19.5505 57.6813 19.0879 57.5314 18.5565C57.3815 18.0252 57.4193 17.458 57.6382 16.9515C57.8572 16.4451 58.2437 16.0307 58.7321 15.7789H58.7374C59.0716 15.6086 59.4409 15.5196 59.8156 15.5192ZM160.884 17.4907C160.818 17.4915 160.752 17.4945 160.686 17.4992C159.925 17.5132 159.177 17.6902 158.491 18.0207C158.058 18.2189 157.643 18.4556 157.253 18.7298C157.028 18.8881 156.733 18.7775 156.667 18.5094L156.666 18.5062L156.665 18.502C156.558 18.1189 156.21 17.8521 155.815 17.8501H155.47C154.986 17.8501 154.589 18.2524 154.593 18.7394V28.1296C154.589 28.6166 154.986 29.0189 155.47 29.0189H156.295H156.296C156.777 29.0148 157.17 28.616 157.17 28.1317V21.5409V21.5388C157.168 21.4231 157.218 21.3131 157.305 21.2377V21.2367C157.758 20.8586 158.246 20.5247 158.762 20.2392L158.765 20.2382L158.768 20.2361C159.226 19.9674 159.742 19.8175 160.271 19.7983L160.279 19.7972L160.288 19.7962C160.725 19.7485 161.151 19.9378 161.419 20.288C161.678 20.7883 161.803 21.3491 161.769 21.9129L161.768 21.9203V28.1349C161.764 28.6219 162.16 29.0242 162.644 29.0242H163.48C163.964 29.0242 164.36 28.6219 164.356 28.1349V21.7454C164.414 20.6538 164.101 19.5747 163.47 18.6853L163.463 18.6779L163.457 18.6694C162.815 17.9074 161.87 17.4787 160.884 17.4907ZM147.687 17.5459C147.03 17.5664 146.377 17.6623 145.74 17.831C145.424 17.9047 145.113 17.9972 144.809 18.1087H144.807L144.806 18.1098C144.215 18.331 143.91 18.9955 144.122 19.5927C144.324 20.2114 144.995 20.5488 145.608 20.3378H145.609H145.61C146.301 20.0905 147.029 19.9591 147.763 19.9499H147.774L147.785 19.9488C148.325 19.8934 148.853 20.1185 149.195 20.5424C149.473 21.0303 149.598 21.5827 149.603 22.1429H147.369C146.296 22.0842 145.236 22.4095 144.378 23.0609L144.374 23.064L144.371 23.0662C143.592 23.706 143.161 24.6785 143.204 25.6885C143.153 26.6541 143.502 27.599 144.172 28.2928L144.18 28.3013L144.188 28.3087C144.999 29.0041 146.049 29.3506 147.111 29.2776C147.717 29.2678 148.313 29.1361 148.867 28.8885H148.868C149.3 28.7037 149.683 28.4272 150.055 28.1413L150.073 28.2102C150.195 28.6841 150.621 29.0183 151.107 29.0189H151.108C151.696 29.0189 152.178 28.533 152.178 27.9409V21.5197V21.5154C152.187 20.8036 151.986 20.1051 151.599 19.5089V19.5079L151.598 19.5068C151.191 18.8867 150.624 18.3902 149.957 18.0695C149.254 17.7201 148.478 17.5406 147.694 17.5459H147.69H147.687ZM113.769 17.5618C112.735 17.5399 111.714 17.7943 110.809 18.2984L110.808 18.2995L110.806 18.3006C109.964 18.7874 109.282 19.512 108.844 20.3844H108.843V20.3855C108.376 21.327 108.143 22.3681 108.161 23.4202C108.133 24.4775 108.355 25.5269 108.81 26.4803V26.4814L108.811 26.4824C109.238 27.3521 109.908 28.0772 110.74 28.5674H110.742L110.743 28.5684C111.631 29.0724 112.637 29.3274 113.656 29.3062H113.657H113.658C114.304 29.2852 114.945 29.1855 115.566 29.0094C115.916 28.9209 116.258 28.8075 116.591 28.6691C117.149 28.4381 117.415 27.7862 117.182 27.2265L117.18 27.2223L117.177 27.217C116.936 26.7057 116.342 26.4609 115.814 26.6563L115.812 26.6573L115.81 26.6584C115.6 26.7412 115.386 26.812 115.168 26.8714L115.166 26.8725C114.68 26.9898 114.182 27.0454 113.682 27.0378H113.674H113.668C112.854 27.0721 112.076 26.7037 111.583 26.051L111.582 26.05C111.031 25.291 110.753 24.3658 110.796 23.4265L110.797 23.4181V23.4096C110.775 22.4858 111.07 21.5825 111.634 20.853H111.635C112.136 20.2026 112.917 19.8346 113.734 19.8629H113.74H113.746C114.215 19.8562 114.683 19.9126 115.137 20.0294C115.4 20.1066 115.653 20.1981 115.869 20.271V20.2721C116.418 20.4734 117.034 20.2 117.257 19.6563C117.486 19.0984 117.221 18.4521 116.667 18.2211C116.334 18.0814 115.993 17.9654 115.645 17.8713C115.037 17.6901 114.408 17.5865 113.773 17.5628L113.771 17.5618H113.769ZM127.661 17.8501C126.959 17.8676 126.388 18.441 126.371 19.1485V19.1517V25.4988C125.883 25.9274 125.359 26.3124 124.793 26.6298L124.791 26.6308L124.789 26.6319C124.331 26.8996 123.815 27.0502 123.285 27.0707H123.277L123.269 27.0718C122.833 27.1196 122.409 26.9303 122.144 26.5799C121.884 26.0796 121.76 25.5188 121.793 24.955L121.795 24.9476V19.1623L121.793 19.1591C121.776 18.4394 121.186 17.861 120.471 17.8607H120.47C119.758 17.8612 119.175 18.4505 119.179 19.1676V25.1352L119.18 25.1225C119.122 26.2142 119.434 27.2932 120.066 28.1826L120.072 28.1911L120.078 28.1985C120.761 29.0096 121.788 29.4437 122.841 29.3698C123.61 29.3594 124.367 29.1824 125.061 28.8483H125.062C125.67 28.5706 126.211 28.1754 126.729 27.7523L126.849 28.2165V28.2176C126.975 28.69 127.403 29.0198 127.889 29.0189H127.89C128.478 29.0151 128.959 28.528 128.959 27.9356V19.1559V19.1549C128.962 18.4379 128.38 17.8501 127.668 17.8501H127.665H127.661ZM136.134 19.8576H136.144H136.153C136.971 19.8185 137.755 20.1875 138.251 20.8434C138.796 21.6259 139.069 22.5682 139.024 23.523V23.5336V23.5442C139.06 24.4471 138.784 25.3351 138.243 26.0563L138.21 26.1008C137.698 26.7046 136.946 27.0501 136.156 27.0061L136.146 27.005H136.137C135.439 27.0203 134.764 26.7908 134.199 26.3807V20.5201C134.75 20.0814 135.43 19.8363 136.134 19.8576ZM147.108 24.0138C147.166 24.0111 147.224 24.0113 147.282 24.0148H147.289H149.628V25.8231C149.293 26.1894 148.907 26.507 148.47 26.7411L148.467 26.7421L148.466 26.7432C148.047 26.9757 147.576 27.097 147.097 27.0972H147.089L147.081 27.0983C146.665 27.1254 146.259 26.9709 145.963 26.6764C145.708 26.4076 145.568 26.0494 145.574 25.6779V25.6769C145.555 25.2336 145.718 24.8033 146.026 24.4855C146.318 24.1988 146.704 24.0321 147.108 24.0138ZM80.989 27.7544C81.4223 27.9352 81.7926 28.2413 82.0531 28.6339C82.3136 29.0265 82.4526 29.488 82.4526 29.9602C82.4527 30.5934 82.2029 31.2007 81.7582 31.6485C81.3136 32.0963 80.7104 32.348 80.0814 32.3483C79.7306 32.3483 79.3842 32.2701 79.0671 32.1191C78.75 31.9682 78.4701 31.7484 78.2475 31.4754C78.025 31.2025 77.8653 30.8833 77.7801 30.5407C77.6948 30.1982 77.6861 29.8409 77.7545 29.4946C77.8229 29.1482 77.9668 28.8215 78.1758 28.5379C78.3847 28.2543 78.6536 28.0208 78.9629 27.8544C79.2723 27.688 79.6145 27.5927 79.9648 27.5754C80.3152 27.5581 80.665 27.6192 80.989 27.7544ZM145.702 30.1976C145.288 30.1899 144.888 30.3558 144.601 30.6576L144.6 30.6587L144.599 30.6597C144.025 31.2802 144.025 32.2483 144.599 32.8687L144.601 32.8708L144.602 32.8719C144.889 33.1717 145.288 33.335 145.701 33.3256C146.116 33.3311 146.516 33.171 146.81 32.8772C147.432 32.271 147.431 31.26 146.81 30.6534C146.516 30.3581 146.118 30.1941 145.702 30.1976ZM126.425 34.412C126.36 34.4129 126.293 34.4157 126.227 34.4205C125.462 34.4308 124.708 34.6073 124.017 34.9409C123.406 35.2169 122.864 35.6132 122.346 36.0391L122.222 35.5727C122.096 35.1028 121.672 34.7736 121.189 34.7714H121.188C120.597 34.7714 120.112 35.2585 120.112 35.8536V44.6343C120.112 45.3546 120.688 45.9487 121.403 45.9667H121.406H121.408C122.136 45.9667 122.732 45.3672 122.732 44.6343V38.2904C123.209 37.8624 123.724 37.4775 124.279 37.1595L124.281 37.1584H124.282C124.739 36.8897 125.255 36.7388 125.784 36.7196L125.794 36.7185H125.802C126.238 36.6697 126.663 36.8579 126.928 37.2093C127.189 37.7088 127.313 38.2704 127.277 38.8342V38.8416V44.6237C127.277 45.344 127.852 45.9381 128.567 45.9561H128.57H128.573C129.301 45.9561 129.897 45.3566 129.897 44.6237V38.6678C129.955 37.575 129.639 36.4946 129.004 35.6066L128.999 35.5992L128.992 35.5918C128.353 34.8291 127.41 34.3996 126.425 34.412ZM155.812 34.412C155.746 34.4128 155.68 34.4158 155.614 34.4205C154.847 34.4312 154.091 34.6078 153.398 34.9409C152.79 35.2179 152.249 35.6143 151.733 36.0391L151.608 35.5727C151.482 35.1003 151.054 34.7704 150.568 34.7714H150.567C149.979 34.7752 149.498 35.2612 149.498 35.8536V44.6343C149.498 45.3546 150.074 45.9487 150.789 45.9667H150.792H150.794C151.52 45.9671 152.109 45.3572 152.086 44.6269V38.2926C152.581 37.8617 153.114 37.4763 153.689 37.1616L153.692 37.1595L153.695 37.1584C154.153 36.8897 154.669 36.7388 155.198 36.7196H155.206L155.216 36.7185C155.652 36.6706 156.075 36.8599 156.34 37.2103C156.599 37.7108 156.724 38.2717 156.691 38.8353L156.69 38.8427V44.6237C156.69 45.344 157.265 45.9381 157.981 45.9561H157.984H157.987C158.713 45.9565 159.3 45.3466 159.278 44.6163V38.6667C159.335 37.5753 159.022 36.4973 158.391 35.6077L158.385 35.5992L158.379 35.5907C157.738 34.8298 156.796 34.4011 155.812 34.412ZM166.562 34.482C166.474 34.4822 166.386 34.4848 166.298 34.4905C165.311 34.4697 164.338 34.7221 163.486 35.2229L163.483 35.224L163.481 35.225C162.673 35.7227 162.028 36.4487 161.625 37.3121L161.624 37.3131V37.3142C161.19 38.2633 160.976 39.2981 160.993 40.3425C160.924 41.9217 161.494 43.4617 162.575 44.6089L162.576 44.611L162.578 44.6131C163.618 45.6775 165.118 46.2063 167.012 46.2063H167.013H167.014C168.143 46.1939 169.253 45.9193 170.259 45.4039L170.26 45.4028C170.78 45.1382 171.008 44.5065 170.778 43.9676C170.536 43.3996 169.872 43.1376 169.31 43.3889C168.912 43.5494 168.631 43.6713 168.395 43.7524C167.948 43.8898 167.482 43.9563 167.015 43.9485H167.004H166.993C166.122 44.0148 165.264 43.7136 164.621 43.1186C164.113 42.5508 163.831 41.832 163.748 41.0771H170.409H170.414C170.846 41.0564 171.188 40.6908 171.186 40.2556C171.243 38.7852 170.815 37.3366 169.965 36.1387L169.962 36.1345L169.958 36.1292C169.134 35.0814 167.88 34.4789 166.562 34.482ZM177.937 34.482C177.849 34.4822 177.761 34.4848 177.673 34.4905C176.686 34.4697 175.714 34.7221 174.861 35.2229L174.859 35.224L174.857 35.225C174.049 35.7215 173.404 36.4484 173.005 37.3131C172.568 38.2591 172.351 39.2921 172.368 40.3351V40.3372C172.29 41.9139 172.85 43.455 173.921 44.6078L173.923 44.611L173.926 44.6131C174.972 45.6766 176.465 46.2063 178.365 46.2063H178.367H178.368C179.497 46.1939 180.608 45.9186 181.614 45.4028H181.615V45.4017C182.13 45.133 182.354 44.5057 182.127 43.9687C181.887 43.4008 181.224 43.1378 180.664 43.3889C180.296 43.5478 179.986 43.6689 179.743 43.7524C179.298 43.8894 178.834 43.956 178.369 43.9485H178.357H178.347C177.474 44.015 176.613 43.714 175.968 43.1186C175.453 42.5538 175.165 41.8339 175.076 41.0771H181.723C182.17 41.0771 182.536 40.7087 182.538 40.2599C182.602 38.7922 182.185 37.344 181.348 36.1408L181.343 36.1345L181.339 36.1292C180.513 35.0814 179.256 34.479 177.937 34.482ZM137.187 34.4841C136.175 34.463 135.174 34.7111 134.288 35.2038L134.287 35.2049H134.284C133.451 35.6838 132.773 36.3961 132.333 37.2549V37.2559V37.257C131.864 38.1905 131.629 39.2255 131.649 40.2715C131.625 41.3467 131.851 42.4119 132.309 43.3836V43.3846V43.3857C132.728 44.2607 133.396 44.99 134.228 45.4823L134.23 45.4844L134.232 45.4855C135.127 45.9914 136.14 46.2455 137.166 46.2222H137.168H137.171C137.56 46.2065 137.946 46.1334 138.315 46.008C138.316 46.0078 138.317 46.0083 138.318 46.008C138.633 45.9104 138.924 45.7564 139.217 45.6084V46.644L139.219 46.6504C139.251 47.2671 138.977 47.8592 138.489 48.2329C137.894 48.6428 137.182 48.8468 136.462 48.8116L136.452 48.8106H136.443C135.992 48.8236 135.542 48.7648 135.11 48.6368H135.107C134.891 48.5641 134.608 48.4526 134.257 48.3082H134.256C133.701 48.0818 133.062 48.3475 132.827 48.9017C132.59 49.4664 132.86 50.1251 133.424 50.356C133.783 50.5032 134.152 50.6236 134.529 50.7175H134.531C135.176 50.8983 135.842 51.0018 136.511 51.0249H136.512H136.515C137.49 51.0467 138.457 50.8549 139.351 50.462C140.099 50.1332 140.738 49.5959 141.193 48.9134L141.194 48.9113L141.196 48.9081C141.623 48.2335 141.844 47.4479 141.833 46.6483V35.8122C141.837 35.2564 141.385 34.7978 140.833 34.7979H140.832C140.469 34.7993 140.134 34.9968 139.956 35.3141V35.3151L139.873 35.4614C139.483 35.1814 139.077 34.9221 138.625 34.7586H138.624C138.163 34.5922 137.68 34.4998 137.191 34.4841H137.189H137.187ZM113.708 34.4873C113.62 34.4875 113.532 34.4901 113.444 34.4958C112.458 34.4752 111.484 34.7276 110.632 35.2282L110.63 35.2293L110.628 35.2303C109.819 35.7268 109.175 36.4537 108.776 37.3184V37.3195H108.775C108.346 38.2669 108.137 39.3007 108.161 40.3415C108.075 41.9114 108.623 43.4498 109.68 44.6068L109.684 44.6099L109.687 44.6131C110.732 45.6766 112.226 46.2063 114.125 46.2063H114.127H114.128C115.257 46.1939 116.368 45.9186 117.374 45.4028H117.375V45.4017C117.89 45.133 118.114 44.5057 117.887 43.9687V43.9676C117.644 43.3996 116.98 43.1376 116.419 43.3889C116.056 43.5477 115.748 43.6688 115.504 43.7524C115.059 43.8894 114.595 43.956 114.129 43.9485H114.118H114.107C113.234 44.015 112.375 43.7136 111.73 43.1186C111.224 42.5505 110.942 41.8313 110.861 41.0771H117.543C117.99 41.0771 118.356 40.7051 118.354 40.2556C118.403 38.7855 117.969 37.3394 117.117 36.144L117.113 36.1398L117.11 36.1345C116.283 35.0867 115.027 34.4843 113.708 34.4873ZM145.699 34.7565C144.972 34.7573 144.377 35.3544 144.377 36.0868V44.6237C144.377 45.3566 144.972 45.9561 145.7 45.9561C146.428 45.9561 147.024 45.3566 147.024 44.6237V36.8065L147.04 36.8277V36.0878C147.04 36.0316 146.987 35.9981 146.98 35.9437L146.991 35.9394L146.961 35.8992C146.856 35.262 146.361 34.7478 145.699 34.7565ZM185.292 34.7714C184.772 34.7713 184.345 35.1988 184.341 35.7221V35.7232V44.6343C184.341 45.3546 184.916 45.9487 185.631 45.9667L185.637 45.9678L185.643 45.9667C186.359 45.9487 186.934 45.3546 186.933 44.6343V38.7526C187.456 38.2713 188.031 37.8489 188.658 37.5156H188.659L188.66 37.5145C188.975 37.3424 189.307 37.2039 189.65 37.1012C190.242 36.934 190.584 36.3024 190.406 35.7105C190.244 35.1093 189.614 34.7569 189.021 34.9388L189.019 34.9399L189.016 34.9409C188.691 35.0488 188.377 35.1868 188.078 35.3533L188.077 35.3543C188.076 35.3549 188.075 35.3548 188.074 35.3554C187.534 35.6419 187.04 36.0036 186.563 36.3846L186.173 35.3787V35.3777C186.031 35.0144 185.682 34.774 185.294 34.7714H185.293H185.292ZM113.381 36.7842H113.386H113.391C114.091 36.7859 114.608 36.9984 115.005 37.4244C115.355 37.8 115.594 38.3938 115.74 39.1511H110.922C111.014 38.532 111.249 37.9422 111.659 37.4668C112.11 37.003 112.736 36.7536 113.381 36.7842ZM137.117 36.7842H137.125H137.133C137.532 36.7773 137.931 36.8413 138.309 36.9718C138.645 37.0904 138.948 37.2818 139.223 37.5092V43.1218C138.956 43.3612 138.659 43.5679 138.329 43.7069H138.328C137.947 43.859 137.54 43.935 137.131 43.9316H137.123L137.116 43.9326C136.299 43.9762 135.516 43.606 135.026 42.9469C134.475 42.1665 134.2 41.2233 134.247 40.2673L134.248 40.2567V40.245C134.211 39.3421 134.488 38.4549 135.032 37.7361L135.033 37.735C135.536 37.0996 136.31 36.746 137.117 36.7842ZM166.202 36.7842H166.207H166.213C166.922 36.7859 167.448 36.9992 167.85 37.4255C168.204 37.8013 168.445 38.3942 168.593 39.1511H163.772C163.857 38.5339 164.085 37.9444 164.487 37.4658C164.936 37.0031 165.56 36.7538 166.202 36.7842ZM177.555 36.7842H177.561H177.566C178.274 36.7859 178.799 36.999 179.201 37.4255C179.555 37.8012 179.796 38.3946 179.946 39.1511H175.12C175.206 38.5342 175.433 37.9451 175.834 37.4668C176.286 37.003 176.91 36.7536 177.555 36.7842ZM93.8412 40.2906C94.2744 40.4714 94.6447 40.7775 94.9052 41.1701C95.1657 41.5627 95.3048 42.0242 95.3048 42.4964C95.3034 43.1291 95.0532 43.7356 94.6088 44.1831C94.1644 44.6307 93.5621 44.8828 92.9335 44.8845C92.5828 44.8845 92.2364 44.8063 91.9192 44.6554C91.6021 44.5044 91.3222 44.2846 91.0997 44.0116C90.8771 43.7387 90.7175 43.4195 90.6322 43.0769C90.547 42.7344 90.5382 42.3771 90.6067 42.0308C90.6751 41.6845 90.819 41.3577 91.0279 41.0741C91.2369 40.7905 91.5057 40.557 91.8151 40.3906C92.1244 40.2242 92.4666 40.1289 92.817 40.1116C93.1673 40.0943 93.5171 40.1554 93.8412 40.2906Z" fill="#0091FF"/>
</g>
<defs>
<clipPath id="clip0_2286_7656">
<rect width="151.067" height="38" fill="white" transform="translate(39.4001 13)"/>
</clipPath>
</defs>
</svg>
