<?xml version="1.0" encoding="UTF-8" standalone="no"?>
<svg
   width="230"
   height="64"
   viewBox="0 0 230 64"
   fill="none"
   version="1.1"
   id="svg8"
   sodipodi:docname="CollectAI-Link-Card.svg"
   xml:space="preserve"
   inkscape:version="1.4.2 (f4327f4, 2025-05-13)"
   xmlns:inkscape="http://www.inkscape.org/namespaces/inkscape"
   xmlns:sodipodi="http://sodipodi.sourceforge.net/DTD/sodipodi-0.dtd"
   xmlns="http://www.w3.org/2000/svg"
   xmlns:svg="http://www.w3.org/2000/svg"><defs
     id="defs8" /><sodipodi:namedview
     id="namedview8"
     pagecolor="#ffffff"
     bordercolor="#000000"
     borderopacity="0.25"
     inkscape:showpageshadow="2"
     inkscape:pageopacity="0.0"
     inkscape:pagecheckerboard="0"
     inkscape:deskcolor="#d1d1d1"
     inkscape:zoom="1.9304348"
     inkscape:cx="9.5833332"
     inkscape:cy="22.533784"
     inkscape:window-width="1920"
     inkscape:window-height="1009"
     inkscape:window-x="-8"
     inkscape:window-y="-8"
     inkscape:window-maximized="1"
     inkscape:current-layer="svg8" /><g
     id="g8"
     transform="matrix(1.1666563,0,0,1.1666563,-10.737853,-88.123442)"><path
       id="path1-0"
       d="M 78.296875,87.535156 69.070313,111.53516 H 73.875 l 9.224609,-24.000004 z m 8.914063,0 -9.226563,24.000004 h 4.802734 l 9.226563,-24.000004 z m 46.087892,0.296875 -4.59766,2.472656 v 14.076173 c 0,5.3759 1.74145,7.1543 7.06446,7.1543 h 0.66992 v -4.25391 c -2.7745,0 -3.10547,-0.39755 -3.10547,-2.96875 l -0.0312,-0.0801 v -5.21875 h 3.13672 v -3.964842 h -3.13672 z m -34.445314,6.396485 c -4.7426,-0.0094 -8.596069,3.851193 -8.605469,8.621094 v 0.0332 c -9e-4,0.6282 0.06331,1.25579 0.191406,1.87109 0.1453,0.7115 0.378913,1.40159 0.695313,2.05469 l 0.01367,0.0273 0.0039,0.01 c 0.1033,0.2072 0.206478,0.41462 0.330078,0.60742 0.2399,0.4008 0.514859,0.78037 0.818359,1.13477 l 0.02734,0.0312 c 0.1444,0.1665 0.295978,0.33013 0.455078,0.48633 l 0.265625,0.2539 c 0.0843,0.0807 0.173878,0.15616 0.267578,0.22656 l 0.03125,0.0234 c 0.1779,0.1451 0.359982,0.28288 0.550782,0.42188 l 0.01953,0.0137 c 0.1823,0.1244 0.371953,0.23996 0.564453,0.35156 l 0.08203,0.0469 c 0.0152,0.008 0.03167,0.0152 0.04687,0.0234 l 0.0098,0.006 0.002,0.002 c 0.1717,0.093 0.346744,0.18577 0.527344,0.25977 l 0.08984,0.041 c 0.2098,0.0927 0.419207,0.17645 0.628907,0.25195 l 0.0293,0.0117 c 0.2097,0.0738 0.43119,0.13691 0.65039,0.19531 l 0.08398,0.0234 c 0.209799,0.0549 0.441868,0.10113 0.667968,0.14063 l 0.126953,0.0215 c 0.226,0.036 0.456707,0.0645 0.691407,0.0859 h 0.113281 c 0.2467,0.0172 0.495753,0.0293 0.751953,0.0293 0.1968,0 0.391231,-4.8e-4 0.582031,-0.0176 l 0.1875,-0.0137 c 0.1032,0 0.206294,-0.0127 0.308597,-0.0254 0.022,-0.003 0.0444,-0.005 0.0664,-0.008 0.0504,0 0.10123,-0.008 0.14844,-0.0156 0.0211,-0.003 0.0412,-0.007 0.0605,-0.01 0.1109,-0.0146 0.22087,-0.0319 0.33007,-0.0508 l 0.22071,-0.041 c 0.1049,-0.0188 0.2102,-0.0406 0.3125,-0.0664 l 0.21093,-0.0488 c 0.1531,-0.0404 0.30248,-0.0828 0.45118,-0.13086 0.0863,-0.0257 0.1706,-0.0545 0.2539,-0.084 l 0.0332,-0.0117 0.17969,-0.0664 c 0.1022,-0.0377 0.21138,-0.0791 0.30078,-0.1211 l 0.15039,-0.0644 c 0.086,-0.0369 0.16945,-0.0762 0.25195,-0.11914 l 0.12696,-0.0664 c 1.1785,-0.6042 2.19504,-1.48746 2.96094,-2.57226 l -3.62891,-2.10547 c -0.2296,0.2858 -0.49296,0.54122 -0.78516,0.76172 -0.0525,0.0404 -0.10701,0.0791 -0.16211,0.11523 -0.0859,0.0592 -0.17322,0.11282 -0.26172,0.16602 -0.0193,0.0106 -0.038,0.022 -0.0566,0.0332 -0.0264,0.0158 -0.0534,0.0313 -0.0801,0.0449 -0.1289,0.0695 -0.26068,0.13154 -0.39648,0.18554 -0.0481,0.0206 -0.0997,0.0403 -0.15039,0.0567 -0.1298,0.0481 -0.25848,0.089 -0.39258,0.125 l -0.0879,0.0254 c -0.132299,0.036 -0.269649,0.0626 -0.406249,0.0781 l -0.238282,0.0273 c -0.1294,0.015 -0.258672,0.0234 -0.388671,0.0254 -0.0872,-9.1e-4 -0.173113,-0.004 -0.257813,-0.0117 l -0.146484,-0.0156 c -0.0661,0 -0.132866,-0.009 -0.197266,-0.0176 -0.0168,-0.002 -0.03418,-0.004 -0.05078,-0.006 l -0.173828,-0.0293 c -0.0511,-1e-5 -0.102597,-0.0117 -0.154297,-0.0234 l -0.01367,-0.004 c -0.0118,-0.003 -0.02346,-0.003 -0.03516,-0.006 l -0.179688,-0.043 -0.07617,-0.0176 c -0.0791,-0.0206 -0.206856,-0.0574 -0.285156,-0.084 l -0.07422,-0.0254 c -0.0877,-0.0292 -0.174665,-0.0627 -0.259765,-0.0996 l -0.126953,-0.0566 c -0.0509,-0.0226 -0.09909,-0.0461 -0.146485,-0.0703 l -0.02148,-0.0117 -0.01367,-0.006 -0.111328,-0.0606 c -0.0611,-0.0344 -0.120135,-0.0705 -0.177735,-0.10742 -0.0113,-0.007 -0.0212,-0.0125 -0.0293,-0.0176 l -0.01563,-0.0117 c -0.0206,-0.0131 -0.03118,-0.0193 -0.05078,-0.0332 -0.0309,-0.0223 -0.116228,-0.0841 -0.173828,-0.12695 l -0.07813,-0.0605 c -0.0593,-0.0464 -0.112969,-0.0958 -0.167969,-0.14648 l -0.06445,-0.0586 c -0.0567,-0.0532 -0.110762,-0.11047 -0.164062,-0.16797 l -0.04883,-0.0547 c -0.0533,-0.0609 -0.104397,-0.12426 -0.154297,-0.18946 l -0.03711,-0.0488 c -0.0237,-0.0325 -0.04731,-0.0658 -0.07031,-0.0977 -0.0214,-0.0298 -0.0417,-0.0589 -0.0625,-0.0879 l -0.01367,-0.0195 -0.02539,-0.0391 c -0.049,-0.0773 -0.09372,-0.15482 -0.136718,-0.23632 v -0.002 c -2.03e-4,-0.001 3.74e-4,-0.005 0,-0.006 -0.0026,-0.005 -0.008,-0.0132 -0.01172,-0.0176 -0.0012,-0.001 -0.0029,-0.002 -0.0039,-0.004 -0.0169,-0.0323 -0.03303,-0.0606 -0.04883,-0.0879 -0.0261,-0.0451 -0.05207,-0.0865 -0.07617,-0.14258 v -0.002 c -0.0016,-0.007 -0.0084,-0.0287 -0.01563,-0.0469 -0.0061,-0.0152 -0.01142,-0.0288 -0.01172,-0.0312 -0.0084,-0.0202 -0.01513,-0.0331 -0.01953,-0.043 -0.0028,-0.006 -0.0056,-0.0103 -0.0078,-0.0156 -0.0093,-0.0226 -0.01433,-0.0462 -0.04883,-0.17188 v -0.002 l -0.0078,-0.0254 c -0.1006,-0.3675 -0.08107,-0.68232 -0.07227,-0.82812 v -0.002 c 0.0011,-0.0187 0.0015,-0.0341 0.002,-0.0469 4e-4,-0.01 3e-4,-0.0173 0,-0.0234 l 12.429684,-0.008 -0.008,-1.09375 c 0,-4.793102 -3.4747,-8.621095 -8.537105,-8.621095 z m -55.919922,0.162109 c -4.74261,0 -8.585938,3.837466 -8.585938,8.572265 0,4.7348 3.843328,8.57227 8.585938,8.57227 3.38871,0 6.07689,-1.73882 7.52539,-4.32032 l -3.796875,-2.18554 c -1.1468,2.07 -3.755545,2.81978 -5.828125,1.67578 -2.07258,-1.1449 -2.824484,-3.75111 -1.677734,-5.82031 1.14675,-2.069104 3.757528,-2.818732 5.830078,-1.673832 0.6688,0.369 1.225834,0.910062 1.615235,1.568362 l 3.791015,-2.183597 c -1.4631,-2.51891 -4.121074,-4.205078 -7.458984,-4.205078 z m 17.496094,0 c -4.943701,-0.01888 -8.928163,4.135384 -8.601563,9.146485 0.276,4.2285 3.692981,7.66651 7.925781,7.97461 5.0169,0.3647 9.209616,-3.58003 9.228516,-8.51563 v -0.0332 c 0.024,-4.710696 -3.779547,-8.548232 -8.498047,-8.572262 z m 57.654292,0 c -4.7426,0 -8.58789,3.837466 -8.58789,8.572265 0,4.7348 3.84529,8.57227 8.58789,8.57227 3.3887,0 6.0769,-1.73882 7.5254,-4.32032 l -3.79297,-2.18554 c -1.1459,2.0717 -3.75774,2.82484 -5.83203,1.68164 -2.07511,-1.1431 -2.82755,-3.75147 -1.68165,-5.82227 1.145,-2.071798 3.75498,-2.823686 5.83008,-1.679686 l 0.002,0.002 c 0.0431,0.0242 0.89709,0.502559 1.61719,1.568356 l 3.78906,-2.183591 c -1.46314,-2.518956 -4.11908,-4.205124 -7.45708,-4.205124 z m -19.267574,3.544922 c 1.991804,0.0223 3.959954,0.892419 4.376954,3.136723 h -8.716797 c 0.332699,-1.786904 2.439243,-3.158123 4.339843,-3.136723 z m -38.466797,0.712891 c 2.4155,0 4.373047,1.955582 4.373047,4.367192 -0.0026,2.41069 -1.959247,4.36273 -4.373047,4.36523 -2.4147,0 -4.373046,-1.95454 -4.373046,-4.36523 0,-2.41161 1.958346,-4.367192 4.373046,-4.367192 z"
       style="fill:#00005a;fill-opacity:1" /><path
       id="path8-5"
       d="m 155.42188,88.371094 -8.23242,23.164066 h 4.70703 l 1.37695,-3.96485 h 8.75391 l 1.375,3.96485 h 4.70703 L 159.8711,88.371094 Z m 14.32617,0 v 23.164066 h 4.59961 V 88.371094 Z m -12.10352,6.408203 2.98047,8.617183 h -5.95898 z m -15.59765,12.228513 c -0.646,0 -1.18242,0.21387 -1.60742,0.63867 -0.426,0.4249 -0.63672,0.95992 -0.63672,1.60352 0,0.6454 0.21072,1.18835 0.63672,1.62695 0.425,0.4402 0.96142,0.65821 1.60742,0.65821 0.616,0 1.13745,-0.21801 1.56445,-0.65821 0.424,-0.4386 0.63672,-0.98155 0.63672,-1.62695 0,-0.6445 -0.21172,-1.17862 -0.63672,-1.60352 -0.427,-0.4248 -0.94845,-0.63867 -1.56445,-0.63867 z"
       style="fill:#28faa9;fill-opacity:1" /></g></svg>
