<svg width="24" height="24" viewBox="0 0 24 24" fill="none" xmlns="http://www.w3.org/2000/svg">
<path d="M12.3428 23.6572C18.7809 23.6572 24 18.4381 24 12C24 5.56198 18.7809 0.342896 12.3428 0.342896C5.90475 0.342896 0.685669 5.56198 0.685669 12C0.685669 18.4381 5.90475 23.6572 12.3428 23.6572Z" fill="#E74D89"/>
<path d="M11.9997 0C5.38305 0 0 5.38352 0 12.0002C0 18.6168 5.38305 24 11.9997 24C18.6166 24 24 18.6172 24 12.0002C24 5.38352 18.6166 0 11.9997 0ZM19.8959 5.66376C21.2647 7.36238 22.0967 9.50764 22.135 11.8452C21.6795 11.7516 19.7506 11.3915 17.4456 11.3915C16.7018 11.3915 15.919 11.4289 15.1342 11.5259C15.068 11.3646 15.0017 11.2039 14.932 11.0416C14.7285 10.5623 14.5092 10.0866 14.2821 9.61812C17.8298 8.1546 19.541 6.12353 19.8959 5.66376ZM11.9997 1.87849C14.5566 1.87849 16.8939 2.82969 18.6792 4.39628C18.3966 4.78228 16.864 6.70052 13.4431 7.99461C11.8597 5.09654 10.1266 2.69664 9.71418 2.13953C10.4492 1.9691 11.2142 1.87849 11.9997 1.87849ZM7.64499 2.86203C7.99451 3.34403 9.73032 5.76953 11.3545 8.64435C6.99574 9.79159 3.12514 9.86636 2.19096 9.86636H2.09172C2.76284 6.76957 4.85255 4.1962 7.64499 2.86203ZM1.86163 12.016C1.86163 11.9325 1.86297 11.8489 1.86566 11.7657C1.92622 11.7664 2.0157 11.7664 2.13176 11.7664C3.38989 11.7664 7.75701 11.6623 12.2573 10.3251C12.5305 10.86 12.7905 11.403 13.0324 11.9456C12.9187 11.9783 12.8067 12.0109 12.6953 12.0473C7.62817 13.686 4.84313 18.024 4.41456 18.733C2.82676 16.9418 1.86163 14.59 1.86163 12.016ZM11.9997 22.1528C9.67448 22.1528 7.52859 21.3643 5.81633 20.0423C6.10597 19.4737 8.20812 15.6841 13.761 13.749C13.7644 13.7476 13.7681 13.7463 13.7721 13.7453C15.1645 17.3749 15.7542 20.4212 15.916 21.3653C14.711 21.8726 13.3876 22.1528 11.9997 22.1528ZM17.742 20.366C17.6061 19.5849 17.0598 16.7299 15.7989 13.2478C16.5061 13.1376 17.194 13.0942 17.8392 13.0942C19.9582 13.0942 21.6156 13.5587 22.0008 13.6766C21.5429 16.4416 19.9619 18.8344 17.742 20.366Z" fill="#B2215A"/>
</svg>
