<svg width="24" height="24" viewBox="0 0 24 24" fill="none" xmlns="http://www.w3.org/2000/svg">
<g clip-path="url(#clip0)">
<path d="M1.63636 21.5H5.45455V11.7121L0 7.39392V19.7727C0 20.7285 0.733636 21.5 1.63636 21.5Z" fill="#4285F4"/>
<path d="M18.5454 21.5H22.3636C23.269 21.5 24 20.7256 24 19.7727V7.39392L18.5454 11.7121" fill="#34A853"/>
<path d="M18.5454 4.22729V11.7121L24 7.39396V5.09093C24 2.95487 21.69 1.73714 20.0727 3.0182" fill="#FBBC04"/>
<path d="M5.45459 11.7121V4.22729L12 9.40911L18.5455 4.22729V11.7121L12 16.894" fill="#EA4335"/>
<path d="M0 5.09117V7.3942L5.45455 11.7124V4.22753L3.92727 3.01844C2.30727 1.73738 0 2.95511 0 5.09117Z" fill="#C5221F"/>
</g>
<defs>
<clipPath id="clip0">
<rect width="24" height="19" fill="white" transform="translate(0 2.5)"/>
</clipPath>
</defs>
</svg>
