<svg width="229" height="64" viewBox="0 0 229 64" fill="none" xmlns="http://www.w3.org/2000/svg">
<path d="M85.2036 15.7031H87.8124V29.5064L101.087 15.7031H104.456L94.5489 25.8079L104.885 38.8187H101.616L92.7327 27.6242L87.8124 32.6105V38.8187H85.2036V15.7031Z" fill="black"/>
<path d="M118.159 15.5391H120.603L131.137 38.8198H128.33L125.622 32.7106H113.041L110.3 38.8198H107.625L118.159 15.5391ZM124.598 30.3661L119.348 18.5771L114.064 30.3661H124.598Z" fill="black"/>
<path d="M136.585 15.7031H139.194V38.8187H136.585V15.7031Z" fill="black"/>
<path d="M146.625 15.7031H149.234V29.5064L162.509 15.7031H165.877L155.971 25.8079L166.307 38.8187H163.038L154.155 27.6242L149.234 32.6105V38.8187H146.625V15.7031Z" fill="black"/>
<path d="M181.762 39.2148C180 39.2148 178.398 38.8969 176.958 38.2571C175.517 37.6173 174.279 36.7546 173.243 35.6649C172.206 34.5751 171.41 33.3079 170.848 31.8673C170.287 30.4267 170.006 28.9118 170.006 27.3268V27.2607C170.006 25.6756 170.291 24.1566 170.865 22.7036C171.439 21.2507 172.239 19.9793 173.276 18.8896C174.312 17.7998 175.554 16.9289 177.007 16.2808C178.46 15.6327 180.066 15.3066 181.828 15.3066C183.591 15.3066 185.192 15.6245 186.633 16.2643C188.074 16.9041 189.312 17.7668 190.348 18.8565C191.384 19.9463 192.181 21.2135 192.742 22.6541C193.304 24.0947 193.584 25.6096 193.584 27.1947C193.605 27.2153 193.605 27.2401 193.584 27.2607C193.584 28.8458 193.299 30.3648 192.726 31.8178C192.152 33.2708 191.351 34.5421 190.315 35.6319C189.279 36.7216 188.037 37.5926 186.584 38.2406C185.131 38.8887 183.525 39.2148 181.762 39.2148ZM181.828 36.8042C183.149 36.8042 184.367 36.5565 185.477 36.0611C186.588 35.5658 187.541 34.8889 188.334 34.0303C189.126 33.1717 189.75 32.1686 190.199 31.0253C190.649 29.8819 190.876 28.6476 190.876 27.3268V27.2607C190.876 25.9398 190.649 24.7015 190.199 23.5457C189.75 22.3899 189.114 21.3827 188.301 20.5242C187.488 19.6656 186.522 18.9845 185.411 18.4768C184.301 17.9691 183.083 17.7173 181.762 17.7173C180.441 17.7173 179.224 17.9649 178.113 18.4603C177.003 18.9556 176.049 19.6326 175.257 20.4911C174.464 21.3497 173.841 22.3528 173.391 23.4962C172.941 24.6396 172.714 25.8738 172.714 27.1947V27.2607C172.714 28.5816 172.941 29.8199 173.391 30.9757C173.841 32.1315 174.477 33.1387 175.29 33.9973C176.103 34.8558 177.069 35.5369 178.179 36.0446C179.29 36.5524 180.507 36.8042 181.828 36.8042Z" fill="black"/>
<path fill-rule="evenodd" clip-rule="evenodd" d="M39.7026 51.2563H69.757C70.888 51.2563 71.9117 50.7981 72.6547 50.0551L36.8008 14.2012C36.0578 14.9442 35.5996 15.9679 35.5996 17.0989V47.1533C35.6037 49.4236 37.4365 51.2563 39.7026 51.2563Z" fill="#0555C0"/>
<path fill-rule="evenodd" clip-rule="evenodd" d="M69.7578 13.0039H39.7034C37.4414 13.0039 35.6045 14.8408 35.6045 17.1028V47.1572C35.6045 48.2882 36.0627 49.3119 36.8057 50.0549L72.6596 14.201C71.9166 13.4621 70.8888 13.0039 69.7578 13.0039Z" fill="#F7941E"/>
<path fill-rule="evenodd" clip-rule="evenodd" d="M39.7022 51.2563H57.9099L36.433 14.6387C35.917 15.3239 35.6074 16.1742 35.6074 17.103V47.1574C35.6033 49.4235 37.436 51.2563 39.7022 51.2563Z" fill="#2491EB"/>
<path fill-rule="evenodd" clip-rule="evenodd" d="M39.7034 13.0041C37.4414 13.0041 35.6045 14.841 35.6045 17.103V47.1574C35.6045 48.082 35.9141 48.9324 36.43 49.6176L57.9069 13H39.7034V13.0041Z" fill="#F24406"/>
<path d="M88.2629 49.1509C87.7304 49.1509 87.2433 49.0643 86.8017 48.8909C86.36 48.7175 85.939 48.4492 85.5386 48.086L86.005 47.5329C86.3559 47.8507 86.7067 48.086 87.0617 48.2428C87.4167 48.3997 87.8254 48.4781 88.2918 48.4781C88.7417 48.4781 89.105 48.3708 89.3733 48.1603C89.6416 47.9498 89.7778 47.6773 89.7778 47.3471V47.3265C89.7778 47.1737 89.7531 47.0375 89.6994 46.9137C89.6499 46.7899 89.559 46.6784 89.4311 46.5752C89.3031 46.472 89.1256 46.3812 88.9027 46.2987C88.6798 46.2161 88.3867 46.1377 88.04 46.0592C87.6561 45.9767 87.3259 45.8817 87.0411 45.7744C86.7563 45.6671 86.5251 45.535 86.3394 45.3823C86.1536 45.2296 86.0174 45.0521 85.9266 44.8498C85.8358 44.6475 85.7945 44.4081 85.7945 44.1357V44.1151C85.7945 43.855 85.8482 43.6115 85.9555 43.3927C86.0628 43.1698 86.2155 42.9799 86.4137 42.8148C86.6118 42.6497 86.843 42.5259 87.1113 42.435C87.3796 42.3442 87.6685 42.2988 87.9863 42.2988C88.4776 42.2988 88.9027 42.369 89.2701 42.5052C89.6333 42.6414 89.9883 42.8478 90.3309 43.1203L89.8934 43.7023C89.5838 43.4463 89.2701 43.2647 88.9564 43.1492C88.6427 43.0336 88.3125 42.9758 87.9698 42.9758C87.5323 42.9758 87.1856 43.079 86.9296 43.2854C86.6737 43.4918 86.5499 43.7477 86.5499 44.0531V44.0738C86.5499 44.2306 86.5747 44.3751 86.6242 44.4989C86.6737 44.6228 86.7687 44.7383 86.9008 44.8415C87.0328 44.9447 87.2186 45.0397 87.4539 45.1264C87.6892 45.213 87.9905 45.2915 88.3579 45.3699C89.1009 45.535 89.6498 45.762 90.0007 46.0551C90.3516 46.3482 90.5291 46.7486 90.5291 47.2563V47.2769C90.5291 47.5618 90.4713 47.8218 90.3598 48.053C90.2484 48.2841 90.0915 48.4822 89.8934 48.6474C89.6953 48.8125 89.4558 48.9404 89.1752 49.0271C88.8986 49.1055 88.5931 49.1509 88.2629 49.1509Z" fill="black"/>
<path d="M104.448 46.4137L101.674 42.3809H102.59L104.836 45.7161L107.098 42.3809H107.973L105.199 46.4013V49.0514H104.448V46.4137Z" fill="black"/>
<path d="M121.772 49.1509C121.239 49.1509 120.752 49.0643 120.31 48.8909C119.869 48.7175 119.448 48.4492 119.047 48.086L119.514 47.5329C119.865 47.8507 120.216 48.086 120.571 48.2428C120.926 48.3997 121.334 48.4781 121.801 48.4781C122.251 48.4781 122.614 48.3708 122.882 48.1603C123.15 47.9498 123.287 47.6773 123.287 47.3471V47.3265C123.287 47.1737 123.262 47.0375 123.208 46.9137C123.159 46.7899 123.068 46.6784 122.94 46.5752C122.812 46.472 122.634 46.3812 122.412 46.2987C122.189 46.2161 121.896 46.1377 121.549 46.0592C121.165 45.9767 120.835 45.8817 120.55 45.7744C120.265 45.6671 120.034 45.535 119.848 45.3823C119.662 45.2296 119.526 45.0521 119.435 44.8498C119.345 44.6475 119.303 44.4081 119.303 44.1357V44.1151C119.303 43.855 119.357 43.6115 119.464 43.3927C119.572 43.1698 119.724 42.9799 119.922 42.8148C120.121 42.6497 120.352 42.5259 120.62 42.435C120.888 42.3442 121.177 42.2988 121.495 42.2988C121.986 42.2988 122.412 42.369 122.779 42.5052C123.142 42.6414 123.497 42.8478 123.84 43.1203L123.402 43.7023C123.093 43.4463 122.779 43.2647 122.465 43.1492C122.151 43.0336 121.821 42.9758 121.479 42.9758C121.041 42.9758 120.694 43.079 120.438 43.2854C120.183 43.4918 120.059 43.7477 120.059 44.0531V44.0738C120.059 44.2306 120.083 44.3751 120.133 44.4989C120.183 44.6228 120.277 44.7383 120.41 44.8415C120.542 44.9447 120.727 45.0397 120.963 45.1264C121.198 45.213 121.499 45.2915 121.867 45.3699C122.61 45.535 123.159 45.762 123.51 46.0551C123.86 46.3482 124.038 46.7486 124.038 47.2563V47.2769C124.038 47.5618 123.98 47.8218 123.869 48.053C123.757 48.2841 123.6 48.4822 123.402 48.6474C123.204 48.8125 122.965 48.9404 122.684 49.0271C122.407 49.1055 122.102 49.1509 121.772 49.1509Z" fill="black"/>
<path d="M137.636 43.0785H135.395V42.3809H140.629V43.0785H138.388V49.0555H137.636V43.0785Z" fill="black"/>
<path d="M152.338 42.3809H157.159V43.0578H153.089V45.3529H156.73V46.0298H153.089V48.3744H157.205V49.0514H152.334V42.3809H152.338Z" fill="black"/>
<path d="M169.017 42.3809H169.78L172.211 46.0216L174.643 42.3809H175.406V49.0514H174.655V43.6481L172.224 47.2227H172.187L169.755 43.6563V49.0514H169.021V42.3809H169.017Z" fill="black"/>
<path d="M189.884 49.1509C189.352 49.1509 188.864 49.0643 188.423 48.8909C187.981 48.7175 187.56 48.4492 187.16 48.086L187.626 47.5329C187.977 47.8507 188.328 48.086 188.683 48.2428C189.038 48.3997 189.446 48.4781 189.913 48.4781C190.363 48.4781 190.726 48.3708 190.994 48.1603C191.263 47.9498 191.399 47.6773 191.399 47.3471V47.3265C191.399 47.1737 191.374 47.0375 191.32 46.9137C191.271 46.7899 191.18 46.6784 191.052 46.5752C190.924 46.472 190.747 46.3812 190.524 46.2987C190.301 46.2161 190.008 46.1377 189.661 46.0592C189.277 45.9767 188.947 45.8817 188.662 45.7744C188.377 45.6671 188.146 45.535 187.96 45.3823C187.775 45.2296 187.638 45.0521 187.548 44.8498C187.457 44.6475 187.416 44.4081 187.416 44.1357V44.1151C187.416 43.855 187.469 43.6115 187.577 43.3927C187.684 43.1698 187.837 42.9799 188.035 42.8148C188.233 42.6497 188.464 42.5259 188.732 42.435C189.001 42.3442 189.29 42.2988 189.607 42.2988C190.099 42.2988 190.524 42.369 190.891 42.5052C191.254 42.6414 191.609 42.8478 191.952 43.1203L191.514 43.7023C191.205 43.4463 190.891 43.2647 190.577 43.1492C190.264 43.0336 189.934 42.9758 189.591 42.9758C189.153 42.9758 188.807 43.079 188.551 43.2854C188.295 43.4918 188.171 43.7477 188.171 44.0531V44.0738C188.171 44.2306 188.196 44.3751 188.245 44.4989C188.295 44.6228 188.39 44.7383 188.522 44.8415C188.654 44.9447 188.84 45.0397 189.075 45.1264C189.31 45.213 189.612 45.2915 189.979 45.3699C190.722 45.535 191.271 45.762 191.622 46.0551C191.973 46.3482 192.15 46.7486 192.15 47.2563V47.2769C192.15 47.5618 192.092 47.8218 191.981 48.053C191.869 48.2841 191.713 48.4822 191.514 48.6474C191.316 48.8125 191.077 48.9404 190.796 49.0271C190.52 49.1055 190.214 49.1509 189.884 49.1509Z" fill="black"/>
</svg>
