<svg width="24" height="24" viewBox="0 0 24 24" fill="none" xmlns="http://www.w3.org/2000/svg">
<rect x="1" y="1" width="22" height="22" rx="2" fill="#0A66C2"/>
<path d="M7.49412 9.43529H4.25882V19.7882H7.49412V9.43529ZM7.7853 5.87647C7.787 5.63175 7.74049 5.38908 7.64841 5.16234C7.55633 4.93559 7.42049 4.7292 7.24864 4.55495C7.0768 4.3807 6.87232 4.24201 6.64687 4.14679C6.42142 4.05157 6.17943 4.00169 5.93471 4H5.87647C5.3788 4 4.90151 4.1977 4.54961 4.54961C4.1977 4.90151 4 5.3788 4 5.87647C4 6.37414 4.1977 6.85143 4.54961 7.20334C4.90151 7.55524 5.3788 7.75294 5.87647 7.75294C6.12121 7.75896 6.36474 7.7167 6.59314 7.62857C6.82155 7.54044 7.03034 7.40817 7.20761 7.23932C7.38488 7.07047 7.52713 6.86834 7.62626 6.64449C7.72538 6.42064 7.77942 6.17945 7.7853 5.93471V5.87647ZM19.7882 13.4988C19.7882 10.3865 17.8082 9.17647 15.8412 9.17647C15.1971 9.14422 14.5559 9.2814 13.9814 9.57432C13.4069 9.86725 12.9192 10.3057 12.5671 10.8459H12.4765V9.43529H9.4353V19.7882H12.6706V14.2818C12.6238 13.7178 12.8015 13.1582 13.1649 12.7244C13.5284 12.2907 14.0483 12.0179 14.6118 11.9653H14.7347C15.7635 11.9653 16.5271 12.6124 16.5271 14.2429V19.7882H19.7624L19.7882 13.4988Z" fill="white"/>
</svg>
