<?xml version="1.0" encoding="UTF-8" standalone="no"?>
<svg
   width="216.21622"
   height="105.40541"
   viewBox="0 0 216.21622 105.40541"
   fill="none"
   version="1.1"
   id="svg10"
   sodipodi:docname="logo.svg"
   inkscape:version="1.1.1 (3bf5ae0d25, 2021-09-20)"
   xmlns:inkscape="http://www.inkscape.org/namespaces/inkscape"
   xmlns:sodipodi="http://sodipodi.sourceforge.net/DTD/sodipodi-0.dtd"
   xmlns="http://www.w3.org/2000/svg"
   xmlns:svg="http://www.w3.org/2000/svg">
  <defs
     id="defs14" />
  <sodipodi:namedview
     id="namedview12"
     pagecolor="#ffffff"
     bordercolor="#666666"
     borderopacity="1.0"
     inkscape:pageshadow="2"
     inkscape:pageopacity="0.0"
     inkscape:pagecheckerboard="0"
     showgrid="false"
     showguides="true"
     inkscape:guide-bbox="true"
     inkscape:object-paths="true"
     inkscape:snap-smooth-nodes="true"
     inkscape:snap-page="true"
     inkscape:zoom="4.6757436"
     inkscape:cx="77.100036"
     inkscape:cy="43.736359"
     inkscape:window-width="2560"
     inkscape:window-height="1017"
     inkscape:window-x="-8"
     inkscape:window-y="-8"
     inkscape:window-maximized="1"
     inkscape:current-layer="svg10">
    <sodipodi:guide
       position="170.27027,29.729734"
       orientation="0,-1"
       id="guide22" />
    <sodipodi:guide
       position="121.62162,75.675677"
       orientation="0,-1"
       id="guide131" />
    <sodipodi:guide
       position="156.21928,105.40541"
       orientation="0,-1"
       id="guide133" />
    <sodipodi:guide
       position="0,100"
       orientation="0,216.21622"
       id="guide135" />
    <sodipodi:guide
       position="216.21622,100"
       orientation="100,0"
       id="guide137" />
    <sodipodi:guide
       position="216.21622,1.4305115e-06"
       orientation="0,-216.21622"
       id="guide139" />
    <sodipodi:guide
       position="0,1.4305115e-06"
       orientation="-100,0"
       id="guide141" />
  </sodipodi:namedview>
  <g
     id="g20"
     transform="matrix(0.90501609,0,0,0.90501609,0,-35.777101)">
    <path
       d="M 20.904511,93.286466 C 20.904511,81.741203 11.545263,72.381955 0,72.381955 V 84.32739 c 4.9479634,0 8.9590763,4.011128 8.9590763,8.959076 v 8.994244 c 0,11.54436 9.3585767,20.90294 20.9029437,20.90294 0.548967,0 1.092932,-0.0209 1.631149,-0.0627 2.500851,-0.0896 4.949442,-0.38375 7.32957,-0.86679 v 9.85498 c 0,6.59761 -5.348196,11.94543 -11.94551,11.94543 V 156 c 13.194554,0 23.890945,-10.69639 23.890945,-23.89087 v -14.12548 c 4.835512,-2.55632 9.146768,-5.97159 12.730623,-10.04267 2.479723,8.7772 10.548342,15.20907 20.119248,15.20907 11.545263,0 20.904515,-9.35924 20.904515,-20.90451 V 78.354672 c 0,-3.298657 -2.67429,-5.972717 -5.972721,-5.972717 -3.298433,0 -5.972717,2.67406 -5.972717,5.972717 v 23.890868 c 0,4.94795 -4.011427,8.95908 -8.959077,8.95908 -4.94765,0 -8.959076,-4.01113 -8.959076,-8.95908 V 78.354672 c 0,-3.298657 -2.67406,-5.972717 -5.972718,-5.972717 -3.298657,0 -5.972717,2.67406 -5.972717,5.972717 0,10.200954 -4.649686,19.315993 -11.94536,25.341198 v -4.436686 h -0.0031 V 78.354672 c 0,-3.298657 -2.67406,-5.972717 -5.972718,-5.972717 -3.298657,0 -5.972717,2.67406 -5.972717,5.972717 v 23.926038 c 0,4.63863 -3.525919,8.45378 -8.043832,8.91152 -0.303041,0.008 -0.607127,0.0124 -0.912183,0.0124 v 0.0336 h -0.0016 c -4.947053,0 -8.957509,-4.01039 -8.957509,-8.95751 z"
       fill="#160044"
       id="path2"
       style="stroke-width:0.74659" />
    <circle
       cx="223.97691"
       cy="54.463802"
       r="8.9590759"
       fill="#fc738e"
       id="circle4"
       style="stroke-width:0.74659" />
    <path
       fill-rule="evenodd"
       clip-rule="evenodd"
       d="m 134.38614,72.381955 c -11.54526,0 -20.90451,9.359248 -20.90451,20.904511 v 8.959074 c 0,11.54527 9.35925,20.90451 20.90451,20.90451 3.06849,0 6.06455,-0.30834 8.95908,-0.8959 v 9.85498 c 0,6.59761 -5.34782,11.94543 -11.94543,11.94543 V 156 c 13.19448,0 23.89087,-10.69639 23.89087,-23.89087 v -14.12548 c 4.83566,-2.55632 9.14721,-5.97159 12.73084,-10.04267 2.47943,8.7772 10.54857,15.20907 20.1191,15.20907 11.54526,0 20.90451,-9.35924 20.90451,-20.90451 V 78.354672 c 0,-3.298657 -2.67428,-5.972717 -5.97271,-5.972717 -3.29844,0 -5.97272,2.67406 -5.97272,5.972717 v 23.890868 c 0,4.94795 -4.01143,8.95908 -8.95908,8.95908 -4.94765,0 -8.95907,-4.01113 -8.95907,-8.95908 V 78.354672 c 0,-3.298657 -2.67429,-5.972717 -5.97272,-5.972717 -3.29844,0 -5.97272,2.67406 -5.97272,5.972717 0,10.201028 -4.64976,19.316067 -11.94543,25.341268 V 93.286466 c 0,-11.545263 -9.35925,-20.904511 -20.90452,-20.904511 z m 8.95908,20.904511 c 0,-4.947948 -4.01143,-8.959076 -8.95908,-8.959076 -4.94765,0 -8.95907,4.011128 -8.95907,8.959076 v 8.959074 c 0,4.94795 4.01142,8.95908 8.95907,8.95908 4.94765,0 8.95908,-4.01113 8.95908,-8.95908 z"
       fill="#fc738e"
       id="path6"
       style="stroke-width:0.74659" />
    <path
       d="m 218.00419,78.354672 c 0,-3.298657 2.67428,-5.972717 5.97272,-5.972717 3.29843,0 5.97271,2.67406 5.97271,5.972717 v 23.890868 c 0,4.94795 4.01143,8.95908 8.95908,8.95908 v 11.94543 c -11.54526,0 -20.90451,-9.35924 -20.90451,-20.90451 z"
       fill="#fc738e"
       id="path8"
       style="stroke-width:0.74659" />
  </g>
</svg>
