<svg width="231" height="64" viewBox="0 0 231 64" fill="none" xmlns="http://www.w3.org/2000/svg">
<path d="M49.6113 28.5653C49.5431 27.8778 49.2505 27.3437 48.7334 26.9631C48.2164 26.5824 47.5147 26.392 46.6283 26.392C46.0261 26.392 45.5175 26.4773 45.1028 26.6477C44.688 26.8125 44.3698 27.0426 44.1482 27.3381C43.9323 27.6335 43.8244 27.9688 43.8244 28.3438C43.813 28.6562 43.8783 28.929 44.0204 29.1619C44.1681 29.3949 44.3698 29.5966 44.6255 29.767C44.8812 29.9318 45.1766 30.0767 45.5119 30.2017C45.8471 30.321 46.205 30.4233 46.5857 30.5085L48.1539 30.8835C48.9153 31.054 49.6141 31.2812 50.2505 31.5653C50.8869 31.8494 51.438 32.1989 51.9039 32.6136C52.3698 33.0284 52.7306 33.517 52.9863 34.0795C53.2476 34.642 53.3812 35.2869 53.3869 36.0142C53.3812 37.0824 53.1084 38.0085 52.5687 38.7926C52.0346 39.571 51.2619 40.1761 50.2505 40.608C49.2448 41.0341 48.0317 41.2472 46.6113 41.2472C45.2022 41.2472 43.9749 41.0312 42.9295 40.5994C41.8897 40.1676 41.0772 39.5284 40.492 38.6818C39.9124 37.8295 39.6084 36.7756 39.58 35.5199H43.1511C43.1908 36.1051 43.3584 36.5937 43.6539 36.9858C43.955 37.3722 44.3556 37.6648 44.8556 37.8636C45.3613 38.0568 45.9323 38.1534 46.5687 38.1534C47.1937 38.1534 47.7363 38.0625 48.1965 37.8807C48.6624 37.6989 49.0232 37.446 49.2789 37.1222C49.5346 36.7983 49.6624 36.4261 49.6624 36.0057C49.6624 35.6136 49.5459 35.2841 49.313 35.017C49.0857 34.75 48.7505 34.5227 48.3073 34.3352C47.8698 34.1477 47.3329 33.9773 46.6965 33.8239L44.7959 33.3466C43.3244 32.9886 42.1624 32.429 41.3101 31.6676C40.4579 30.9062 40.0346 29.8807 40.0403 28.5909C40.0346 27.5341 40.3158 26.6108 40.884 25.821C41.4579 25.0312 42.2448 24.4148 43.2448 23.9716C44.2448 23.5284 45.3812 23.3068 46.6539 23.3068C47.9494 23.3068 49.08 23.5284 50.0459 23.9716C51.0175 24.4148 51.7732 25.0312 52.313 25.821C52.8528 26.6108 53.1312 27.5256 53.1482 28.5653H49.6113ZM55.8009 41V27.9091H59.4316V41H55.8009ZM57.6248 26.2216C57.085 26.2216 56.6219 26.0426 56.2356 25.6847C55.8549 25.321 55.6646 24.8864 55.6646 24.3807C55.6646 23.8807 55.8549 23.4517 56.2356 23.0938C56.6219 22.7301 57.085 22.5483 57.6248 22.5483C58.1646 22.5483 58.6248 22.7301 59.0055 23.0938C59.3918 23.4517 59.585 23.8807 59.585 24.3807C59.585 24.8864 59.3918 25.321 59.0055 25.6847C58.6248 26.0426 58.1646 26.2216 57.6248 26.2216ZM67.1638 41.2131C66.1695 41.2131 65.269 40.9574 64.4621 40.446C63.661 39.929 63.0246 39.1705 62.553 38.1705C62.0871 37.1648 61.8542 35.9318 61.8542 34.4716C61.8542 32.9716 62.0957 31.7244 62.5786 30.7301C63.0616 29.7301 63.7036 28.983 64.5047 28.4886C65.3116 27.9886 66.1951 27.7386 67.1553 27.7386C67.8883 27.7386 68.4991 27.8636 68.9877 28.1136C69.482 28.358 69.8797 28.6648 70.1809 29.0341C70.4877 29.3977 70.7207 29.7557 70.8797 30.108H70.9905V23.5455H74.6127V41H71.0332V38.9034H70.8797C70.7093 39.267 70.4678 39.6278 70.1553 39.9858C69.8485 40.3381 69.4479 40.6307 68.9536 40.8636C68.465 41.0966 67.8684 41.2131 67.1638 41.2131ZM68.3144 38.3239C68.8996 38.3239 69.394 38.1648 69.7974 37.8466C70.2065 37.5227 70.519 37.071 70.7349 36.4915C70.9565 35.9119 71.0672 35.233 71.0672 34.4545C71.0672 33.6761 70.9593 33 70.7434 32.4261C70.5275 31.8523 70.215 31.4091 69.8059 31.0966C69.3968 30.7841 68.8996 30.6278 68.3144 30.6278C67.7178 30.6278 67.215 30.7898 66.8059 31.1136C66.3968 31.4375 66.0871 31.8864 65.8769 32.4602C65.6667 33.0341 65.5616 33.6989 65.5616 34.4545C65.5616 35.2159 65.6667 35.8892 65.8769 36.4744C66.0928 37.054 66.4025 37.5085 66.8059 37.8381C67.215 38.1619 67.7178 38.3239 68.3144 38.3239ZM83.5637 41.2557C82.2171 41.2557 81.058 40.983 80.0864 40.4375C79.1205 39.8864 78.3762 39.108 77.8535 38.1023C77.3307 37.0909 77.0694 35.8949 77.0694 34.5142C77.0694 33.1676 77.3307 31.9858 77.8535 30.9688C78.3762 29.9517 79.112 29.1591 80.0609 28.5909C81.0154 28.0227 82.1347 27.7386 83.4188 27.7386C84.2824 27.7386 85.0864 27.8778 85.8307 28.1562C86.5807 28.429 87.2342 28.8409 87.791 29.392C88.3535 29.9432 88.791 30.6364 89.1035 31.4716C89.416 32.3011 89.5722 33.2727 89.5722 34.3864V35.3835H78.5182V33.1335H86.1546C86.1546 32.6108 86.041 32.1477 85.8137 31.7443C85.5864 31.3409 85.2711 31.0256 84.8677 30.7983C84.4699 30.5653 84.0069 30.4489 83.4785 30.4489C82.9273 30.4489 82.4387 30.5767 82.0126 30.8324C81.5921 31.0824 81.2626 31.4205 81.0239 31.8466C80.7853 32.267 80.6631 32.7358 80.6574 33.2528V35.392C80.6574 36.0398 80.7768 36.5994 81.0154 37.071C81.2597 37.5426 81.6035 37.9062 82.0467 38.1619C82.4898 38.4176 83.0154 38.5455 83.6234 38.5455C84.0268 38.5455 84.3961 38.4886 84.7313 38.375C85.0665 38.2614 85.3535 38.0909 85.5921 37.8636C85.8307 37.6364 86.0126 37.358 86.1376 37.0284L89.4955 37.25C89.3251 38.0568 88.9756 38.7614 88.4472 39.3636C87.9245 39.9602 87.2484 40.4261 86.4188 40.7614C85.5949 41.0909 84.6432 41.2557 83.5637 41.2557ZM97.4962 45.9091V27.9091H101.076V30.108H101.238C101.397 29.7557 101.627 29.3977 101.928 29.0341C102.235 28.6648 102.633 28.358 103.121 28.1136C103.616 27.8636 104.229 27.7386 104.962 27.7386C105.917 27.7386 106.797 27.9886 107.604 28.4886C108.411 28.983 109.056 29.7301 109.539 30.7301C110.022 31.7244 110.263 32.9716 110.263 34.4716C110.263 35.9318 110.027 37.1648 109.556 38.1705C109.09 39.1705 108.454 39.929 107.647 40.446C106.846 40.9574 105.948 41.2131 104.954 41.2131C104.249 41.2131 103.65 41.0966 103.155 40.8636C102.667 40.6307 102.266 40.3381 101.954 39.9858C101.641 39.6278 101.402 39.267 101.238 38.9034H101.127V45.9091H97.4962ZM101.05 34.4545C101.05 35.233 101.158 35.9119 101.374 36.4915C101.59 37.071 101.902 37.5227 102.312 37.8466C102.721 38.1648 103.218 38.3239 103.803 38.3239C104.394 38.3239 104.894 38.1619 105.303 37.8381C105.712 37.5085 106.022 37.054 106.232 36.4744C106.448 35.8892 106.556 35.2159 106.556 34.4545C106.556 33.6989 106.451 33.0341 106.241 32.4602C106.03 31.8864 105.721 31.4375 105.312 31.1136C104.902 30.7898 104.4 30.6278 103.803 30.6278C103.212 30.6278 102.712 30.7841 102.303 31.0966C101.9 31.4091 101.59 31.8523 101.374 32.4261C101.158 33 101.05 33.6761 101.05 34.4545ZM112.684 41V27.9091H116.204V30.1932H116.34C116.579 29.3807 116.979 28.767 117.542 28.3523C118.104 27.9318 118.752 27.7216 119.485 27.7216C119.667 27.7216 119.863 27.733 120.073 27.7557C120.283 27.7784 120.468 27.8097 120.627 27.8494V31.071C120.456 31.0199 120.221 30.9744 119.92 30.9347C119.618 30.8949 119.343 30.875 119.093 30.875C118.559 30.875 118.081 30.9915 117.661 31.2244C117.246 31.4517 116.917 31.7699 116.672 32.179C116.434 32.5881 116.314 33.0597 116.314 33.5938V41H112.684ZM127.809 41.2557C126.486 41.2557 125.341 40.9744 124.375 40.4119C123.415 39.8437 122.673 39.054 122.15 38.0426C121.628 37.0256 121.366 35.8466 121.366 34.5057C121.366 33.1534 121.628 31.9716 122.15 30.9602C122.673 29.9432 123.415 29.1534 124.375 28.5909C125.341 28.0227 126.486 27.7386 127.809 27.7386C129.133 27.7386 130.275 28.0227 131.236 28.5909C132.201 29.1534 132.946 29.9432 133.469 30.9602C133.991 31.9716 134.253 33.1534 134.253 34.5057C134.253 35.8466 133.991 37.0256 133.469 38.0426C132.946 39.054 132.201 39.8437 131.236 40.4119C130.275 40.9744 129.133 41.2557 127.809 41.2557ZM127.826 38.4432C128.429 38.4432 128.932 38.2727 129.335 37.9318C129.738 37.5852 130.042 37.1136 130.247 36.517C130.457 35.9205 130.562 35.2415 130.562 34.4801C130.562 33.7188 130.457 33.0398 130.247 32.4432C130.042 31.8466 129.738 31.375 129.335 31.0284C128.932 30.6818 128.429 30.5085 127.826 30.5085C127.219 30.5085 126.707 30.6818 126.292 31.0284C125.883 31.375 125.574 31.8466 125.363 32.4432C125.159 33.0398 125.057 33.7188 125.057 34.4801C125.057 35.2415 125.159 35.9205 125.363 36.517C125.574 37.1136 125.883 37.5852 126.292 37.9318C126.707 38.2727 127.219 38.4432 127.826 38.4432ZM136.613 27.9091H140.244V41.6477C140.244 42.6591 140.045 43.4773 139.648 44.1023C139.25 44.7273 138.679 45.1847 137.934 45.4744C137.196 45.7642 136.312 45.9091 135.284 45.9091C135.159 45.9091 135.04 45.9063 134.926 45.9006C134.807 45.9006 134.682 45.8977 134.551 45.892V43.054C134.648 43.0597 134.733 43.0625 134.807 43.0625C134.875 43.0682 134.949 43.071 135.028 43.071C135.613 43.071 136.023 42.946 136.255 42.696C136.494 42.4517 136.613 42.0824 136.613 41.5881V27.9091ZM138.42 26.2216C137.886 26.2216 137.426 26.0426 137.04 25.6847C136.653 25.321 136.46 24.8864 136.46 24.3807C136.46 23.8807 136.653 23.4517 137.04 23.0938C137.426 22.7301 137.886 22.5483 138.42 22.5483C138.966 22.5483 139.429 22.7301 139.809 23.0938C140.196 23.4517 140.389 23.8807 140.389 24.3807C140.389 24.8864 140.196 25.321 139.809 25.6847C139.429 26.0426 138.966 26.2216 138.42 26.2216ZM149.118 41.2557C147.772 41.2557 146.613 40.983 145.641 40.4375C144.675 39.8864 143.931 39.108 143.408 38.1023C142.885 37.0909 142.624 35.8949 142.624 34.5142C142.624 33.1676 142.885 31.9858 143.408 30.9688C143.931 29.9517 144.667 29.1591 145.616 28.5909C146.57 28.0227 147.689 27.7386 148.973 27.7386C149.837 27.7386 150.641 27.8778 151.385 28.1562C152.135 28.429 152.789 28.8409 153.346 29.392C153.908 29.9432 154.346 30.6364 154.658 31.4716C154.971 32.3011 155.127 33.2727 155.127 34.3864V35.3835H144.073V33.1335H151.709C151.709 32.6108 151.596 32.1477 151.368 31.7443C151.141 31.3409 150.826 31.0256 150.422 30.7983C150.025 30.5653 149.562 30.4489 149.033 30.4489C148.482 30.4489 147.993 30.5767 147.567 30.8324C147.147 31.0824 146.817 31.4205 146.579 31.8466C146.34 32.267 146.218 32.7358 146.212 33.2528V35.392C146.212 36.0398 146.331 36.5994 146.57 37.071C146.814 37.5426 147.158 37.9062 147.601 38.1619C148.045 38.4176 148.57 38.5455 149.178 38.5455C149.581 38.5455 149.951 38.4886 150.286 38.375C150.621 38.2614 150.908 38.0909 151.147 37.8636C151.385 37.6364 151.567 37.358 151.692 37.0284L155.05 37.25C154.88 38.0568 154.53 38.7614 154.002 39.3636C153.479 39.9602 152.803 40.4261 151.973 40.7614C151.15 41.0909 150.198 41.2557 149.118 41.2557ZM163.411 41.2557C162.07 41.2557 160.917 40.9716 159.951 40.4034C158.991 39.8295 158.252 39.0341 157.735 38.017C157.223 37 156.968 35.8295 156.968 34.5057C156.968 33.1648 157.226 31.9886 157.743 30.9773C158.266 29.9602 159.008 29.1676 159.968 28.5994C160.928 28.0256 162.07 27.7386 163.394 27.7386C164.536 27.7386 165.536 27.946 166.394 28.3608C167.252 28.7756 167.931 29.358 168.431 30.108C168.931 30.858 169.206 31.7386 169.258 32.75H165.831C165.735 32.0966 165.479 31.571 165.064 31.1733C164.655 30.7699 164.118 30.5682 163.454 30.5682C162.891 30.5682 162.4 30.7216 161.979 31.0284C161.564 31.3295 161.241 31.7699 161.008 32.3494C160.775 32.929 160.658 33.6307 160.658 34.4545C160.658 35.2898 160.772 36 160.999 36.5852C161.232 37.1705 161.559 37.6165 161.979 37.9233C162.4 38.2301 162.891 38.3835 163.454 38.3835C163.868 38.3835 164.241 38.2983 164.57 38.1278C164.905 37.9574 165.181 37.7102 165.397 37.3864C165.618 37.0568 165.763 36.6619 165.831 36.2017H169.258C169.201 37.2017 168.928 38.0824 168.439 38.8438C167.956 39.5994 167.289 40.1903 166.437 40.6165C165.584 41.0426 164.576 41.2557 163.411 41.2557ZM178.545 27.9091V30.6364H170.662V27.9091H178.545ZM172.451 24.7727H176.082V36.9773C176.082 37.3125 176.133 37.5739 176.236 37.7614C176.338 37.9432 176.48 38.071 176.662 38.1449C176.849 38.2187 177.065 38.2557 177.309 38.2557C177.48 38.2557 177.65 38.2415 177.821 38.2131C177.991 38.179 178.122 38.1534 178.213 38.1364L178.784 40.8381C178.602 40.8949 178.346 40.9602 178.017 41.0341C177.687 41.1136 177.287 41.1619 176.815 41.179C175.94 41.2131 175.173 41.0966 174.514 40.8295C173.861 40.5625 173.352 40.1477 172.988 39.5852C172.625 39.0227 172.446 38.3125 172.451 37.4545V24.7727ZM191.638 31.642L188.314 31.8466C188.258 31.5625 188.135 31.3068 187.948 31.0795C187.76 30.8466 187.513 30.6619 187.206 30.5256C186.905 30.3835 186.545 30.3125 186.124 30.3125C185.562 30.3125 185.087 30.4318 184.701 30.6705C184.314 30.9034 184.121 31.2159 184.121 31.608C184.121 31.9205 184.246 32.1847 184.496 32.4006C184.746 32.6165 185.175 32.7898 185.783 32.9205L188.152 33.3977C189.425 33.6591 190.374 34.0795 190.999 34.6591C191.624 35.2386 191.937 36 191.937 36.9432C191.937 37.8011 191.684 38.554 191.178 39.2017C190.678 39.8494 189.991 40.3551 189.116 40.7188C188.246 41.0767 187.243 41.2557 186.107 41.2557C184.374 41.2557 182.993 40.8949 181.965 40.1733C180.942 39.446 180.343 38.4574 180.167 37.2074L183.738 37.0199C183.846 37.5483 184.107 37.9517 184.522 38.2301C184.937 38.5028 185.468 38.6392 186.116 38.6392C186.752 38.6392 187.263 38.517 187.65 38.2727C188.042 38.0227 188.241 37.7017 188.246 37.3097C188.241 36.9801 188.101 36.7102 187.829 36.5C187.556 36.2841 187.135 36.1193 186.567 36.0057L184.3 35.554C183.022 35.2983 182.07 34.8551 181.445 34.2244C180.826 33.5937 180.516 32.7898 180.516 31.8125C180.516 30.9716 180.743 30.2472 181.198 29.6392C181.658 29.0312 182.303 28.5625 183.133 28.233C183.968 27.9034 184.945 27.7386 186.064 27.7386C187.718 27.7386 189.019 28.0881 189.968 28.7869C190.922 29.4858 191.479 30.4375 191.638 31.642Z" fill="#FC738E"/>
</svg>
