<svg width="24" height="24" viewBox="0 0 24 24" fill="none" xmlns="http://www.w3.org/2000/svg">
<path d="M24 12C24 5.37258 18.6274 0 12 0C5.37258 0 0 5.37258 0 12C0 18.6274 5.37258 24 12 24C18.6274 24 24 18.6274 24 12Z" fill="#419FD9"/>
<path d="M24 12C24 5.37258 18.6274 0 12 0C5.37258 0 0 5.37258 0 12C0 18.6274 5.37258 24 12 24C18.6274 24 24 18.6274 24 12Z" fill="url(#paint0_linear)"/>
<path d="M5.3937 11.7354C8.88335 10.1831 11.2103 9.15973 12.3746 8.66523C15.6989 7.25348 16.3897 7.00823 16.84 7.00008C16.939 6.99838 17.1604 7.02343 17.3038 7.14223C17.4249 7.24258 17.4582 7.37813 17.4742 7.47323C17.4901 7.56838 17.51 7.78508 17.4942 7.95438C17.314 9.88698 16.5346 14.5769 16.138 16.7415C15.9702 17.6574 15.6398 17.9645 15.3199 17.9945C14.6248 18.0598 14.0969 17.5255 13.4236 17.0748C12.37 16.3697 11.7749 15.9307 10.7522 15.2427C9.57035 14.4475 10.3365 14.0104 11.01 13.2961C11.1863 13.1092 14.2491 10.2647 14.3084 10.0067C14.3158 9.97443 14.3227 9.85413 14.2527 9.79063C14.1827 9.72713 14.0794 9.74883 14.0049 9.76608C13.8992 9.79058 12.2161 10.9264 8.95565 13.1736C8.4779 13.5086 8.0452 13.6717 7.6575 13.6632C7.2301 13.6538 6.40795 13.4165 5.79675 13.2136C5.0471 12.9648 4.45127 12.8333 4.50315 12.4107C4.53017 12.1906 4.82701 11.9655 5.3937 11.7354Z" fill="white"/>
<defs>
<linearGradient id="paint0_linear" x1="12" y1="0" x2="12" y2="23.822" gradientUnits="userSpaceOnUse">
<stop stop-color="#2AABEE"/>
<stop offset="1" stop-color="#229ED9"/>
</linearGradient>
</defs>
</svg>
