<svg width="1200" height="630" viewBox="0 0 1200 630" fill="none" xmlns="http://www.w3.org/2000/svg">
<rect width="1200" height="630" fill="#F9FAFD"/>
<path d="M246.9 299C246.9 257.763 213.366 224.333 172 224.333V267C189.728 267 204.1 281.327 204.1 299V331.126C204.1 372.36 237.631 405.787 278.994 405.787C280.961 405.787 282.91 405.711 284.839 405.563C293.799 405.243 302.572 404.192 311.1 402.466L311.1 437.667C311.1 461.231 291.938 480.333 268.3 480.333V523C315.575 523 353.9 484.795 353.9 437.667L353.9 387.212C371.226 378.082 386.673 365.884 399.514 351.343C408.398 382.693 437.308 405.667 471.6 405.667C512.966 405.667 546.5 372.237 546.5 331V245.667C546.5 233.885 536.919 224.333 525.1 224.333C513.281 224.333 503.7 233.885 503.7 245.667V331C503.7 348.673 489.328 363 471.6 363C453.872 363 439.5 348.673 439.5 331V245.667C439.5 233.885 429.919 224.333 418.1 224.333C406.281 224.333 396.7 233.885 396.7 245.667C396.7 282.102 380.04 314.659 353.9 336.18L353.9 320.333H353.889V245.667C353.889 233.885 344.308 224.333 332.489 224.333C320.67 224.333 311.089 233.885 311.089 245.667V331.126C311.089 347.694 298.456 361.321 282.268 362.956C281.183 362.985 280.093 363 279 363V363.12H278.994C261.269 363.12 246.9 348.796 246.9 331.126V299Z" fill="#160044"/>
<ellipse cx="974.5" cy="160.333" rx="32.1" ry="32" fill="#FC738E"/>
<path fill-rule="evenodd" clip-rule="evenodd" d="M653.5 224.333C612.133 224.333 578.6 257.763 578.6 299V331C578.6 372.237 612.133 405.667 653.5 405.667C664.493 405.667 675.228 404.565 685.6 402.466V437.667C685.6 461.231 666.437 480.333 642.8 480.333V523C690.075 523 728.4 484.795 728.4 437.667V387.212C745.725 378.082 761.172 365.884 774.013 351.343C782.898 382.693 811.808 405.667 846.1 405.667C887.466 405.667 921 372.237 921 331V245.667C921 233.885 911.418 224.333 899.6 224.333C887.781 224.333 878.2 233.885 878.2 245.667V331C878.2 348.673 863.828 363 846.1 363C828.371 363 814 348.673 814 331V245.667C814 233.885 804.419 224.333 792.6 224.333C780.781 224.333 771.2 233.885 771.2 245.667C771.2 282.103 754.54 314.66 728.4 336.18V299C728.4 257.763 694.866 224.333 653.5 224.333ZM685.6 299C685.6 281.327 671.228 267 653.5 267C635.771 267 621.4 281.327 621.4 299V331C621.4 348.673 635.771 363 653.5 363C671.228 363 685.6 348.673 685.6 331V299Z" fill="#FC738E"/>
<path d="M953.1 245.667C953.1 233.885 962.681 224.333 974.5 224.333C986.318 224.333 995.9 233.885 995.9 245.667V331C995.9 348.673 1010.27 363 1028 363V405.667C986.633 405.667 953.1 372.237 953.1 331V245.667Z" fill="#FC738E"/>
</svg>
