<svg width="24" height="24" viewBox="0 0 24 24" fill="none" xmlns="http://www.w3.org/2000/svg">
<g clip-path="url(#clip0)">
<path d="M12.0009 23.9998C18.6282 23.9998 24.0008 18.6273 24.0008 11.9999C24.0008 5.37254 18.6282 0 12.0009 0C5.37351 0 0.000976562 5.37254 0.000976562 11.9999C0.000976562 18.6273 5.37351 23.9998 12.0009 23.9998Z" fill="#55ACEE"/>
<path d="M19.3504 8.62399C18.8362 8.85202 18.283 9.00625 17.7029 9.07513C18.2952 8.72025 18.7498 8.15874 18.9643 7.48856C18.4101 7.81734 17.796 8.05585 17.1429 8.18441C16.6197 7.62718 15.8742 7.27893 15.0487 7.27893C13.4649 7.27893 12.1804 8.56346 12.1804 10.1472C12.1804 10.3721 12.2059 10.5909 12.2551 10.8009C9.87126 10.6814 7.75762 9.53953 6.34283 7.80365C6.09597 8.22719 5.95437 8.72025 5.95437 9.24583C5.95437 10.2407 6.46112 11.119 7.23033 11.6333C6.76038 11.6185 6.3178 11.4895 5.93126 11.2741C5.93105 11.2863 5.93105 11.2985 5.93105 11.3105C5.93105 12.7003 6.92017 13.8594 8.23207 14.1227C7.99164 14.1886 7.73773 14.2235 7.47654 14.2235C7.2913 14.2235 7.11183 14.2057 6.93685 14.1724C7.30178 15.3117 8.36085 16.141 9.61628 16.1643C8.63444 16.9337 7.39783 17.3921 6.05362 17.3921C5.8226 17.3921 5.59371 17.3787 5.36975 17.3519C6.63845 18.1661 8.14651 18.6407 9.76623 18.6407C15.0421 18.6407 17.9273 14.2701 17.9273 10.4794C17.9273 10.3552 17.9245 10.2313 17.919 10.1085C18.4798 9.70424 18.966 9.1992 19.3504 8.62399Z" fill="white"/>
</g>
<defs>
<clipPath id="clip0">
<rect width="24" height="24" fill="white"/>
</clipPath>
</defs>
</svg>
